<svg width="18" height="15" viewBox="0 0 18 15" fill="none" xmlns="http://www.w3.org/2000/svg">
<path d="M14.9582 6.78125H1.59375C1.38388 6.78125 1.21161 6.84857 1.07697 6.98322C0.942323 7.11786 0.875 7.29012 0.875 7.5C0.875 7.70988 0.942323 7.88214 1.07697 8.01678C1.21161 8.15143 1.38388 8.21875 1.59375 8.21875H14.9582L9.70197 13.452C9.56732 13.6019 9.5 13.7742 9.5 13.9688C9.5 14.1633 9.57116 14.3317 9.71347 14.474C9.85578 14.6163 10.0242 14.6875 10.2188 14.6875C10.4133 14.6875 10.5856 14.6202 10.7355 14.4855L17.2043 8.01678C17.3389 7.8668 17.4062 7.69454 17.4062 7.5C17.4062 7.30546 17.3389 7.1332 17.2043 6.98322L10.7355 0.514469C10.5856 0.379823 10.4133 0.3125 10.2188 0.3125C10.0242 0.3125 9.85578 0.383656 9.71347 0.525969C9.57116 0.668281 9.5 0.836708 9.5 1.03125C9.5 1.22579 9.56732 1.39805 9.70197 1.54803L14.9582 6.78125Z" fill="#131353"/>
</svg>
