<svg width="75" height="27" viewBox="0 0 75 27" fill="none" xmlns="http://www.w3.org/2000/svg">
<path d="M5.8639 11.5915C2.50823 11.5915 0 9.10459 0 5.80428C0 2.50398 2.50823 0 5.8639 0C8.75539 0 10.9953 1.90779 11.4425 4.7056H8.36362C7.98461 3.57285 7.03072 2.8404 5.87242 2.8404C4.30956 2.8404 3.16404 4.09664 3.16404 5.80428C3.16404 7.51193 4.30956 8.74262 5.87242 8.74262C7.09459 8.74262 8.05701 7.94629 8.36787 6.71985H11.4766C11.0592 9.61986 8.8065 11.5873 5.86816 11.5873L5.8639 11.5915Z" fill="white"/>
<path d="M18.1838 11.5915C14.6365 11.5915 12.1069 9.16846 12.1069 5.79576C12.1069 2.42306 14.6365 0 18.1838 0C21.7311 0 24.2435 2.41455 24.2435 5.79576C24.2435 9.17698 21.7225 11.5915 18.1838 11.5915ZM21.0795 5.79576C21.0795 4.07109 19.8658 2.82762 18.1838 2.82762C16.5017 2.82762 15.271 4.07535 15.271 5.79576C15.271 7.51618 16.5059 8.76391 18.1838 8.76391C19.8616 8.76391 21.0795 7.5247 21.0795 5.79576Z" fill="white"/>
<path d="M34.8469 0.281052V11.3105H32.3344L27.9525 5.32307V11.3105H25.0056V0.281052H27.6672L31.9043 6.0683V0.281052H34.8512H34.8469Z" fill="white"/>
<path d="M45.8039 0.281052V11.3105H43.2915L38.9095 5.32307V11.3105H35.9626V0.281052H38.6242L42.8614 6.0683V0.281052H45.8082H45.8039Z" fill="white"/>
<path d="M54.1122 8.67448V11.3105H46.9197V0.281052H53.9759V2.90852H49.9432V4.531H53.5671V7.0222H49.9432V8.67448H54.108H54.1122Z" fill="white"/>
<path d="M60.2018 11.5915C56.8461 11.5915 54.3379 9.10459 54.3379 5.80428C54.3379 2.50398 56.8461 0 60.2018 0C63.0933 0 65.3332 1.90779 65.7804 4.7056H62.7015C62.3225 3.57285 61.3686 2.8404 60.2103 2.8404C58.6475 2.8404 57.5019 4.09664 57.5019 5.80428C57.5019 7.51193 58.6475 8.74262 60.2103 8.74262C61.4325 8.74262 62.3949 7.94629 62.7058 6.71985H65.8144C65.3971 9.61986 63.1444 11.5873 60.2061 11.5873L60.2018 11.5915Z" fill="white"/>
<path d="M74.9999 3.01498H72.002V11.3105H68.9486V3.01498H65.9507V0.276794H74.9957V3.01498H74.9999Z" fill="white"/>
<path d="M22.2803 20.5215C22.2803 17.2212 24.6863 14.8067 27.9525 14.8067C30.563 14.8067 32.6539 16.4334 33.233 18.9161H31.4019C30.8738 17.4469 29.5878 16.5569 27.9568 16.5569C25.7467 16.5569 24.1284 18.2219 24.1284 20.5215C24.1284 22.8211 25.7467 24.4776 27.9568 24.4776C29.6432 24.4776 30.9462 23.5237 31.4402 21.9609H33.2756C32.7007 24.5543 30.6098 26.2278 27.9525 26.2278C24.6863 26.2278 22.2803 23.8133 22.2803 20.5215Z" fill="white"/>
<path d="M40.664 23.6302H35.7455L34.8086 26.032H32.8838L37.3168 15.0025H39.0202L43.581 26.032H41.6179L40.664 23.6302ZM36.3715 22.0077H40.0337L38.1898 17.3575L36.3715 22.0077Z" fill="white"/>
<path d="M48.3165 21.9481H46.2256V26.032H44.4158V15.0025H48.7083C50.8333 15.0025 52.4132 16.4589 52.4132 18.4945C52.4132 19.9977 51.5189 21.1986 50.1689 21.6968L52.7155 26.032H50.6842L48.3123 21.9481H48.3165ZM46.2256 20.2532H48.6018C49.8027 20.2532 50.5735 19.5123 50.5735 18.4732C50.5735 17.4341 49.8027 16.6932 48.6018 16.6932H46.2256V20.2532Z" fill="white"/>
</svg>
