<svg width="10" height="18" viewBox="0 0 10 18" fill="none" xmlns="http://www.w3.org/2000/svg">
<path d="M0.992 0.491961C0.8515 0.648461 0.78125 0.820461 0.78125 1.00796C0.78125 1.19546 0.8515 1.35946 0.992 1.49996L8.3045 8.99996L0.992 16.5C0.8515 16.6405 0.78125 16.8045 0.78125 16.992C0.78125 17.1795 0.8515 17.3435 0.992 17.484C1.1325 17.6245 1.2965 17.6947 1.484 17.6947C1.6715 17.6947 1.8355 17.6322 1.976 17.5072L9.734 9.51521C9.8745 9.37471 9.94475 9.20271 9.94475 8.99921C9.94475 8.79571 9.8745 8.62371 9.734 8.48321L1.976 0.491211C1.8355 0.366211 1.6715 0.303711 1.484 0.303711C1.2965 0.303711 1.1325 0.366211 0.992 0.491211V0.491961Z" fill="#131353"/>
</svg>
