<svg width="16" height="9" viewBox="0 0 16 9" fill="none" xmlns="http://www.w3.org/2000/svg">
<path d="M14.6615 0.383645C14.4823 0.383167 14.3246 0.449486 14.1924 0.576889L14.1914 0.577422L14.1802 0.588295L8.00002 6.61398L1.82027 0.588726C1.68577 0.454431 1.52429 0.38427 1.34002 0.38427C1.15554 0.38427 0.993903 0.454591 0.859309 0.589184C0.724715 0.723778 0.654395 0.885416 0.654395 1.0699C0.654395 1.25088 0.715788 1.40708 0.839934 1.53123L0.839928 1.53124L0.840885 1.53217L7.50043 8.0161C7.63668 8.15211 7.80549 8.22052 8.00064 8.22052C8.19577 8.22052 8.36456 8.15213 8.5008 8.01616C8.50098 8.01598 8.50117 8.01579 8.50135 8.01561L15.1603 1.55165L15.1605 1.55184L15.1654 1.54636C15.2865 1.41019 15.3469 1.24625 15.3469 1.05989C15.3469 0.869824 15.2773 0.706716 15.1399 0.577144C15.0049 0.449869 14.844 0.384132 14.6615 0.383645Z" fill="#3330E8" stroke="#3330E8" stroke-width="0.2"/>
</svg>
