<svg width="149" height="66" viewBox="0 0 149 66" fill="none" xmlns="http://www.w3.org/2000/svg">
<g style="mix-blend-mode:luminosity" clip-path="url(#clip0_649_2628)">
<path d="M38.3427 41.2798C31.2237 41.2798 25.416 46.8195 25.416 53.6101C25.416 60.4007 31.2237 65.9404 38.3427 65.9404C45.4617 65.9404 51.2694 60.4007 51.2694 53.6101C51.3318 46.879 45.5243 41.2798 38.3427 41.2798ZM47.8348 53.6697C47.8348 58.6732 43.5883 62.7238 38.3427 62.7238C33.0972 62.7238 28.8507 58.6732 28.8507 53.6697C28.8507 48.666 33.0972 44.6155 38.3427 44.6155C43.5883 44.6155 47.8348 48.666 47.8348 53.6697Z" fill="white"/>
<path d="M71.8773 62.2473H59.7624V43.4242C59.7624 42.5307 59.013 41.7563 58.0139 41.7563C57.0771 41.7563 56.2654 42.4711 56.2654 43.4242V63.0217C56.2654 64.3917 57.4518 65.5234 58.8882 65.5234H71.8773C72.8139 65.5234 73.6258 64.8087 73.6258 63.8556C73.6258 62.9621 72.8139 62.2473 71.8773 62.2473Z" fill="white"/>
<path d="M110.095 41.8159H73.2511C72.3143 41.8159 71.5024 42.5308 71.5024 43.4838C71.5024 44.4368 72.2519 45.1517 73.2511 45.1517H80.3701V63.9152C80.3701 64.8087 81.1194 65.5831 82.1186 65.5831C83.0553 65.5831 83.8672 64.8682 83.8672 63.9152V45.0921H110.095C111.032 45.0921 111.844 44.3773 111.844 43.4242C111.844 42.4711 111.032 41.8159 110.095 41.8159Z" fill="white"/>
<path d="M96.2317 54.5037H107.847C108.784 54.5037 109.595 53.7889 109.595 52.8358C109.595 51.8827 108.846 51.168 107.847 51.168H96.2317C95.295 51.168 94.4832 51.8827 94.4832 52.8358C94.4832 53.7889 95.295 54.5037 96.2317 54.5037Z" fill="white"/>
<path d="M110.095 62.2473H96.2317C95.295 62.2473 94.4832 62.9621 94.4832 63.9152C94.4832 64.8087 95.2326 65.583 96.2317 65.583H110.095C111.032 65.583 111.844 64.8682 111.844 63.9152C111.781 62.9621 111.032 62.2473 110.095 62.2473Z" fill="white"/>
<path d="M22.1063 41.935C21.6693 41.7564 21.2321 41.7564 20.795 41.935C20.3578 42.1137 20.0456 42.4116 19.8582 42.8285L12.0523 60.9368L4.12148 42.8285C3.93413 42.4116 3.62189 42.1137 3.18476 41.935C2.74763 41.7564 2.3105 41.7564 1.87336 41.935C1.43623 42.1137 1.12399 42.4116 0.93665 42.8285C0.749307 43.2455 0.749307 43.6624 0.93665 44.0794L9.61686 63.9748C9.99155 64.9279 10.9907 65.5234 11.9899 65.5234C13.0515 65.5234 13.9881 64.9279 14.3629 64.0343V63.9748L23.0431 44.0794C23.4178 43.2455 22.9806 42.2924 22.1063 41.935Z" fill="white"/>
<path d="M127.331 53.4314C127.268 53.1335 127.143 52.8953 126.956 52.6571L118.588 42.4711C118.276 42.1137 117.901 41.8755 117.464 41.8755C117.027 41.8159 116.527 41.935 116.215 42.2329C115.466 42.769 115.341 43.8412 115.903 44.556L123.397 53.7292L115.903 62.9025C115.341 63.6174 115.466 64.63 116.215 65.2256C116.527 65.4639 116.902 65.5831 117.277 65.5831C117.339 65.5831 117.402 65.5831 117.464 65.5831C117.901 65.5234 118.338 65.2852 118.588 64.9874L126.956 54.8015C127.143 54.5632 127.268 54.325 127.268 54.0271C127.268 54.0271 127.268 53.9676 127.268 53.9079C127.268 53.8484 127.268 53.7888 127.268 53.7292C127.268 53.6697 127.268 53.6101 127.268 53.5506C127.331 53.491 127.331 53.4314 127.331 53.4314Z" fill="white"/>
<path d="M133.45 53.6696L140.944 44.4964C141.507 43.7816 141.382 42.769 140.632 42.1733C140.257 41.8754 139.821 41.7564 139.382 41.8159C138.946 41.8754 138.509 42.1138 138.259 42.4116L129.891 52.657C129.704 52.8953 129.579 53.1336 129.517 53.4314V53.4909C129.517 53.5506 129.517 53.6101 129.517 53.6696C129.517 53.7293 129.517 53.7888 129.517 53.8484V53.908C129.579 54.2058 129.704 54.444 129.891 54.6824L138.259 64.8682C138.571 65.2256 138.946 65.4639 139.382 65.4639C139.445 65.4639 139.509 65.4639 139.571 65.4639C139.945 65.4639 140.32 65.3448 140.632 65.1066C141.382 64.5704 141.507 63.4982 140.944 62.7834L133.45 53.6696Z" fill="white"/>
<path d="M145.752 26.1499H146.565C146.877 26.1499 147.314 26.269 147.314 26.7456C147.314 27.2221 146.939 27.3413 146.565 27.3413H145.752V26.1499ZM147.127 27.5795C147.501 27.4603 147.751 27.1029 147.751 26.7456C147.751 26.1499 147.314 25.7925 146.627 25.7925H145.503C145.44 25.7925 145.44 25.852 145.44 25.852V28.6517C145.44 28.7113 145.503 28.7113 145.503 28.7113H145.752C145.815 28.7113 145.815 28.6517 145.815 28.6517V27.5795H146.752L147.251 28.6517L147.314 28.7113H147.563C147.626 28.7113 147.626 28.6517 147.626 28.6517V28.5921L147.127 27.5795Z" fill="white"/>
<path d="M148.626 28.056C148.626 28.8303 148 29.426 147.189 29.426H145.628C144.817 29.426 144.191 28.8303 144.191 28.056V26.5667C144.191 25.7924 144.817 25.1967 145.628 25.1967H147.189C148 25.1967 148.626 25.7924 148.626 26.5667V28.056ZM149 26.4477C149 25.5541 148.251 24.8394 147.314 24.8394H145.503C144.566 24.8394 143.817 25.5541 143.817 26.4477V28.175C143.817 29.0686 144.566 29.7834 145.503 29.7834H147.314C148.251 29.7834 149 29.0686 149 28.175V26.4477Z" fill="white"/>
<path d="M32.5352 21.0866V8.69675C32.5352 7.62455 33.4095 6.73105 34.5336 6.61192H44.4627C45.5243 6.67148 46.3362 7.44585 46.461 8.45849V21.325C46.3362 22.3376 45.3994 23.1715 44.2754 23.1715H34.7209C33.5344 23.1715 32.5352 22.2184 32.5352 21.0866ZM47.3978 0H31.5985C28.2887 0 25.6035 2.56137 25.6035 5.71841V24.0649C25.6035 27.2221 28.2887 29.7834 31.5985 29.7834H47.3978C50.7075 29.7834 53.3927 27.2221 53.3927 24.0649V5.71841C53.3927 2.56137 50.7075 0 47.3978 0Z" fill="white"/>
<path d="M23.0432 24.8393C23.0432 23.9459 22.2313 23.1715 21.2946 23.1715H9.11735C7.93085 23.1715 6.93168 22.2184 6.93168 21.0866V8.69675C6.93168 7.56498 7.93085 6.61192 9.11735 6.61192H21.2946C22.2313 6.61192 23.0432 5.83754 23.0432 4.94405V1.66787C23.0432 0.774368 22.2313 0 21.2946 0H5.99497C2.68525 0 0 2.56137 0 5.71841V24.0649C0 27.2221 2.68525 29.7834 5.99497 29.7834H21.2946C22.2313 29.7834 23.0432 29.0091 23.0432 28.1155V24.8393Z" fill="white"/>
<path d="M141.195 24.8393C141.195 23.9459 140.382 23.1715 139.446 23.1715H127.268C126.082 23.1715 125.083 22.2184 125.083 21.0866V8.69675C125.083 7.56498 126.082 6.61192 127.268 6.61192H139.446C140.382 6.61192 141.195 5.83754 141.195 4.94405V1.66787C141.195 0.774368 140.382 0 139.446 0H124.146C120.836 0 118.151 2.56137 118.151 5.71841V24.0649C118.151 27.2221 120.836 29.7834 124.146 29.7834H139.446C140.382 29.7834 141.195 29.0091 141.195 28.1155V24.8393Z" fill="white"/>
<path d="M77.8096 12.2707C77.6848 13.2834 76.748 14.1173 75.624 14.1173H63.9462V8.69675C63.9462 8.63719 63.9462 8.57762 63.9462 8.51805V8.45849C63.9462 8.33934 64.0088 8.22021 64.0088 8.10108V8.04151C64.0712 7.92238 64.0712 7.80325 64.1336 7.68411C64.1336 7.68411 64.1336 7.68411 64.1336 7.62455C64.1961 7.50541 64.2585 7.38628 64.3209 7.32671C64.3834 7.20758 64.5084 7.14802 64.6332 7.02888C64.6957 6.96932 64.7581 6.96932 64.8205 6.90975C64.883 6.85018 64.9454 6.85018 65.0078 6.79062C65.0704 6.73105 65.1328 6.73105 65.1952 6.73105C65.2577 6.67148 65.3201 6.67148 65.445 6.67148C65.5074 6.67148 65.5699 6.67148 65.5699 6.61192C65.6324 6.61192 65.7573 6.55235 65.8197 6.55235C65.8821 6.55235 65.8821 6.55235 65.9446 6.55235H75.8113C76.8729 6.61192 77.6848 7.38628 77.8096 8.39892V12.2707ZM78.7464 0H63.8838H62.9472C59.6373 0 56.9521 2.56137 56.9521 5.71841V17.7509V28.1155C56.9521 29.0091 57.764 29.7834 58.7007 29.7834H62.1353C63.072 29.7834 63.8838 29.0091 63.8838 28.1155V20.7293H78.6839C81.9936 20.7293 84.6789 18.1678 84.6789 15.0108V5.71841C84.7413 2.56137 82.0561 0 78.7464 0Z" fill="white"/>
<path d="M108.409 9.64982C108.284 10.6625 107.348 11.4964 106.223 11.4964H94.5457V10.1264V8.69675C94.5457 8.63719 94.5457 8.57762 94.5457 8.51805V8.45849C94.5457 8.33934 94.6081 8.22021 94.6081 8.10108V8.04151C94.6705 7.92238 94.6705 7.80325 94.7331 7.68411C94.7331 7.68411 94.7331 7.68411 94.7331 7.62455C94.7955 7.50541 94.858 7.38628 94.9204 7.32671C94.9828 7.20758 95.1077 7.14802 95.2327 7.02888C95.2951 6.96932 95.3575 6.96932 95.42 6.90975C95.4824 6.85018 95.5449 6.85018 95.6073 6.79062C95.6697 6.73105 95.7323 6.73105 95.7947 6.73105C95.8571 6.67148 95.9196 6.67148 96.0444 6.67148C96.1069 6.67148 96.1693 6.67148 96.1693 6.61192C96.2317 6.61192 96.3566 6.55235 96.4816 6.55235C96.544 6.55235 96.544 6.55235 96.6065 6.55235H106.473C107.535 6.61192 108.347 7.38628 108.471 8.39892V9.64982H108.409ZM115.341 12.3899V5.71841C115.341 2.56137 112.655 0 109.346 0H94.4832H93.5465C90.2368 0 87.5515 2.56137 87.5515 5.71841V17.7509V19.1209V24.0649C87.5515 27.2221 90.2368 29.7834 93.5465 29.7834H112.406C113.342 29.7834 114.154 29.0091 114.154 28.1155V24.8393C114.154 23.9459 113.342 23.1715 112.406 23.1715H96.6689C95.4824 23.1715 94.4832 22.2184 94.4832 21.0866V19.1209V18.0487H109.283C112.655 18.1083 115.341 15.5469 115.341 12.3899Z" fill="white"/>
</g>
<defs>
<clipPath id="clip0_649_2628">
<rect width="149" height="66" fill="white"/>
</clipPath>
</defs>
</svg>
