<svg width="86" height="71" viewBox="0 0 86 71" fill="none" xmlns="http://www.w3.org/2000/svg">
<g clip-path="url(#clip0_649_2490)">
<path d="M79.3461 52.7944H6.67208C6.41522 52.7944 6.16888 52.6927 5.98725 52.5118C5.80562 52.3309 5.70361 52.0855 5.70361 51.8296V30.9263C5.70724 30.6974 5.78949 30.4767 5.93673 30.3009L14.4919 20.2423C14.5834 20.1371 14.6962 20.0524 14.823 19.9939C14.9497 19.9353 15.0876 19.9043 15.2273 19.9029H70.8269C70.967 19.902 71.1055 19.9319 71.2327 19.9906C71.3598 20.0493 71.4723 20.1352 71.5622 20.2423L80.1353 30.3009C80.2774 30.4783 80.3534 30.6993 80.3505 30.9263V51.8296C80.3506 51.9594 80.3244 52.0878 80.2735 52.2073C80.2226 52.3267 80.1481 52.4347 80.0543 52.5248C79.9605 52.6148 79.8495 52.6851 79.7278 52.7315C79.6061 52.7778 79.4763 52.7992 79.3461 52.7944ZM7.60476 50.8648H78.3418V31.2121L70.2888 21.7609H15.6757L7.64061 31.2121L7.60476 50.8648Z" fill="#3330E8"/>
<path d="M82.4126 61.0306H55.6172C55.4801 61.0493 55.3407 61.0386 55.2082 60.9991C55.0757 60.9596 54.9532 60.8923 54.849 60.8018C54.7448 60.7112 54.6613 60.5995 54.604 60.4741C54.5468 60.3487 54.5172 60.2125 54.5172 60.0748C54.5172 59.937 54.5468 59.8008 54.604 59.6754C54.6613 59.55 54.7448 59.4383 54.849 59.3477C54.9532 59.2572 55.0757 59.1899 55.2082 59.1504C55.3407 59.1109 55.4801 59.1002 55.6172 59.1189H82.3588C82.5778 59.1189 82.7947 59.0759 82.9971 58.9924C83.1994 58.9089 83.3833 58.7865 83.5382 58.6322C83.6931 58.4779 83.8159 58.2948 83.8998 58.0932C83.9836 57.8916 84.0267 57.6755 84.0267 57.4573V54.438C84.022 54.0004 83.8442 53.5824 83.5319 53.2746C83.2196 52.9669 82.798 52.7943 82.3588 52.7943H3.60465C3.16703 52.7943 2.74732 52.9675 2.43788 53.2757C2.12843 53.584 1.95457 54.002 1.95457 54.438V57.4573C1.95455 57.8949 2.12784 58.3149 2.43678 58.626C2.74572 58.9371 3.16539 59.1142 3.60465 59.1189H37.9688C38.2007 59.1506 38.4133 59.2648 38.5671 59.4405C38.721 59.6163 38.8058 59.8416 38.8058 60.0748C38.8058 60.3079 38.721 60.5332 38.5671 60.7089C38.4133 60.8847 38.2007 60.9989 37.9688 61.0306H3.60465C2.6533 61.0306 1.74091 60.6541 1.0682 59.984C0.395498 59.3139 0.0175781 58.405 0.0175781 57.4573V54.438C0.0175781 53.4903 0.395498 52.5815 1.0682 51.9113C1.74091 51.2412 2.6533 50.8647 3.60465 50.8647H82.4305C83.3819 50.8647 84.2943 51.2412 84.967 51.9113C85.6397 52.5815 86.0176 53.4903 86.0176 54.438V57.4573C86.0176 57.9281 85.9242 58.3942 85.7428 58.8289C85.5614 59.2636 85.2956 59.6583 84.9606 59.9904C84.6256 60.3224 84.2281 60.5852 83.7908 60.7637C83.3535 60.9423 82.8851 61.0329 82.4126 61.0306Z" fill="#3330E8"/>
<path d="M39.8702 61.0307H37.9511C37.8141 61.0494 37.6746 61.0387 37.5422 60.9992C37.4097 60.9598 37.2871 60.8925 37.1829 60.8019C37.0787 60.7113 36.9952 60.5996 36.9379 60.4742C36.8807 60.3488 36.8511 60.2127 36.8511 60.0749C36.8511 59.9371 36.8807 59.8009 36.9379 59.6755C36.9952 59.5501 37.0787 59.4384 37.1829 59.3479C37.2871 59.2573 37.4097 59.19 37.5422 59.1505C37.6746 59.1111 37.8141 59.1003 37.9511 59.119H39.8702C40.0072 59.1003 40.1466 59.1111 40.2791 59.1505C40.4116 59.19 40.5341 59.2573 40.6383 59.3479C40.7425 59.4384 40.8261 59.5501 40.8833 59.6755C40.9405 59.8009 40.9702 59.9371 40.9702 60.0749C40.9702 60.2127 40.9405 60.3488 40.8833 60.4742C40.8261 60.5996 40.7425 60.7113 40.6383 60.8019C40.5341 60.8925 40.4116 60.9598 40.2791 60.9992C40.1466 61.0387 40.0072 61.0494 39.8702 61.0307Z" fill="#3330E8"/>
<path d="M48.1925 61.0307H45.4125C45.2755 61.0494 45.136 61.0387 45.0035 60.9992C44.871 60.9598 44.7486 60.8925 44.6444 60.8019C44.5401 60.7113 44.4566 60.5996 44.3994 60.4742C44.3421 60.3488 44.3125 60.2127 44.3125 60.0749C44.3125 59.9371 44.3421 59.8009 44.3994 59.6755C44.4566 59.5501 44.5401 59.4384 44.6444 59.3479C44.7486 59.2573 44.871 59.19 45.0035 59.1505C45.136 59.1111 45.2755 59.1003 45.4125 59.119H48.1925C48.3295 59.1003 48.4689 59.1111 48.6014 59.1505C48.7339 59.19 48.8564 59.2573 48.9607 59.3479C49.0649 59.4384 49.1484 59.5501 49.2056 59.6755C49.2629 59.8009 49.2925 59.9371 49.2925 60.0749C49.2925 60.2127 49.2629 60.3488 49.2056 60.4742C49.1484 60.5996 49.0649 60.7113 48.9607 60.8019C48.8564 60.8925 48.7339 60.9598 48.6014 60.9992C48.4689 61.0387 48.3295 61.0494 48.1925 61.0307Z" fill="#3330E8"/>
<path d="M55.6177 61.0307H53.8241C53.6871 61.0494 53.5476 61.0387 53.4151 60.9992C53.2826 60.9598 53.1602 60.8925 53.056 60.8019C52.9518 60.7113 52.8682 60.5996 52.811 60.4742C52.7537 60.3488 52.7241 60.2127 52.7241 60.0749C52.7241 59.9371 52.7537 59.8009 52.811 59.6755C52.8682 59.5501 52.9518 59.4384 53.056 59.3479C53.1602 59.2573 53.2826 59.19 53.4151 59.1505C53.5476 59.1111 53.6871 59.1003 53.8241 59.119H55.6177C55.7547 59.1003 55.8941 59.1111 56.0266 59.1505C56.1591 59.19 56.2816 59.2573 56.3858 59.3479C56.49 59.4384 56.5735 59.5501 56.6308 59.6755C56.688 59.8009 56.7176 59.9371 56.7176 60.0749C56.7176 60.2127 56.688 60.3488 56.6308 60.4742C56.5735 60.5996 56.49 60.7113 56.3858 60.8019C56.2816 60.8925 56.1591 60.9598 56.0266 60.9992C55.8941 61.0387 55.7547 61.0494 55.6177 61.0307Z" fill="#3330E8"/>
<path d="M60.3705 1.91157H58.4335C58.2965 1.93027 58.157 1.91952 58.0245 1.88005C57.892 1.84059 57.7696 1.77332 57.6653 1.68276C57.5611 1.5922 57.4776 1.48045 57.4204 1.35505C57.3631 1.22964 57.3335 1.09348 57.3335 0.955722C57.3335 0.817961 57.3631 0.6818 57.4204 0.556394C57.4776 0.430989 57.5611 0.319241 57.6653 0.228683C57.7696 0.138126 57.892 0.0708582 58.0245 0.0313916C58.157 -0.00807498 58.2965 -0.0187989 58.4335 -9.54913e-05H60.3705C60.6024 0.0315632 60.815 0.145814 60.9688 0.321536C61.1227 0.497258 61.2075 0.722539 61.2075 0.955722C61.2075 1.1889 61.1227 1.41421 60.9688 1.58993C60.815 1.76566 60.6024 1.87991 60.3705 1.91157Z" fill="#3330E8"/>
<path d="M53.0348 1.91157H50.3266C50.1895 1.93027 50.0501 1.91952 49.9176 1.88005C49.7851 1.84059 49.6626 1.77332 49.5584 1.68276C49.4542 1.5922 49.3707 1.48045 49.3134 1.35505C49.2562 1.22964 49.2266 1.09348 49.2266 0.955722C49.2266 0.817961 49.2562 0.6818 49.3134 0.556394C49.3707 0.430989 49.4542 0.319241 49.5584 0.228683C49.6626 0.138126 49.7851 0.0708582 49.9176 0.0313916C50.0501 -0.00807498 50.1895 -0.0187989 50.3266 -9.54913e-05H53.0348C53.1718 -0.0187989 53.3113 -0.00807498 53.4438 0.0313916C53.5763 0.0708582 53.6987 0.138126 53.803 0.228683C53.9072 0.319241 53.9907 0.430989 54.0479 0.556394C54.1052 0.6818 54.1348 0.817961 54.1348 0.955722C54.1348 1.09348 54.1052 1.22964 54.0479 1.35505C53.9907 1.48045 53.9072 1.5922 53.803 1.68276C53.6987 1.77332 53.5763 1.84059 53.4438 1.88005C53.3113 1.91952 53.1718 1.93027 53.0348 1.91157Z" fill="#3330E8"/>
<path d="M44.9461 1.91157H43.0629C42.9259 1.93027 42.7864 1.91952 42.6539 1.88005C42.5214 1.84059 42.399 1.77332 42.2947 1.68276C42.1905 1.5922 42.107 1.48045 42.0498 1.35505C41.9925 1.22964 41.9629 1.09348 41.9629 0.955722C41.9629 0.817961 41.9925 0.6818 42.0498 0.556394C42.107 0.430989 42.1905 0.319241 42.2947 0.228683C42.399 0.138126 42.5214 0.0708582 42.6539 0.0313916C42.7864 -0.00807498 42.9259 -0.0187989 43.0629 -9.54913e-05H44.9999C45.2318 0.0315632 45.4444 0.145814 45.5982 0.321536C45.7521 0.497258 45.8369 0.722539 45.8369 0.955722C45.8369 1.1889 45.7521 1.41421 45.5982 1.58993C45.4444 1.76566 45.2318 1.87991 44.9999 1.91157H44.9461Z" fill="#3330E8"/>
<path d="M70.7729 21.8325H15.1734C15.0057 21.8217 14.8435 21.7685 14.7023 21.6778C14.561 21.5872 14.4453 21.4621 14.3662 21.3144C14.2909 21.1742 14.2515 21.0177 14.2515 20.8588C14.2515 20.6998 14.2909 20.5433 14.3662 20.4032L22.9214 0.500338C22.9985 0.328199 23.1245 0.182304 23.2838 0.0807011C23.4432 -0.0209017 23.629 -0.0737742 23.8182 -0.0713911H43.0628C43.1998 -0.0900945 43.3393 -0.0793433 43.4718 -0.0398768C43.6043 -0.000410177 43.7267 0.0668575 43.8309 0.157415C43.9352 0.247973 44.0187 0.35972 44.0759 0.485126C44.1332 0.610532 44.1628 0.746693 44.1628 0.884453C44.1628 1.02221 44.1332 1.15837 44.0759 1.28378C44.0187 1.40919 43.9352 1.52093 43.8309 1.61149C43.7267 1.70205 43.6043 1.76932 43.4718 1.80878C43.3393 1.84825 43.1998 1.859 43.0628 1.8403H24.4279L16.6978 19.8315H69.3022L61.5721 1.8403H60.3704C60.2334 1.859 60.094 1.84825 59.9615 1.80878C59.829 1.76932 59.7065 1.70205 59.6023 1.61149C59.498 1.52093 59.4145 1.40919 59.3573 1.28378C59.3 1.15837 59.2704 1.02221 59.2704 0.884453C59.2704 0.746693 59.3 0.610532 59.3573 0.485126C59.4145 0.35972 59.498 0.247973 59.6023 0.157415C59.7065 0.0668575 59.829 -0.000410177 59.9615 -0.0398768C60.094 -0.0793433 60.2334 -0.0900945 60.3704 -0.0713911H62.1639C62.3511 -0.074963 62.5351 -0.0223541 62.6918 0.0796106C62.8485 0.181575 62.9708 0.328189 63.0428 0.500338L71.7594 20.4747C71.8213 20.6221 71.8456 20.7825 71.8299 20.9415C71.8143 21.1005 71.7592 21.2532 71.6697 21.3858C71.574 21.5333 71.4402 21.6526 71.2825 21.7311C71.1248 21.8097 70.9488 21.8447 70.7729 21.8325Z" fill="#3330E8"/>
<path d="M63.0966 17.08H22.9035C22.7419 17.08 22.583 17.039 22.4418 16.9608C22.3006 16.8827 22.1817 16.77 22.0964 16.6334C22.0178 16.4943 21.9766 16.3374 21.9766 16.1778C21.9766 16.0182 22.0178 15.8613 22.0964 15.7222L26.921 5.23476C26.9994 5.06875 27.1238 4.92846 27.2794 4.83036C27.4351 4.73226 27.6156 4.68043 27.7998 4.68091H58.2899C58.4741 4.68043 58.6547 4.73226 58.8103 4.83036C58.966 4.92846 59.0903 5.06875 59.1688 5.23476L64.0472 15.6686C64.1179 15.8146 64.1497 15.9763 64.1396 16.1382C64.1296 16.3 64.078 16.4566 63.9898 16.5929C63.9016 16.7292 63.7797 16.8406 63.6359 16.9165C63.4921 16.9924 63.331 17.0303 63.1683 17.0264L63.0966 17.08ZM24.4279 15.1505H61.5721L57.6083 6.66405H28.4096L24.4279 15.1505Z" fill="#3330E8"/>
<path d="M17.1284 31.891H6.67208C6.41522 31.891 6.16888 31.7893 5.98725 31.6084C5.80562 31.4275 5.70361 31.1821 5.70361 30.9262C5.70361 30.6703 5.80562 30.4249 5.98725 30.244C6.16888 30.0631 6.41522 29.9614 6.67208 29.9614H17.1284C17.3853 29.9614 17.6316 30.0631 17.8133 30.244C17.9949 30.4249 18.0969 30.6703 18.0969 30.9262C18.0969 31.1821 17.9949 31.4275 17.8133 31.6084C17.6316 31.7893 17.3853 31.891 17.1284 31.891Z" fill="#3330E8"/>
<path d="M79.3461 31.891H68.8718C68.615 31.891 68.3686 31.7893 68.187 31.6084C68.0053 31.4275 67.9033 31.1821 67.9033 30.9262C67.9033 30.6703 68.0053 30.4249 68.187 30.244C68.3686 30.0631 68.615 29.9614 68.8718 29.9614H79.3461C79.603 29.9614 79.8493 30.0631 80.0309 30.244C80.2126 30.4249 80.3146 30.6703 80.3146 30.9262C80.3146 31.1821 80.2126 31.4275 80.0309 31.6084C79.8493 31.7893 79.603 31.891 79.3461 31.891Z" fill="#3330E8"/>
<path d="M23.7106 70.9823H14.6174C13.6168 70.9823 12.6569 70.5875 11.9477 69.8844C11.2385 69.1813 10.8377 68.2271 10.833 67.2304V60.0839C10.833 59.828 10.9351 59.5826 11.1167 59.4017C11.2983 59.2208 11.5447 59.1191 11.8015 59.1191H26.5264C26.7833 59.1191 27.0296 59.2208 27.2113 59.4017C27.3929 59.5826 27.495 59.828 27.495 60.0839V67.2304C27.4902 68.2271 27.0894 69.1813 26.3802 69.8844C25.671 70.5875 24.7112 70.9823 23.7106 70.9823ZM12.77 61.0308V67.2304C12.77 67.7042 12.959 68.1586 13.2953 68.4937C13.6317 68.8287 14.0879 69.017 14.5635 69.017H23.6568C24.1324 69.017 24.5887 68.8287 24.925 68.4937C25.2614 68.1586 25.4503 67.7042 25.4503 67.2304V61.0308H12.77Z" fill="#3330E8"/>
<path d="M71.3826 70.9823H62.2894C61.2905 70.9823 60.3325 70.587 59.6261 69.8833C58.9198 69.1797 58.5229 68.2254 58.5229 67.2304V60.0839C58.5229 59.828 58.625 59.5826 58.8066 59.4017C58.9883 59.2208 59.2346 59.1191 59.4915 59.1191H74.1984C74.4553 59.1191 74.7017 59.2208 74.8833 59.4017C75.0649 59.5826 75.167 59.828 75.167 60.0839V67.2304C75.167 67.7246 75.069 68.2139 74.8786 68.6703C74.6882 69.1267 74.4091 69.5411 74.0575 69.8897C73.7058 70.2383 73.2885 70.5143 72.8295 70.7018C72.3704 70.8893 71.8787 70.9846 71.3826 70.9823ZM60.442 61.0308V67.2304C60.442 67.7042 60.631 68.1586 60.9673 68.4937C61.3037 68.8287 61.7599 69.017 62.2356 69.017H71.3288C71.8045 69.017 72.2607 68.8287 72.597 68.4937C72.9334 68.1586 73.1223 67.7042 73.1223 67.2304V61.0308H60.442Z" fill="#3330E8"/>
<path d="M60.6573 52.7945H25.3425C25.0857 52.7945 24.8393 52.6929 24.6577 52.512C24.4761 52.331 24.374 52.0856 24.374 51.8298V34.1244C24.3786 33.87 24.4822 33.6272 24.6628 33.4473C24.8434 33.2674 25.0871 33.1643 25.3425 33.1597H60.6573C60.9141 33.1597 61.1605 33.2613 61.3421 33.4422C61.5237 33.6232 61.6258 33.8686 61.6258 34.1244V51.8298C61.6258 52.0856 61.5237 52.331 61.3421 52.512C61.1605 52.6929 60.9141 52.7945 60.6573 52.7945ZM26.3111 50.865H59.6887V35.0892H26.3111V50.865Z" fill="#00D880"/>
<path d="M60.6573 46.6307H25.3425C25.0857 46.6307 24.8393 46.5291 24.6577 46.3481C24.4761 46.1672 24.374 45.9218 24.374 45.6659V40.3061C24.374 40.0502 24.4761 39.8048 24.6577 39.6239C24.8393 39.443 25.0857 39.3413 25.3425 39.3413H60.6573C60.9141 39.3413 61.1605 39.443 61.3421 39.6239C61.5237 39.8048 61.6258 40.0502 61.6258 40.3061V45.6659C61.6258 45.9218 61.5237 46.1672 61.3421 46.3481C61.1605 46.5291 60.9141 46.6307 60.6573 46.6307ZM26.3111 44.719H59.6887V41.253H26.3111V44.719Z" fill="#00D880"/>
<path d="M70.7727 21.8324C70.564 21.8301 70.3614 21.7619 70.1941 21.6376C70.0268 21.5133 69.9034 21.3394 69.8416 21.1408C69.7798 20.9422 69.7828 20.7292 69.8502 20.5325C69.9176 20.3357 70.046 20.1653 70.2167 20.0458L75.149 16.6334V11.8988C75.149 11.643 75.251 11.3976 75.4326 11.2166C75.6142 11.0357 75.8606 10.9341 76.1174 10.9341C76.3743 10.9341 76.6206 11.0357 76.8023 11.2166C76.9839 11.3976 77.086 11.643 77.086 11.8988V17.1336C77.0853 17.2905 77.0476 17.4449 76.9759 17.5846C76.9043 17.7242 76.8006 17.8452 76.6734 17.9376L71.2928 21.6359C71.141 21.748 70.961 21.816 70.7727 21.8324Z" fill="#3330E8"/>
<path d="M15.2271 21.8324C15.0344 21.8246 14.8478 21.7626 14.689 21.6537L9.30836 17.9554C9.17568 17.8671 9.06698 17.7475 8.99189 17.6073C8.91679 17.467 8.87764 17.3104 8.87793 17.1515V11.9167C8.87793 11.6608 8.97999 11.4154 9.16162 11.2345C9.34325 11.0536 9.58959 10.9519 9.84646 10.9519C10.1033 10.9519 10.3497 11.0536 10.5313 11.2345C10.7129 11.4154 10.8149 11.6608 10.8149 11.9167V16.6512L15.7471 20.0636C15.9586 20.2083 16.1038 20.4307 16.1509 20.6819C16.198 20.9331 16.1431 21.1927 15.9983 21.4036C15.9101 21.528 15.795 21.631 15.6615 21.7052C15.5281 21.7794 15.3796 21.8229 15.2271 21.8324Z" fill="#3330E8"/>
<path d="M18.7605 43.0395H13.0749C12.4834 43.0395 11.9159 42.8067 11.496 42.3917C11.076 41.9768 10.8377 41.4133 10.833 40.8241V36.0539C10.833 35.7614 10.8911 35.4719 11.004 35.2019C11.1169 34.932 11.2823 34.6869 11.4908 34.481C11.6992 34.275 11.9464 34.1122 12.2183 34.0019C12.4902 33.8917 12.7814 33.8361 13.0749 33.8385H18.7605C19.3503 33.8385 19.9159 34.0719 20.333 34.4873C20.7501 34.9028 20.9844 35.4663 20.9844 36.0539V40.8241C20.9797 41.4102 20.7439 41.971 20.3278 42.3855C19.9118 42.8 19.3488 43.0349 18.7605 43.0395ZM13.0749 35.768C12.9971 35.7679 12.9221 35.7974 12.8655 35.8505C12.8088 35.9037 12.7746 35.9764 12.77 36.0539V40.8241C12.7746 40.9015 12.8088 40.9743 12.8655 41.0274C12.9221 41.0806 12.9971 41.1101 13.0749 41.11H18.7605C18.8366 41.11 18.9095 41.0799 18.9634 41.0263C19.0172 40.9726 19.0474 40.8999 19.0474 40.8241V36.0539C19.0474 35.978 19.0172 35.9053 18.9634 35.8517C18.9095 35.7981 18.8366 35.768 18.7605 35.768H13.0749Z" fill="#00D880"/>
<path d="M72.9431 43.0395H67.2575C66.666 43.0395 66.0985 42.8067 65.6786 42.3917C65.2586 41.9768 65.0204 41.4133 65.0156 40.8241V36.0539C65.0156 35.7614 65.0737 35.4719 65.1866 35.2019C65.2995 34.932 65.4649 34.6869 65.6734 34.481C65.8818 34.275 66.1291 34.1122 66.401 34.0019C66.6729 33.8917 66.964 33.8361 67.2575 33.8385H72.9431C73.5329 33.8385 74.0986 34.0719 74.5156 34.4873C74.9327 34.9028 75.167 35.4663 75.167 36.0539V40.8241C75.1624 41.4102 74.9266 41.971 74.5105 42.3855C74.0944 42.8 73.5315 43.0349 72.9431 43.0395ZM67.2575 35.768C67.1797 35.7679 67.1048 35.7974 67.0481 35.8505C66.9914 35.9037 66.9573 35.9764 66.9527 36.0539V40.8241C66.9573 40.9015 66.9914 40.9743 67.0481 41.0274C67.1048 41.0806 67.1797 41.1101 67.2575 41.11H72.9431C73.0192 41.11 73.0922 41.0799 73.146 41.0263C73.1998 40.9726 73.23 40.8999 73.23 40.8241V36.0539C73.23 35.978 73.1998 35.9053 73.146 35.8517C73.0922 35.7981 73.0192 35.768 72.9431 35.768H67.2575Z" fill="#00D880"/>
</g>
<defs>
<clipPath id="clip0_649_2490">
<rect width="86" height="71" fill="white"/>
</clipPath>
</defs>
</svg>
