<svg width="74" height="80" viewBox="0 0 74 80" fill="none" xmlns="http://www.w3.org/2000/svg">
<g clip-path="url(#clip0_649_2576)">
<path d="M64.6862 80H8.66237C7.65817 80.0001 6.69433 79.6128 5.97933 78.9219C5.26433 78.2309 4.85568 77.2919 4.8418 76.308V73.3578C4.8418 72.3649 5.24429 71.4126 5.96079 70.7105C6.67729 70.0084 7.64908 69.614 8.66237 69.614H64.6862C65.1879 69.614 65.6847 69.7109 66.1483 69.899C66.6118 70.0871 67.033 70.3629 67.3878 70.7105C67.7425 71.0582 68.024 71.4709 68.216 71.9251C68.408 72.3793 68.5068 72.8662 68.5068 73.3578V76.308C68.4929 77.2919 68.0842 78.2309 67.3692 78.9219C66.6542 79.6128 65.6904 80.0001 64.6862 80V80ZM8.66237 71.3738C8.15178 71.3783 7.66368 71.5803 7.30427 71.9357C6.94487 72.2911 6.74325 72.7712 6.74327 73.2716V76.308C6.74327 76.8067 6.94545 77.2851 7.30535 77.6377C7.66525 77.9904 8.15339 78.1885 8.66237 78.1885H64.6862C65.1952 78.1885 65.6833 77.9904 66.0432 77.6377C66.4031 77.2851 66.6053 76.8067 66.6053 76.308V73.3578C66.6053 72.8575 66.4037 72.3774 66.0443 72.0219C65.6849 71.6665 65.1968 71.4646 64.6862 71.46L8.66237 71.3738Z" fill="#3330E8"/>
<path d="M63.5945 58.9175C63.3454 58.913 63.1081 58.8128 62.9336 58.6386C62.7591 58.4644 62.6613 58.23 62.6614 57.9858V56.1226C62.643 55.9908 62.6536 55.8566 62.6924 55.7292C62.7313 55.6017 62.7976 55.4839 62.8868 55.3837C62.9761 55.2834 63.0862 55.2031 63.2098 55.148C63.3334 55.0929 63.4676 55.0645 63.6033 55.0645C63.7391 55.0645 63.8733 55.0929 63.9969 55.148C64.1205 55.2031 64.2305 55.2834 64.3198 55.3837C64.409 55.4839 64.4753 55.6017 64.5142 55.7292C64.5531 55.8566 64.5637 55.9908 64.5452 56.1226V57.9858C64.5452 58.2329 64.4451 58.4699 64.2668 58.6446C64.0885 58.8193 63.8467 58.9175 63.5945 58.9175V58.9175Z" fill="#3330E8"/>
<path d="M63.5945 49.6011C63.3454 49.5966 63.1081 49.4965 62.9336 49.3223C62.7591 49.148 62.6613 48.9136 62.6614 48.6695V44.943C62.643 44.8112 62.6536 44.677 62.6924 44.5496C62.7313 44.4221 62.7976 44.3043 62.8868 44.2041C62.9761 44.1038 63.0862 44.0235 63.2098 43.9684C63.3334 43.9133 63.4676 43.8848 63.6033 43.8848C63.7391 43.8848 63.8733 43.9133 63.9969 43.9684C64.1205 44.0235 64.2305 44.1038 64.3198 44.2041C64.409 44.3043 64.4753 44.4221 64.5142 44.5496C64.5531 44.677 64.5637 44.8112 64.5452 44.943V48.704C64.5361 48.9451 64.432 49.1733 64.2547 49.3406C64.0773 49.5079 63.8407 49.6013 63.5945 49.6011V49.6011ZM63.5945 38.4043C63.472 38.4043 63.3507 38.3806 63.2374 38.3346C63.1242 38.2887 63.0213 38.2213 62.9347 38.1364C62.848 38.0515 62.7793 37.9507 62.7324 37.8398C62.6855 37.7289 62.6614 37.6099 62.6614 37.4899V33.7461C62.643 33.6143 62.6536 33.4801 62.6924 33.3527C62.7313 33.2252 62.7976 33.1074 62.8868 33.0072C62.9761 32.9069 63.0862 32.8266 63.2098 32.7715C63.3334 32.7164 63.4676 32.6879 63.6033 32.6879C63.7391 32.6879 63.8733 32.7164 63.9969 32.7715C64.1205 32.8266 64.2305 32.9069 64.3198 33.0072C64.409 33.1074 64.4753 33.2252 64.5142 33.3527C64.5531 33.4801 64.5637 33.6143 64.5452 33.7461V37.4899C64.5274 37.7248 64.4195 37.9444 64.2431 38.1045C64.0667 38.2645 63.8349 38.3531 63.5945 38.3525V38.4043ZM63.5945 27.2246C63.3454 27.2201 63.1081 27.1199 62.9336 26.9457C62.7591 26.7715 62.6613 26.5371 62.6614 26.293V22.5664C62.643 22.4346 62.6536 22.3005 62.6924 22.173C62.7313 22.0456 62.7976 21.9278 62.8868 21.8275C62.9761 21.7273 63.0862 21.6469 63.2098 21.5919C63.3334 21.5368 63.4676 21.5083 63.6033 21.5083C63.7391 21.5083 63.8733 21.5368 63.9969 21.5919C64.1205 21.6469 64.2305 21.7273 64.3198 21.8275C64.409 21.9278 64.4753 22.0456 64.5142 22.173C64.5531 22.3005 64.5637 22.4346 64.5452 22.5664V26.2757C64.5476 26.3995 64.5248 26.5225 64.478 26.6375C64.4313 26.7526 64.3616 26.8573 64.2731 26.9457C64.1846 27.034 64.079 27.1042 63.9625 27.1521C63.846 27.2 63.7209 27.2246 63.5945 27.2246Z" fill="#3330E8"/>
<path d="M63.5945 16.0449C63.3454 16.0404 63.1081 15.9403 62.9336 15.766C62.7591 15.5918 62.6613 15.3574 62.6614 15.1133V13.25C62.643 13.1182 62.6536 12.9841 62.6924 12.8566C62.7313 12.7292 62.7976 12.6114 62.8868 12.5111C62.9761 12.4109 63.0862 12.3305 63.2098 12.2754C63.3334 12.2204 63.4676 12.1919 63.6033 12.1919C63.7391 12.1919 63.8733 12.2204 63.9969 12.2754C64.1205 12.3305 64.2305 12.4109 64.3198 12.5111C64.409 12.6114 64.4753 12.7292 64.5142 12.8566C64.5531 12.9841 64.5637 13.1182 64.5452 13.25V15.1133C64.5452 15.3604 64.4451 15.5973 64.2668 15.7721C64.0885 15.9468 63.8467 16.0449 63.5945 16.0449Z" fill="#3330E8"/>
<path d="M26.2863 8.81613H10.1764C9.9242 8.81613 9.68237 8.71798 9.50407 8.54327C9.32577 8.36855 9.22559 8.13158 9.22559 7.8845V2.70874C9.22559 2.46165 9.32577 2.22469 9.50407 2.04997C9.68237 1.87526 9.9242 1.7771 10.1764 1.7771H26.2863C26.5384 1.7771 26.7802 1.87526 26.9585 2.04997C27.1368 2.22469 27.237 2.46165 27.237 2.70874V7.8845C27.237 8.13158 27.1368 8.36855 26.9585 8.54327C26.7802 8.71798 26.5384 8.81613 26.2863 8.81613V8.81613ZM11.1271 6.95286H25.3355V3.70939H11.1271V6.95286Z" fill="#00D880"/>
<path d="M63.5945 71.46H9.75393C9.5048 71.4601 9.26564 71.3643 9.08783 71.1933C8.91003 71.0223 8.80784 70.7897 8.80322 70.5456V29.1395C8.80682 28.8935 8.90778 28.6584 9.08488 28.4839L11.3386 26.2756V7.88442C11.3386 7.63733 11.4387 7.40037 11.617 7.22565C11.7953 7.05094 12.0371 6.95278 12.2893 6.95278H24.1736C24.4258 6.95278 24.6676 7.05094 24.8459 7.22565C25.0242 7.40037 25.1244 7.63733 25.1244 7.88442V12.8014L31.1634 6.86652C31.3432 6.69773 31.5835 6.60481 31.8325 6.60773H63.5241C63.7763 6.60773 64.0181 6.70589 64.1964 6.8806C64.3747 7.05532 64.4749 7.29228 64.4749 7.53937V13.25C64.4933 13.3818 64.4827 13.5159 64.4438 13.6433C64.4049 13.7708 64.3386 13.8886 64.2494 13.9889C64.1601 14.0891 64.05 14.1695 63.9264 14.2245C63.8029 14.2796 63.6687 14.3081 63.5329 14.3081C63.3972 14.3081 63.263 14.2796 63.1394 14.2245C63.0158 14.1695 62.9057 14.0891 62.8164 13.9889C62.7272 13.8886 62.6609 13.7708 62.622 13.6433C62.5831 13.5159 62.5725 13.3818 62.591 13.25V8.47101H32.2374L24.8427 15.6998C24.7088 15.8295 24.5393 15.9182 24.3548 15.955C24.1703 15.9918 23.9789 15.975 23.8039 15.9068C23.6323 15.8335 23.4862 15.713 23.383 15.5599C23.2799 15.4068 23.2243 15.2277 23.2229 15.0442V8.81606H13.24V26.6724C13.2439 26.9217 13.1493 27.1628 12.9759 27.3453L10.6519 29.5536V69.614H62.6086V57.9858C62.5902 57.854 62.6008 57.7198 62.6396 57.5924C62.6785 57.4649 62.7448 57.3471 62.834 57.2469C62.9233 57.1466 63.0334 57.0663 63.157 57.0112C63.2806 56.9561 63.4148 56.9277 63.5505 56.9277C63.6863 56.9277 63.8205 56.9561 63.9441 57.0112C64.0676 57.0663 64.1777 57.1466 64.267 57.2469C64.3562 57.3471 64.4225 57.4649 64.4614 57.5924C64.5003 57.7198 64.5109 57.854 64.4924 57.9858V70.5456C64.4884 70.781 64.3935 71.0062 64.227 71.1758C64.0604 71.3454 63.8344 71.447 63.5945 71.46V71.46Z" fill="#3330E8"/>
<path d="M60.0381 8.47099H37.8012C37.5521 8.46647 37.3147 8.36633 37.1402 8.1921C36.9657 8.01787 36.868 7.78348 36.868 7.53936V4.48566C36.7852 3.38423 37.1492 2.29526 37.8811 1.45536C38.613 0.615452 39.6535 0.092459 40.7766 0H57.0626C58.1889 0.0881591 59.2338 0.609303 59.9694 1.44969C60.705 2.29008 61.0715 3.38147 60.9889 4.48566V7.53936C60.9889 7.78644 60.8887 8.02341 60.7104 8.19812C60.5321 8.37284 60.2902 8.47099 60.0381 8.47099V8.47099ZM38.8223 6.60772H59.1578V4.48566C59.1578 3.03645 58.2598 1.86327 57.133 1.86327H40.847C40.2301 1.96132 39.6755 2.28854 39.2985 2.77692C38.9214 3.2653 38.7508 3.87727 38.8223 4.48566V6.60772Z" fill="#3330E8"/>
<path d="M21.9903 67.2848C20.773 67.2803 19.6069 66.8044 18.7461 65.9609C17.8853 65.1175 17.3997 63.9748 17.395 62.7819V34.436C17.395 33.2418 17.8792 32.0964 18.741 31.252C19.6028 30.4075 20.7716 29.9331 21.9903 29.9331C23.2091 29.9331 24.3779 30.4075 25.2397 31.252C26.1015 32.0964 26.5856 33.2418 26.5856 34.436V62.7819C26.581 63.9748 26.0954 65.1175 25.2346 65.9609C24.3738 66.8044 23.2077 67.2803 21.9903 67.2848V67.2848ZM21.9903 31.7964C21.2773 31.8009 20.5948 32.0805 20.0906 32.5745C19.5864 33.0686 19.3012 33.7373 19.2965 34.436V62.7819C19.2965 63.482 19.5803 64.1534 20.0855 64.6484C20.5907 65.1435 21.2759 65.4216 21.9903 65.4216C22.7048 65.4216 23.39 65.1435 23.8951 64.6484C24.4003 64.1534 24.6841 63.482 24.6841 62.7819V34.436C24.6841 33.7359 24.4003 33.0645 23.8951 32.5695C23.39 32.0745 22.7048 31.7964 21.9903 31.7964V31.7964Z" fill="#00D880"/>
<path d="M36.6744 67.2849C35.457 67.2803 34.2909 66.8044 33.4301 65.961C32.5693 65.1175 32.0837 63.9748 32.0791 62.7819V18.2532C32.0791 17.0589 32.5632 15.9136 33.425 15.0691C34.2868 14.2247 35.4556 13.7502 36.6744 13.7502C37.8931 13.7502 39.0619 14.2247 39.9237 15.0691C40.7855 15.9136 41.2697 17.0589 41.2697 18.2532V62.7819C41.265 63.9748 40.7794 65.1175 39.9186 65.961C39.0578 66.8044 37.8917 67.2803 36.6744 67.2849V67.2849ZM36.6744 15.6135C35.9599 15.6135 35.2747 15.8916 34.7696 16.3867C34.2644 16.8817 33.9806 17.5531 33.9806 18.2532V62.7819C33.9806 63.482 34.2644 64.1534 34.7696 64.6485C35.2747 65.1435 35.9599 65.4216 36.6744 65.4216C37.3888 65.4216 38.074 65.1435 38.5792 64.6485C39.0844 64.1534 39.3682 63.482 39.3682 62.7819V18.2532C39.3705 17.9059 39.3024 17.5616 39.1678 17.2403C39.0333 16.919 38.835 16.6271 38.5844 16.3815C38.3338 16.136 38.0359 15.9416 37.708 15.8098C37.3801 15.6779 37.0288 15.6112 36.6744 15.6135V15.6135Z" fill="#00D880"/>
<path d="M51.358 67.2849C50.1406 67.2803 48.9745 66.8044 48.1138 65.961C47.253 65.1175 46.7673 63.9748 46.7627 62.7819V18.2532C46.7627 17.0589 47.2468 15.9136 48.1086 15.0691C48.9704 14.2247 50.1392 13.7502 51.358 13.7502C52.5767 13.7502 53.7455 14.2247 54.6073 15.0691C55.4691 15.9136 55.9533 17.0589 55.9533 18.2532V62.7819C55.9486 63.9748 55.463 65.1175 54.6022 65.961C53.7414 66.8044 52.5753 67.2803 51.358 67.2849V67.2849ZM51.358 15.6135C50.6435 15.6135 49.9583 15.8916 49.4532 16.3867C48.948 16.8817 48.6642 17.5531 48.6642 18.2532V62.7819C48.6642 63.482 48.948 64.1534 49.4532 64.6485C49.9583 65.1435 50.6435 65.4216 51.358 65.4216C52.0724 65.4216 52.7576 65.1435 53.2628 64.6485C53.7679 64.1534 54.0517 63.482 54.0517 62.7819V18.2532C54.0541 17.9059 53.986 17.5616 53.8515 17.2403C53.7169 16.919 53.5186 16.6271 53.268 16.3815C53.0174 16.136 52.7195 15.9416 52.3916 15.8098C52.0637 15.6779 51.7124 15.6112 51.358 15.6135V15.6135Z" fill="#00D880"/>
<path d="M73.0492 80H0.950711C0.825856 80 0.70225 79.9759 0.5869 79.9291C0.47155 79.8823 0.366718 79.8136 0.278432 79.7271C0.190147 79.6406 0.120155 79.5379 0.0723752 79.4249C0.0245956 79.3118 0 79.1907 0 79.0684C0 78.946 0.0245956 78.8249 0.0723752 78.7118C0.120155 78.5988 0.190147 78.4961 0.278432 78.4096C0.366718 78.3231 0.47155 78.2545 0.5869 78.2076C0.70225 78.1608 0.825856 78.1367 0.950711 78.1367H73.0492C73.1741 78.1367 73.2977 78.1608 73.413 78.2076C73.5284 78.2545 73.6332 78.3231 73.7215 78.4096C73.8098 78.4961 73.8798 78.5988 73.9276 78.7118C73.9754 78.8249 74 78.946 74 79.0684C74 79.1907 73.9754 79.3118 73.9276 79.4249C73.8798 79.5379 73.8098 79.6406 73.7215 79.7271C73.6332 79.8136 73.5284 79.8823 73.413 79.9291C73.2977 79.9759 73.1741 80 73.0492 80V80Z" fill="#3330E8"/>
<path d="M12.2891 27.6041C12.0411 27.6018 11.8028 27.5096 11.62 27.3453C11.4426 27.1679 11.3433 26.9294 11.3433 26.6811C11.3433 26.4327 11.4426 26.1942 11.62 26.0168L16.7259 21.0136C16.904 20.8408 17.1444 20.7439 17.3949 20.7439C17.6455 20.7439 17.886 20.8408 18.064 21.0136C18.2414 21.191 18.3408 21.4295 18.3408 21.6778C18.3408 21.9262 18.2414 22.1647 18.064 22.3421L12.9758 27.3453C12.7876 27.5122 12.5428 27.6044 12.2891 27.6041Z" fill="#3330E8"/>
</g>
<defs>
<clipPath id="clip0_649_2576">
<rect width="74" height="80" fill="white"/>
</clipPath>
</defs>
</svg>
