<svg width="59" height="145" viewBox="0 0 59 145" fill="none" xmlns="http://www.w3.org/2000/svg">
<path d="M19.0691 85.9866C19.0691 85.9862 19.0289 85.9134 18.9588 85.7692C18.6984 85.2646 18.0475 83.9276 17.4265 82.282C16.8156 80.6384 16.2447 78.6796 16.1446 76.9762C16.1246 76.6269 15.8241 76.3612 15.4836 76.3826C15.1331 76.404 14.8727 76.7046 14.8927 77.0539C15.0329 79.2456 15.8041 81.6053 16.5352 83.4413C17.2663 85.275 17.9574 86.5764 17.9674 86.5903C18.1376 86.898 18.5082 87.0124 18.8187 86.8457C19.1191 86.679 19.2293 86.2944 19.0691 85.9866Z" fill="#3330E8"/>
<path d="M7.66173 25.1502L10.9367 24.624C11.2773 24.5702 11.5076 24.2448 11.4576 23.8991C11.3975 23.5533 11.077 23.3181 10.7364 23.3728L7.47149 23.898C7.13097 23.9538 6.9006 24.2782 6.95068 24.624C7.00076 24.9697 7.32121 25.2049 7.66173 25.1502Z" fill="#3330E8"/>
<path d="M9.81487 45.096L14.8827 44.2821C15.2232 44.2274 15.4534 43.9026 15.4034 43.557C15.3433 43.2113 15.0229 42.9761 14.6823 43.0308L9.61456 43.8444C9.27404 43.8991 9.04367 44.2238 9.09375 44.5696C9.14382 44.915 9.47435 45.151 9.81487 45.096Z" fill="#3330E8"/>
<path d="M29.5951 19.0892L32.9102 19.22C33.2507 19.2332 33.5411 18.9615 33.5511 18.6117C33.5711 18.2619 33.3007 17.9669 32.9502 17.9537L29.6452 17.8229C29.3046 17.8097 29.0142 18.0814 28.9942 18.4312C28.9842 18.781 29.2546 19.075 29.5951 19.0892Z" fill="#3330E8"/>
<path d="M28.5636 40.9686L32.9803 41.144C33.3208 41.1582 33.6112 40.8855 33.6313 40.5357C33.6413 40.1859 33.3709 39.8909 33.0304 39.8777L28.6137 39.7023C28.2731 39.6891 27.9827 39.9608 27.9627 40.3106C27.9527 40.6604 28.2231 40.9554 28.5636 40.9686Z" fill="#3330E8"/>
<path d="M28.163 62.4178H32.76C33.1105 62.4178 33.3909 62.1342 33.3909 61.7841C33.3909 61.4343 33.1105 61.1504 32.76 61.1504H28.163C27.8124 61.1504 27.542 61.4343 27.542 61.7841C27.542 62.1342 27.8124 62.4178 28.163 62.4178Z" fill="#3330E8"/>
<path d="M47.3822 20.539L50.6372 21.1545C50.9777 21.2183 51.3082 20.9912 51.3683 20.6475C51.4284 20.3038 51.208 19.9733 50.8675 19.9084L47.6125 19.294C47.272 19.2291 46.9516 19.4562 46.8814 19.7999C46.8214 20.1436 47.0417 20.4752 47.3822 20.539Z" fill="#3330E8"/>
<path d="M44.047 41.1338L47.2821 41.7462C47.6226 41.8111 47.943 41.584 48.0132 41.2403C48.0732 40.8966 47.8529 40.565 47.5124 40.5001L44.2775 39.8878C43.937 39.8229 43.6064 40.05 43.5463 40.3937C43.4762 40.7384 43.7065 41.0689 44.047 41.1338Z" fill="#3330E8"/>
<path d="M39.6605 63.2324L43.2359 63.8094C43.5865 63.8645 43.907 63.6288 43.9571 63.2835C44.0071 62.9377 43.7768 62.6129 43.4362 62.5579L39.8508 61.9809C39.5103 61.9258 39.1897 62.1614 39.1396 62.5068C39.0796 62.8526 39.3099 63.1774 39.6605 63.2324Z" fill="#3330E8"/>
<path d="M13.6209 63.5266L22.5344 62.8109C22.7748 62.7911 22.9952 62.6276 23.0753 62.3935C23.1554 62.1599 23.0953 61.8969 22.915 61.7242C21.7432 60.5856 20.0006 60.0509 18.5484 59.74C17.0862 59.4366 15.9044 59.3899 15.8844 59.3888C15.5439 59.3749 15.2534 59.6473 15.2334 59.9971C15.2234 60.3468 15.4938 60.6414 15.8343 60.6549C15.8343 60.6549 15.8943 60.6572 16.0245 60.666C16.4552 60.6949 17.5869 60.7979 18.8087 61.0981C20.0306 61.3923 21.3226 61.9064 22.0537 62.6343L22.4844 62.1793L22.4343 61.5476L13.5207 62.2632C13.1702 62.291 12.9198 62.5963 12.9398 62.9453C12.9699 63.2941 13.2703 63.5543 13.6209 63.5266Z" fill="#3330E8"/>
<path d="M13.5005 114.832C16.7855 118.409 21.9634 121.335 27.622 121.668C27.9625 121.688 28.2631 121.422 28.2831 121.071C28.3031 120.722 28.0427 120.423 27.6921 120.403C22.4241 120.103 17.4866 117.323 14.4219 113.97C14.1815 113.714 13.791 113.699 13.5306 113.937C13.2802 114.175 13.2701 114.576 13.5005 114.832Z" fill="#00D880"/>
<path d="M51.7588 117.931C51.5585 118.264 50.9376 118.71 50.0562 119.09C48.7342 119.671 46.8413 120.154 44.8383 120.482C42.8453 120.811 40.7321 120.989 38.9493 120.989C38.6088 120.989 38.3284 121.272 38.3284 121.622C38.3284 121.973 38.6088 122.256 38.9493 122.256C41.4331 122.256 44.4577 121.93 47.0617 121.341C48.3637 121.045 49.5655 120.685 50.557 120.254C51.5385 119.814 52.3297 119.331 52.8004 118.639C52.9907 118.349 52.9206 117.955 52.6302 117.759C52.3497 117.564 51.9592 117.64 51.7689 117.931" fill="#00D880"/>
<path d="M30.9574 92.334C33.972 94.037 36.4057 95.7245 38.2485 97.1741C40.0813 98.6213 41.3231 99.839 41.944 100.568C42.1744 100.834 42.5651 100.864 42.8255 100.636C43.0859 100.408 43.1158 100.007 42.8955 99.7416C42.1944 98.9163 40.9025 97.666 39.0197 96.1745C37.1268 94.6849 34.6429 92.9625 31.5683 91.2271C31.2678 91.0568 30.8872 91.1661 30.717 91.4718C30.5467 91.7776 30.6569 92.1633 30.9574 92.334Z" fill="#3330E8"/>
<path d="M50.7675 90.2239C51.0079 87.6532 51.3384 85.4508 52.0394 83.9882C52.39 83.2552 52.8206 82.7133 53.3715 82.3462C53.9123 81.9803 54.6033 81.7692 55.5347 81.7672C55.9053 81.7672 56.3059 81.8013 56.7566 81.8746C57.0771 81.9268 57.3776 81.707 57.4276 81.383C57.4777 81.0595 57.2674 80.7545 56.9469 80.7022C56.4462 80.6203 55.9754 80.5794 55.5347 80.5794C54.423 80.5779 53.4816 80.8441 52.7205 81.3562C51.5787 82.1276 50.8976 83.3827 50.457 84.8774C50.0163 86.3788 49.7859 88.1574 49.6057 90.1094C49.5756 90.4362 49.806 90.7261 50.1265 90.7578C50.457 90.7894 50.7374 90.5503 50.7675 90.2239Z" fill="#00D880"/>
<path d="M35.7045 76.8219C36.2553 78.6971 37.327 80.0298 38.649 80.8516C39.971 81.677 41.5133 82.0061 43.0357 82.0065C45.1889 82.0033 47.3222 81.3605 48.8946 80.3993C49.0148 80.326 49.1049 80.2156 49.1549 80.0837C49.175 80.0326 49.4053 79.4085 49.4053 78.4417C49.4053 77.2623 49.0348 75.5581 47.5325 73.9043C47.3022 73.646 46.9115 73.6282 46.6511 73.8646C46.4007 74.1011 46.3808 74.5018 46.6111 74.7597C47.8931 76.1771 48.1434 77.5102 48.1534 78.4417C48.1534 78.8211 48.1034 79.1312 48.0633 79.3403C48.0333 79.4449 48.0132 79.5241 48.0032 79.5739L47.9832 79.6267V79.6354L48.1835 79.7094L47.9832 79.6318V79.6354L48.1835 79.7094L47.9832 79.6318L48.5641 79.8575L48.2436 79.3161C46.9015 80.1467 44.9386 80.7427 43.0357 80.7392C41.6836 80.7395 40.3716 80.444 39.31 79.7736C38.2383 79.1004 37.387 78.067 36.9063 76.4599C36.8061 76.1248 36.4556 75.9335 36.1251 76.0337C35.7946 76.1336 35.6043 76.4864 35.7045 76.8219Z" fill="#00D880"/>
<path d="M54.2528 88.0644C54.2528 88.0647 54.2529 88.1273 54.2729 88.258C54.3831 89.1728 54.8137 93.2144 54.8137 97.622C54.8137 104.794 53.9424 109.956 53.0911 113.299C52.6605 114.971 52.2398 116.189 51.9293 116.976C51.7791 117.369 51.6489 117.655 51.5688 117.835L51.4786 118.029L51.4585 118.067L51.4786 118.079L51.4585 118.067L51.4786 118.079L51.4585 118.067C51.3384 118.292 51.2683 118.536 51.2683 118.793V143.479C51.2683 144.319 51.9493 145 52.7706 145C53.6019 145 54.2729 144.319 54.2729 143.479V118.793H52.7706L54.0926 119.52C54.2128 119.316 57.8182 112.463 57.8182 97.622C57.8182 92.3614 57.2374 87.7202 57.2274 87.6829C57.1272 86.8496 56.3761 86.2596 55.5548 86.3649C54.7236 86.4703 54.1427 87.2311 54.2528 88.0644Z" fill="#00D880"/>
<path d="M14.9728 134.908V114.655C14.9728 114.424 14.9227 114.197 14.8226 113.989C13.0499 110.311 11.5476 107.595 10.486 104.081C9.42439 100.566 8.75332 96.159 8.74331 89.0687C8.74331 81.9095 8.91357 77.5767 9.14392 74.2714C9.38429 70.968 9.68482 68.6598 9.97526 65.5311C9.98528 65.4214 9.97521 65.291 9.96519 65.1821C9.96519 65.1817 8.42284 53.8679 6.81038 42.095C5.99915 36.2075 5.17795 30.2063 4.51694 25.4462C3.85594 20.681 3.36515 17.1781 3.22494 16.2291C3.07471 15.2659 3.00458 14.3717 3.00458 13.5565C3.00458 11.7214 3.36517 10.305 3.89598 9.40775C4.16639 8.95658 4.46679 8.6291 4.78728 8.3949C5.11778 8.16069 5.47841 8.01064 5.91908 7.93967C6.16946 7.90013 6.40979 7.88086 6.63013 7.88086C7.13089 7.88187 7.54155 7.97313 7.92213 8.15562C8.48299 8.43038 9.04381 8.93427 9.58463 9.94916C10.1154 10.9569 10.5962 12.4595 10.9067 14.5187C11.2772 16.955 12.6292 25.6257 12.9998 27.8846L12.9898 27.8704C15.3634 43.2782 17.3665 51.7745 18.8187 56.4854C19.5398 58.8419 20.1207 60.2525 20.5613 61.1222C20.992 61.9908 21.2725 62.3262 21.4728 62.5136C21.7432 62.7675 22.1137 62.9096 22.4843 62.91L24.9781 62.9112C25.7894 62.9112 26.4604 62.2574 26.4804 61.4363C26.4804 61.4339 26.5004 60.683 26.5405 59.3594C26.6807 54.7282 27.0312 43.1129 27.3617 32.3709C27.522 27.0005 27.6823 21.847 27.8024 17.8949C27.9326 13.9489 28.0227 11.177 28.0427 10.6427C28.1729 7.82814 28.4634 5.68785 29.0142 4.53711C29.2847 3.95616 29.5651 3.63577 29.9056 3.41577C30.2462 3.19981 30.7269 3.04469 31.5081 3.04164C32.2392 3.04469 32.7199 3.19475 33.1005 3.4249C33.3809 3.60233 33.6313 3.83855 33.8617 4.18733C34.2122 4.70744 34.5127 5.49826 34.713 6.55066C34.9133 7.60103 35.0034 8.8998 35.0034 10.3983C35.0034 10.6487 35.0034 10.9063 34.9934 11.1709V11.1678C34.9333 14.1811 34.6829 26.4276 34.4425 38.0294C34.3224 43.8306 34.2022 49.4714 34.122 53.7182C34.072 55.8418 34.042 57.6165 34.0119 58.8894C34.0019 59.5254 33.9918 60.0363 33.9818 60.4027C33.9818 60.7749 33.9718 60.9785 33.9718 61.0724C33.9718 61.5619 34.1921 62.005 34.4225 62.2601C34.773 62.6526 35.1136 62.7904 35.414 62.8977C35.7245 62.9967 36.0249 63.0391 36.3354 63.0403C36.7059 63.0355 37.1066 62.9865 37.5573 62.7563C37.7776 62.6395 38.018 62.4656 38.2283 62.2074C38.4286 61.9524 38.5788 61.6074 38.6289 61.2613L37.1467 61.0387L38.6289 61.2953C38.7391 60.6554 39.6605 55.466 40.6019 49.9986L40.622 49.8822C40.8423 47.5729 41.2429 45.1899 41.6635 43.0004C42.0942 40.8084 42.5248 38.8172 42.7952 37.2355C43.8168 31.3054 44.6381 26.4205 45.259 22.6966C45.88 18.9757 46.3106 16.4035 46.541 15.1453L45.0687 14.8604L46.531 15.197C46.8214 13.882 47.3021 12.5163 47.9531 11.6119C48.2836 11.1557 48.6341 10.8181 49.0247 10.592C49.4153 10.3689 49.846 10.2351 50.4469 10.233C50.6272 10.233 50.8175 10.2462 51.0379 10.2776C51.6388 10.3648 52.0995 10.5098 52.4199 10.6751C52.9107 10.9316 53.141 11.1891 53.3513 11.5957C53.5517 12.0033 53.6719 12.6156 53.6719 13.448C53.6719 14.2287 53.5616 15.1858 53.3613 16.2788L53.3513 16.3355C53.121 17.9202 52.4399 21.3998 51.5786 25.8152C50.7273 30.2388 49.6958 35.6306 48.7443 41.1612L48.7243 41.29C48.3437 45.7609 47.8129 48.2406 47.2621 51.7547C47.0718 52.9959 46.7913 54.2814 46.5209 55.4782C46.2605 56.6786 46.0201 57.7781 45.8999 58.733L47.3923 58.9199L45.9701 58.4311L44.5279 62.7274L45.95 63.2158L47.3823 63.6883C47.9031 62.0593 48.3737 61.0284 48.7243 60.5848C48.9045 60.3583 49.0248 60.2739 49.135 60.2181C49.2451 60.1655 49.3853 60.1242 49.6657 60.1223C49.7859 60.1223 49.9462 60.1325 50.1164 60.1567L50.1765 60.1634C50.7974 60.2237 51.3483 60.3294 51.819 60.4898C52.5301 60.7362 53.0409 61.068 53.4916 61.6356C53.9423 62.2055 54.3429 63.0756 54.5732 64.4585L56.0555 64.2043L57.5277 63.906L57.4977 63.7456V63.7163L56.7565 63.8542L57.4977 63.7271V63.7163L56.7565 63.8542L57.4977 63.7271L56.1456 63.9599L57.4977 63.7587V63.7271L56.1456 63.9599L57.4977 63.7587L56.0455 63.975L57.5077 63.8051L57.4977 63.7587L56.0455 63.975L57.5077 63.8051L56.0154 63.9777H57.5177C57.5177 63.8538 57.5077 63.8348 57.5077 63.8051L56.0154 63.9777H57.5177C57.5177 63.9769 57.5177 63.9342 57.5077 63.7988C57.4977 63.6985 57.4676 63.5354 57.3674 63.3243C57.2973 63.1678 57.1772 62.992 57.027 62.8546C56.7966 62.6439 56.5462 62.5433 56.376 62.5021C56.2057 62.4598 56.0955 62.4577 56.0154 62.4569C55.4245 62.4569 54.8937 62.8019 54.6533 63.3386C54.403 63.8752 54.493 64.5104 54.8636 64.9615L56.0154 63.9777L54.6533 64.634C54.6934 64.6957 54.7134 64.7707 54.8636 64.9615L56.0154 63.9777L54.6533 64.634L56.0154 63.9785L54.5832 64.4545C54.6032 64.4875 54.6033 64.5208 54.6533 64.634L56.0154 63.9785L54.5832 64.4545L55.9853 63.9885L54.5532 64.3373C54.5632 64.3564 54.5532 64.3516 54.5832 64.4545L55.9853 63.9885L54.5532 64.3373L55.4645 64.1152L54.5532 64.3159V64.3373L55.4645 64.1152L54.5532 64.3159C54.5632 64.3722 54.6633 64.9014 54.8036 65.6502C55.0139 66.7825 55.3143 68.4693 55.5647 70.1112C55.8151 71.7438 55.9954 73.3727 55.9954 74.2195C55.9954 74.3664 55.9853 74.4872 55.9853 74.5648V74.56C55.8652 75.8107 55.5948 78.5949 55.3544 81.0658C55.1241 83.5367 54.9137 85.6905 54.9137 85.6952V85.696C54.8336 86.5704 54.423 87.3296 53.7921 87.892C53.1611 88.4521 52.3198 88.7939 51.3984 88.7939C51.2782 88.7939 51.158 88.7879 51.0278 88.7756C50.0162 88.6763 49.1549 88.182 48.574 87.4754L47.4223 88.4497L48.6141 87.5249L48.0333 87.9792L48.6241 87.5357L48.6141 87.5249L48.0333 87.9792L48.6241 87.5357C48.6241 87.5357 48.4939 87.3514 48.3737 87.0973C48.2536 86.8434 48.1734 86.5293 48.1734 86.3016V86.2877L46.8214 86.2972L48.1734 86.3745V86.2877L46.8214 86.2972L48.1734 86.3745C48.2135 85.5356 47.5826 84.8176 46.7613 84.77C45.9301 84.723 45.2189 85.3641 45.1689 86.2025V86.2952V86.3091L46.2105 86.3016H45.1689V86.3091L46.2105 86.3016H45.1689C45.1689 87.216 45.4493 87.9483 45.6897 88.4719C45.9501 88.9954 46.1905 89.3174 46.2305 89.3748L46.2705 89.4244C47.3422 90.7298 48.9246 91.6256 50.7474 91.8033C50.9677 91.8247 51.178 91.8355 51.3984 91.8355C53.0609 91.8351 54.6033 91.2172 55.7751 90.1792C56.9368 89.1436 57.7481 87.6667 57.9083 85.9879V85.9891C57.9083 85.9887 58.7295 77.3561 58.9699 74.8523V74.8475C58.9899 74.6444 59 74.438 59 74.2195C59 73.3893 58.8998 72.3675 58.7596 71.2412C58.5393 69.5588 58.2287 67.6772 57.9683 66.2067C57.8281 65.4721 57.718 64.8411 57.6279 64.3916C57.5878 64.167 57.5478 63.9881 57.5277 63.8633L57.4977 63.7148L57.4876 63.6633L57.4777 63.6253L57.4576 63.5667L57.4276 63.4597C57.4076 63.4233 57.3976 63.3825 57.3475 63.2716C57.3074 63.2134 57.2773 63.1385 57.1572 62.994L56.0154 63.9777V65.4985V63.9777L55.5447 65.4233C55.7851 65.497 55.9152 65.4962 56.0154 65.4985V63.9777L55.5447 65.4233L56.0154 63.9777L54.9538 65.0534C55.1441 65.2506 55.3745 65.3691 55.5447 65.4233L56.0154 63.9777L54.9538 65.0534L56.0154 63.9777L54.6333 64.5802C54.6934 64.7314 54.8036 64.9085 54.9538 65.0534L56.0154 63.9777L54.6333 64.5802L56.0154 63.9777L54.5131 64.0997C54.5231 64.1884 54.5331 64.3488 54.6333 64.5802L56.0154 63.9777L54.5131 64.0997L56.0154 63.9777H54.5131V64.0997L56.0154 63.9777H54.5131C54.5131 64.1021 54.5232 64.1215 54.5232 64.1516L54.5331 64.2467C54.5431 64.3093 54.5532 64.3658 54.5832 64.5021C54.7435 65.3167 55.5247 65.8506 56.3259 65.6998C57.1371 65.5488 57.6779 64.7686 57.5377 63.9496C57.3474 62.7889 57.037 61.7868 56.5963 60.9251C55.9453 59.6303 54.9839 58.674 53.8922 58.0893C52.8005 57.4993 51.6287 57.2506 50.467 57.1357L50.3167 58.6494L50.517 57.1424C50.2366 57.1033 49.9462 57.0807 49.6657 57.0807C49.0448 57.0786 48.4139 57.1931 47.833 57.4791C47.3923 57.6909 47.0117 57.9907 46.6812 58.3401C46.1805 58.8668 45.8199 59.4898 45.4794 60.2102C45.1489 60.933 44.8384 61.7634 44.5279 62.7432C44.2675 63.5374 44.6982 64.3948 45.4794 64.6589C46.2606 64.9228 47.1118 64.4954 47.3722 63.7045L48.8144 59.4086C48.8545 59.3041 48.8746 59.2161 48.8846 59.1068C48.9747 58.3904 49.195 57.3281 49.4554 56.1345C49.7258 54.9368 50.0162 53.5951 50.2266 52.2334C50.7674 48.8188 51.3183 46.1755 51.7189 41.5536L50.2266 41.4218L51.6988 41.6824C52.6503 36.1892 53.6718 30.8187 54.5331 26.4003C55.3844 21.9747 56.0655 18.5336 56.3259 16.7816L54.8336 16.5586L56.3158 16.8394C56.5362 15.6339 56.6764 14.5096 56.6764 13.448C56.6764 12.6968 56.6063 11.9739 56.4261 11.2804C56.1556 10.2452 55.5847 9.26074 54.7134 8.56016C53.832 7.85551 52.7304 7.44997 51.4584 7.26645C51.1179 7.21576 50.7774 7.19144 50.4469 7.19144C49.3653 7.18738 48.3638 7.46822 47.5325 7.95285C46.2806 8.68284 45.4293 9.80113 44.8284 10.963C44.2275 12.132 43.8569 13.3781 43.6065 14.5258L43.5964 14.5765C43.3461 15.9057 42.9154 18.4647 42.2945 22.1896C41.6735 25.9136 40.8623 30.7913 39.8407 36.7123C39.5903 38.1835 39.1497 40.1859 38.7191 42.4184C38.2884 44.6536 37.8677 47.126 37.6274 49.593L39.1297 49.7376L37.6474 49.4766C36.706 54.942 35.7846 60.0913 35.6644 60.7821L35.6544 60.8162L36.696 60.9722L35.8747 60.3068C35.7746 60.4399 35.6844 60.6394 35.6544 60.8162L36.696 60.9722L35.8747 60.3068L36.5457 60.8451L36.2653 60.0165C36.2052 60.0398 36.045 60.1009 35.8747 60.3068L36.5457 60.8451L36.2653 60.0165L36.3854 60.3693L36.3354 59.9999L36.2653 60.0165L36.3854 60.3693L36.3354 59.9999V60.0427V59.9987V59.9999V60.0427V59.9987L36.3254 59.9975L36.2252 60.4929L36.5056 60.0909C36.3554 59.9924 36.3254 60.0018 36.3254 59.9975L36.2252 60.4929L36.5056 60.0909L35.8847 60.9777L36.7861 60.3944C36.6759 60.2292 36.5758 60.1424 36.5056 60.0909L35.8847 60.9777L36.7861 60.3944L35.7345 61.0724H36.9764C36.9764 60.8122 36.8862 60.5548 36.7861 60.3944L35.7345 61.0724H36.9764C36.9764 61.0541 36.9864 60.8173 36.9864 60.4589C37.0865 54.9868 37.8878 16.8861 37.998 11.2266V11.2246C38.008 10.9468 38.0079 10.6721 38.0079 10.3983C37.9979 7.50978 37.7175 5.10184 36.756 3.18054C36.2753 2.22548 35.5843 1.39107 34.6629 0.829376C33.7515 0.263641 32.6699 -0.0019989 31.5081 3.05176e-05C30.3263 -0.0019989 29.2246 0.256546 28.3132 0.839523C27.6221 1.27345 27.0713 1.87265 26.6607 2.54788C26.0497 3.56581 25.6992 4.74089 25.4688 6.05791C25.2385 7.37595 25.1284 8.85114 25.0482 10.4946V10.4956C25.0082 11.1871 24.898 14.6687 24.7478 19.5637C24.2871 34.2263 23.4758 61.3441 23.4758 61.3445L24.9781 61.3904V59.8696L22.4843 59.8684V61.3892L23.4959 60.2648L22.7948 61.0447L23.586 60.356L23.4959 60.2648L22.7948 61.0447L23.586 60.356L23.3856 60.533L23.586 60.361V60.356L23.3856 60.533L23.586 60.361L23.546 60.3064C23.3356 60.0042 22.4242 58.3836 21.0922 53.5487C19.7602 48.7114 17.9975 40.6533 15.9644 27.403L15.9543 27.3888C15.5938 25.1654 14.2518 16.4755 13.8812 14.0513C13.4005 11.0066 12.6193 8.78625 11.3874 7.20461C10.7764 6.41885 10.0353 5.8075 9.21405 5.41106C8.39279 5.01363 7.51147 4.8372 6.63013 4.83923C6.23953 4.83923 5.84892 4.8727 5.45832 4.93456C4.57698 5.0704 3.75573 5.40601 3.05466 5.91293C1.99304 6.67233 1.22184 7.78455 0.731095 9.08332C0.230332 10.3861 0 11.8887 0 13.5565C0 14.5471 0.0801221 15.5954 0.250382 16.6965C0.390595 17.5846 0.881383 21.1149 1.54239 25.868C2.52389 33.0046 3.88592 42.9375 5.00763 51.0865C5.55847 55.1606 6.0593 58.7884 6.41985 61.3979C6.77038 64.0074 6.99064 65.594 6.99064 65.5984L8.47297 65.3904L6.98066 65.2494C6.70023 68.3061 6.38978 70.6555 6.14941 74.0539C5.90905 77.4504 5.73873 81.8647 5.73873 89.0687C5.73873 96.3421 6.43982 101.101 7.6116 104.974C8.7934 108.849 10.4059 111.745 12.1185 115.321L13.4705 114.655H11.9682V134.908C11.9682 135.747 12.6393 136.429 13.4705 136.429C14.3018 136.429 14.9728 135.747 14.9728 134.908Z" fill="#00D880"/>
<path d="M14.9127 114.223L14.8826 114.133C14.7524 113.669 14.1314 111.464 13.5505 108.721C12.9696 105.983 12.4289 102.686 12.4289 100.154C12.4289 99.6577 12.5591 98.9642 12.8295 98.1614C13.3102 96.7527 14.2116 95.0256 15.3333 93.2422C17.0259 90.561 19.2292 87.7352 21.2223 85.3899C22.2238 84.2163 23.1753 83.1613 23.9765 82.3019C24.7877 81.4441 25.4687 80.7755 25.8894 80.4049V80.4044C26.0496 80.2536 26.4002 80.0417 26.9109 79.846C27.7923 79.4963 29.1243 79.1918 30.7167 78.9264C33.1004 78.5232 36.0649 78.1862 39.1697 77.6737C42.2844 77.1601 45.5393 76.4721 48.5739 75.3251L48.6641 75.2867C48.7743 75.2364 48.8644 75.2198 48.9646 75.219C49.0948 75.2194 49.255 75.2574 49.4653 75.3739C49.7658 75.5446 50.1163 75.905 50.3868 76.4206C50.6472 76.9343 50.8274 77.5905 50.8274 78.3221C50.8174 79.5109 50.3867 80.9145 49.0246 82.3708C47.2018 84.332 44.1672 86.2722 41.0925 87.6549C39.5602 88.3491 38.0178 88.9119 36.6057 89.2944C35.2036 89.6789 33.9316 89.8778 33.0002 89.8754C32.4694 89.8774 32.0587 89.8081 31.8284 89.7257C31.3877 89.5736 30.917 89.6319 30.5264 89.8846C30.1358 90.1368 29.8855 90.5511 29.8454 91.016C29.6251 93.3079 28.5735 95.786 27.1613 97.7028C26.4602 98.6621 25.669 99.4811 24.8878 100.078C24.1167 100.676 23.3555 101.043 22.7345 101.164C21.9233 101.329 21.3925 102.131 21.5528 102.955C21.713 103.778 22.5042 104.312 23.3255 104.147C24.5373 103.899 25.659 103.301 26.7106 102.5C28.273 101.294 29.6652 99.609 30.7568 97.6739C31.8385 95.7385 32.6196 93.5503 32.8299 91.3115L31.3377 91.1638L30.8469 92.6017C31.528 92.835 32.239 92.9154 33.0002 92.9171C34.3222 92.9146 35.8045 92.6616 37.3869 92.2319C39.7605 91.5843 42.3645 90.5281 44.7982 89.1986C47.2419 87.8655 49.5053 86.2702 51.2079 84.4651C53.0407 82.5213 53.832 80.3106 53.832 78.3221C53.832 76.6915 53.3212 75.2234 52.4799 74.1085C52.0593 73.5517 51.5485 73.08 50.9576 72.735C50.3667 72.3917 49.6857 72.1774 48.9646 72.1774C48.4438 72.1766 47.9129 72.2899 47.4222 72.5156L48.0432 73.901L47.5124 72.4768C43.356 74.0598 38.3885 74.7576 34.0619 75.3557C31.8986 75.6578 29.8954 75.9362 28.1728 76.3197C27.3215 76.5125 26.5303 76.7311 25.8192 77.0095C25.1081 77.2903 24.4672 77.6254 23.9064 78.1189V78.1185C23.0951 78.8373 21.8532 80.1117 20.381 81.7624C18.1676 84.2337 15.4936 87.5095 13.3303 90.7844C12.2586 92.4236 11.3072 94.0612 10.6061 95.6279C9.90503 97.1986 9.43433 98.6882 9.42432 100.154C9.43433 103.284 10.0853 106.965 10.7363 109.921C11.3773 112.869 12.0283 115.064 12.0283 115.088C12.2687 115.893 13.0998 116.352 13.9011 116.113C14.6923 115.874 15.143 115.028 14.9127 114.223Z" fill="#00D880"/>
<path d="M47.8529 68.2074C47.8529 68.2074 48.1233 69.5948 48.4037 70.9817C48.4638 71.3354 48.5039 71.7223 48.564 72.0705C48.6041 72.4241 48.6541 72.7536 48.6942 73.0368C48.7643 73.6067 48.8244 73.9869 48.8244 73.9869C48.9345 74.825 48.3537 75.5964 47.5224 75.7089C46.6911 75.8218 45.93 75.2341 45.8198 74.3952L45.8098 74.1465L45.8198 73.8621C45.8198 73.8621 45.8298 73.5394 45.8498 73.0547C45.8498 72.8106 45.8599 72.5255 45.8799 72.2197C45.89 71.9093 45.91 71.5916 45.91 71.2443C45.8899 69.8308 45.8599 68.4173 45.8599 68.4173C45.8599 67.8553 46.3005 67.3928 46.8513 67.3833C47.3521 67.3754 47.7627 67.7338 47.8529 68.2074Z" fill="#00D880"/>
</svg>
