<svg width="57" height="140" viewBox="0 0 57 140" fill="none" xmlns="http://www.w3.org/2000/svg">
<path d="M10.1716 18.0389H13.4964C13.849 18.0389 14.131 17.7549 14.131 17.405C14.131 17.055 13.849 16.771 13.4964 16.771H10.1716C9.81902 16.771 9.54688 17.055 9.54688 17.405C9.54688 17.7549 9.81902 18.0389 10.1716 18.0389Z" fill="#3330E8"/>
<path d="M9.19439 38.087H14.3629C14.7054 38.087 14.9875 37.804 14.9875 37.4531C14.9875 37.1031 14.7054 36.8191 14.3629 36.8191H9.19439C8.85184 36.8191 8.56982 37.1031 8.56982 37.4531C8.56982 37.804 8.85184 38.087 9.19439 38.087Z" fill="#3330E8"/>
<path d="M10.3832 55.9636L18.6747 54.9921C18.9064 54.9639 19.1182 54.7995 19.1887 54.5706C19.2693 54.3416 19.2088 54.0856 19.0476 53.9141C18.03 52.9025 16.68 52.4149 15.4811 52.1505C14.2922 51.8899 13.2544 51.8625 12.8313 51.8621C12.7104 51.8621 12.6501 51.8645 12.64 51.8649C12.2874 51.8776 12.0154 52.1711 12.0355 52.5211C12.0456 52.8709 12.3376 53.1446 12.6801 53.1319L12.7205 53.1307L12.8313 53.1299C13.194 53.1296 14.1613 53.1565 15.2191 53.3895C16.277 53.6193 17.4154 54.0646 18.1509 54.8107L18.5942 54.3626L18.5236 53.7326L10.2321 54.7045C9.88952 54.7448 9.64768 55.0599 9.68798 55.4074C9.72828 55.7552 10.0406 56.0044 10.3832 55.9636" fill="#3330E8"/>
<path d="M9.89988 110.727C13.547 114.137 18.7658 116.333 24.4078 116.659C24.7503 116.679 25.0525 116.412 25.0727 116.062C25.0928 115.712 24.831 115.413 24.4784 115.393C19.1185 115.087 14.1616 112.984 10.7562 109.798C10.5044 109.56 10.1015 109.574 9.86977 109.831C9.62797 110.087 9.648 110.489 9.89988 110.727" fill="#00D880"/>
<path d="M40.2757 88.2127C40.2757 87.8985 40.2657 87.5927 40.2657 87.2947C40.2556 83.8378 40.3262 81.4401 40.9609 80.1021C41.2732 79.4313 41.6762 79.0078 42.3311 78.6912C42.996 78.3786 43.943 78.2043 45.2729 78.2059C45.6255 78.2059 45.9077 77.9218 45.9077 77.572C45.9077 77.2217 45.6255 76.9381 45.2729 76.9381C43.8422 76.9393 42.7138 77.1143 41.797 77.5431C41.1119 77.8624 40.568 78.3378 40.165 78.9361C39.5705 79.8374 39.2985 80.9658 39.1575 82.3363C39.0164 83.7099 39.0164 85.3446 39.0063 87.2947C39.0063 87.5935 39.0164 87.8993 39.0164 88.2127C39.0164 88.5629 39.2885 88.8466 39.6411 88.8466C39.9938 88.8466 40.2757 88.5629 40.2757 88.2127" fill="#3330E8"/>
<path d="M50.9648 84.6615C50.9648 81.8124 51.0355 79.4654 51.6299 77.9669C51.9322 77.2149 52.335 76.6828 52.9294 76.3089C53.5138 75.9368 54.3299 75.7126 55.4885 75.7122C55.8109 75.7122 56.0729 75.4463 56.0729 75.1182C56.0729 74.7902 55.8109 74.5239 55.4885 74.5239C54.1788 74.5235 53.131 74.7783 52.2948 75.3025C51.6803 75.6939 51.1966 76.2328 50.844 76.8647C50.3201 77.8148 50.0682 78.9622 49.9373 80.2689C49.7962 81.5763 49.7861 83.0502 49.7861 84.6615C49.7861 84.99 50.0481 85.2559 50.3806 85.2559C50.703 85.2559 50.9648 84.99 50.9648 84.6615Z" fill="#3330E8"/>
<path d="M48.6882 112.92C48.4867 113.254 47.862 113.7 46.9754 114.079C45.6455 114.661 43.7414 115.144 41.7264 115.472C39.7215 115.802 37.5956 115.98 35.8023 115.979C35.4598 115.979 35.1777 116.263 35.1777 116.613C35.1777 116.964 35.4598 117.247 35.8023 117.247C38.3009 117.247 41.3435 116.921 43.963 116.332C45.2727 116.036 46.4817 115.676 47.4792 115.244C48.4665 114.804 49.2625 114.321 49.736 113.629C49.9274 113.339 49.857 112.944 49.5648 112.749C49.2827 112.553 48.8896 112.63 48.6982 112.92" fill="#00D880"/>
<path d="M19.2692 90.931C20.3371 90.8818 21.3849 90.8569 22.3924 90.8569C29.0318 90.8558 34.311 91.9497 38.3208 94.4683C38.6231 94.6541 39.0061 94.5637 39.1874 94.2667C39.3788 93.9695 39.2882 93.5777 38.9859 93.393C34.694 90.6953 29.1628 89.5898 22.3924 89.589C21.3648 89.589 20.2969 89.6144 19.2088 89.6644C18.8662 89.6802 18.5942 89.977 18.6143 90.3264C18.6244 90.6762 18.9166 90.9468 19.2692 90.931" fill="#3330E8"/>
<path d="M20.6699 74.3481C21.0225 76.3679 21.9494 77.8002 23.1987 78.6715C24.4479 79.5459 25.9593 79.8643 27.4604 79.8647C29.7071 79.8616 31.9841 79.1707 33.6465 78.3537C33.7774 78.2915 33.878 78.1897 33.9385 78.0629C33.9687 78.0054 34.3617 77.1809 34.3617 75.9032C34.3718 74.7717 34.0392 73.2827 32.8806 71.7562C32.669 71.4776 32.2762 71.4234 32.0042 71.6354C31.7221 71.8469 31.6718 72.2446 31.8833 72.5235C32.8606 73.8319 33.1024 75.0074 33.1024 75.9032C33.1024 76.4072 33.0218 76.8212 32.9512 77.1029C32.911 77.244 32.8707 77.3513 32.8405 77.4202L32.8102 77.4935V77.507L32.9412 77.5692L32.8102 77.5046V77.507L32.9412 77.5692L32.8102 77.5046L33.3743 77.784L33.1024 77.2142C31.5911 77.9586 29.4452 78.6006 27.4604 78.5969C26.1305 78.5977 24.8813 78.3097 23.9242 77.6318C22.957 76.9516 22.2215 75.8858 21.9092 74.1235C21.8387 73.7787 21.5162 73.5498 21.1736 73.612C20.8311 73.6737 20.5994 74.0034 20.6699 74.3481" fill="#3330E8"/>
<path d="M20.2973 73.6899L20.257 73.6622C20.0756 73.5121 19.1688 72.7664 18.1613 71.665C17.1538 70.5655 16.0556 69.1059 15.4511 67.5718C15.3201 67.2461 14.9575 67.0873 14.6351 67.216C14.3127 67.3452 14.1515 67.7137 14.2824 68.039C15.0179 69.9185 16.3277 71.5599 17.446 72.7521C18.5643 73.9424 19.5013 74.6769 19.5214 74.6904C19.7934 74.9055 20.1864 74.856 20.4081 74.5798C20.6196 74.3032 20.5693 73.9051 20.2973 73.6899" fill="#00D880"/>
<path d="M21.2041 60.6439C21.2746 61.0243 21.3349 61.4522 21.4357 61.793C21.5163 62.1468 21.6171 62.5057 21.7279 62.8706C21.9596 63.5929 22.2115 64.3036 22.5238 64.9962C22.8261 65.6896 23.1586 66.3695 23.5313 67.0279C23.7127 67.3564 23.9041 67.6816 24.0955 67.9982L24.3977 68.4654C24.4985 68.614 24.6093 68.7788 24.6899 68.8896C24.8713 69.1868 24.9417 69.5216 24.9215 69.843C24.8712 70.4784 24.8411 71.133 24.831 71.814L24.7807 73.8283V73.8945C24.7504 74.7344 24.0653 75.3976 23.2291 75.3762C22.3929 75.3545 21.738 74.6568 21.7582 73.8172L21.8086 71.705C21.8186 71.0098 21.8489 70.2906 21.9093 69.5537L22.1309 70.5066C22.01 70.2784 21.9293 70.0993 21.8387 69.8999L21.5768 69.3167C21.4055 68.9285 21.2544 68.5375 21.1033 68.1452C20.8111 67.3595 20.5693 66.5612 20.3477 65.753C20.1361 64.9467 19.9648 64.1254 19.8439 63.2981C19.7734 62.8884 19.723 62.4673 19.6928 62.0342C19.6424 61.5941 19.6524 61.226 19.6322 60.8183C19.6121 60.3809 19.9446 60.006 20.3778 59.9827C20.7707 59.9613 21.1132 60.2351 21.1938 60.6127L21.2041 60.6439Z" fill="#00D880"/>
<path d="M32.4978 82.7261C32.4978 84.6706 33.3139 86.4412 34.6035 87.6992C35.9032 88.9611 37.6865 89.7345 39.641 89.7341C41.5955 89.7345 43.3786 88.9603 44.6682 87.6995C45.9679 86.4425 46.7839 84.6731 46.7839 82.7277V82.7261V79.6944C46.7839 79.2938 46.6229 78.9019 46.3408 78.6187C46.0587 78.3354 45.6656 78.173 45.2727 78.173C44.8697 78.173 44.4869 78.3354 44.2048 78.6187C43.9227 78.9019 43.7615 79.2938 43.7615 79.6944C43.7615 81.4935 44.5171 83.1322 45.716 84.2967C46.915 85.4642 48.5673 86.1833 50.3808 86.1829C52.1842 86.1833 53.8465 85.4642 55.0353 84.2963C56.2343 83.131 56.9899 81.4923 56.9899 79.6944V79.6948C56.9899 79.6948 57 71.0191 57 68.5029C56.9899 68.081 56.9497 67.6483 56.8691 67.1574C56.6071 65.4637 56.0127 63.0984 55.4686 61.1027C55.1966 60.1082 54.9448 59.2148 54.7534 58.5674C54.6627 58.2437 54.582 57.9822 54.5216 57.7992C54.5014 57.7076 54.4813 57.6359 54.4612 57.5844L54.4409 57.5174L54.4308 57.4802L54.4108 57.4315L54.3805 57.3455L54.3 57.1946C54.2698 57.1474 54.2394 57.088 54.1386 56.9664C53.8465 56.6335 53.4335 56.4406 52.9903 56.4406L52.8692 56.4462C52.8088 56.4529 52.708 56.4576 52.5267 56.5147C52.3957 56.5582 52.1943 56.643 52.0028 56.8174C51.8517 56.9458 51.7208 57.1225 51.6402 57.2873C51.5193 57.5393 51.4991 57.729 51.4891 57.8277C51.479 57.93 51.479 57.9616 51.479 57.9624C51.4891 58.0927 51.489 58.1351 51.4991 58.1752C51.5192 58.3016 51.5193 58.2995 51.5294 58.3257L51.5495 58.4026C51.5595 58.4502 51.5796 58.5175 51.6099 58.626C51.8517 59.4208 52.6879 59.8752 53.4737 59.6459C54.2696 59.4165 54.7331 58.588 54.5216 57.7861C54.2092 56.649 53.8062 55.6815 53.2823 54.8657C52.5166 53.6399 51.4587 52.7813 50.3102 52.3055C49.1616 51.824 47.9627 51.6901 46.7839 51.6889C46.1089 51.6897 45.444 51.7313 44.8093 51.8685C44.3257 51.9718 43.8422 52.1307 43.3888 52.3831C42.7037 52.7547 42.0992 53.372 41.7365 54.1367C41.3738 54.9013 41.2227 55.7663 41.2227 56.7303C41.2227 57.2477 41.2731 57.7995 41.3537 58.3962L42.8447 58.1835L44.2755 57.6949C43.6911 55.9584 43.1167 54.5979 42.4921 53.5036C42.0186 52.6838 41.5249 52.0107 40.9708 51.4647C40.1447 50.6422 39.1775 50.1406 38.2305 49.9089C37.2734 49.6719 36.3666 49.6572 35.4699 49.6549C34.0091 49.6628 32.6087 49.8514 31.3896 50.5325C30.7851 50.8744 30.2309 51.3673 29.838 52.0158C29.4451 52.6616 29.2536 53.4366 29.2536 54.2333C29.2536 54.8277 29.3544 55.4398 29.5458 56.0781L30.9966 55.6498L32.4374 55.1921C32.0244 53.8725 31.5508 52.8134 30.9866 51.9485C30.5635 51.3007 30.0798 50.7638 29.5458 50.3423C28.7499 49.7056 27.8533 49.3598 27.007 49.1965C26.1506 49.0312 25.3346 49.0206 24.5387 49.0194C24.2767 49.0194 24.0147 49.021 23.7527 49.021C22.6646 49.0221 21.7478 49.101 20.9318 49.2916C20.3273 49.435 19.7731 49.6442 19.2794 49.952C18.5339 50.4061 17.9698 51.1221 17.6978 51.876C17.4056 52.6323 17.3351 53.3934 17.3351 54.1656C17.3351 54.6779 17.3652 55.2017 17.4156 55.7489L18.9168 55.6177L20.2265 54.8475L19.199 55.4529L20.2869 54.9786L20.2265 54.8475L19.199 55.4529L20.2869 54.9786L19.9746 55.1149L20.2972 54.9925L20.2869 54.9786L19.9746 55.1149L20.2972 54.9925C20.2972 54.9849 20.1761 54.6581 20.025 53.7881C19.5716 51.1632 18.7455 43.6552 18.3727 23.8151V23.8293C18.3525 21.5766 18.3426 12.7778 18.3426 10.3212C18.3426 8.6061 18.1914 7.13236 17.9093 5.85742C17.4761 3.95364 16.6903 2.44847 15.5116 1.43014C14.9272 0.925029 14.2522 0.556849 13.547 0.327623C12.8417 0.0963694 12.1061 3.15274e-06 11.3606 3.15274e-06C10.2725 -0.00303966 9.21471 0.306317 8.31805 0.878366C6.96801 1.7405 5.9907 3.12396 5.35598 4.80664C4.71119 6.49642 4.39891 8.51685 4.38883 10.8172C4.38883 14.5396 4.44924 60.1907 4.44924 60.1915L5.96048 60.1894L4.47954 59.9172C3.4519 65.5576 2.83722 69.9237 2.84729 76.8393C2.84729 77.129 2.84729 77.4246 2.84729 77.726C2.85736 78.5664 3.53234 79.2419 4.36856 79.2347C5.20478 79.2276 5.87984 78.5411 5.86976 77.7006C5.86976 77.4099 5.86976 77.123 5.86976 76.8393C5.86976 70.0976 6.44415 66.0575 7.45164 60.4617L7.47171 60.1874C7.47171 60.1874 7.47175 57.3341 7.46168 52.996C7.4516 39.9821 7.4113 13.6024 7.4113 10.8172C7.4113 8.13548 7.93508 6.06028 8.70078 4.79548C9.08362 4.15954 9.50689 3.72543 9.93003 3.45157C10.3633 3.17975 10.8165 3.04586 11.3606 3.04282C12.0054 3.04282 12.5294 3.1544 12.9525 3.35624C13.5772 3.66356 14.101 4.1636 14.5645 5.25495C15.0179 6.33921 15.3201 8.00464 15.3201 10.3212C15.3201 12.789 15.3301 21.5695 15.3502 23.8587V23.8729C15.6222 38.4926 16.1462 46.4683 16.5995 50.8344C16.8212 53.0186 17.0328 54.3 17.204 55.0792C17.3753 55.8622 17.476 56.1303 17.6171 56.388C17.9798 57.002 18.7052 57.2838 19.3802 57.0674C20.0552 56.8515 20.4885 56.1966 20.428 55.487C20.3877 54.9865 20.3576 54.5424 20.3576 54.1656C20.3576 53.6593 20.4078 53.2845 20.4884 53.0567C20.5388 52.8827 20.5993 52.7908 20.6699 52.7084C20.7706 52.5919 20.9621 52.4413 21.4558 52.2987C21.9394 52.1592 22.7049 52.0622 23.7527 52.0638C24.0248 52.0638 24.2868 52.0622 24.5387 52.0622C25.2036 52.061 25.7779 52.078 26.2514 52.1534C26.6141 52.2092 26.9062 52.2939 27.1682 52.4168C27.5611 52.605 27.9137 52.8692 28.3268 53.4248C28.7298 53.9786 29.1529 54.836 29.5558 56.1078C29.7976 56.9045 30.6441 57.3487 31.4299 57.1054C32.2259 56.8621 32.6792 56.0238 32.4475 55.2218C32.3266 54.8086 32.2761 54.4798 32.2761 54.2333C32.2861 53.8993 32.3466 53.727 32.4272 53.5875C32.4876 53.4838 32.5784 53.3882 32.7194 53.2845C32.931 53.1299 33.2736 52.9711 33.7472 52.8641C34.2207 52.7551 34.8151 52.6973 35.4699 52.6977C36.2256 52.6961 36.84 52.7215 37.3135 52.821C37.6863 52.8954 37.9785 53.0016 38.2606 53.1719C38.6838 53.4279 39.1473 53.8554 39.6914 54.7187C40.2253 55.5781 40.8096 56.8574 41.4141 58.6724C41.666 59.4157 42.4417 59.8455 43.1973 59.6636C43.9529 59.4818 44.4567 58.7481 44.3459 57.9711C44.2754 57.491 44.2451 57.0773 44.2451 56.7303C44.2451 56.1525 44.3359 55.7707 44.4266 55.5436C44.4971 55.3708 44.5675 55.2785 44.6481 55.1977C44.769 55.0821 44.9504 54.9676 45.3131 54.8736C45.6657 54.7818 46.1694 54.7306 46.7839 54.7317C47.4086 54.7313 47.9729 54.7829 48.4666 54.8966C49.202 55.0729 49.746 55.3534 50.2498 55.8748C50.7535 56.3994 51.2371 57.2267 51.5998 58.5813L53.0607 58.1835L54.5015 57.7413L54.4612 57.5887L54.4511 57.5634L53.6148 57.8028L54.4612 57.5785L54.4511 57.5634L53.6148 57.8028L54.4612 57.5785L53.101 57.9394L54.4612 57.6161V57.5785L53.101 57.9394L54.4612 57.6161L53.0103 57.9589L54.4812 57.6756L54.4612 57.6161L53.0103 57.9589L54.4812 57.6756L53.0003 57.9616L54.4913 57.7496L54.4812 57.6756L53.0003 57.9616L54.4913 57.7496L52.9903 57.9624H54.5015C54.5015 57.8317 54.4913 57.7893 54.4913 57.7496L52.9903 57.9624H54.5015H52.9903L54.4511 58.3542C54.5317 58.0416 54.5015 57.9628 54.5015 57.9624H52.9903L54.4511 58.3542L52.9903 57.9624L53.9271 59.1613C54.1991 58.958 54.4108 58.5809 54.4511 58.3542L52.9903 57.9624L53.9271 59.1613L52.9903 57.962L53.4133 59.4228C53.5443 59.3863 53.7256 59.3178 53.9271 59.1613L52.9903 57.962L53.4133 59.4228L52.9903 57.962L53.0808 59.4807C53.1412 59.4755 53.232 59.4755 53.4133 59.4228L52.9903 57.962L53.0808 59.4807L52.9903 57.962V59.4834L53.0808 59.4807L52.9903 57.962V59.4834V57.962L51.9021 59.0155L52.9903 57.962L51.6906 58.7298C51.7208 58.7845 51.751 58.8518 51.9021 59.0155L52.9903 57.962L51.6906 58.7298L52.9903 57.9632L51.6099 58.5686C51.6199 58.5983 51.6301 58.6292 51.6906 58.7298L52.9903 57.9632L51.6099 58.5686L52.96 57.9782L51.5695 58.4608C51.5695 58.4783 51.5696 58.4743 51.6099 58.5686L52.96 57.9782L51.5695 58.4608L51.6301 58.4378L51.5695 58.4588V58.4608L51.6301 58.4378L51.5695 58.4588C51.6602 58.7481 52.2749 60.8221 52.8592 63.056C53.1514 64.1736 53.4436 65.3373 53.6451 66.3349C53.7459 66.8333 53.8364 67.2902 53.8868 67.6697C53.9472 68.0469 53.9775 68.3556 53.9775 68.5029C53.9775 69.76 53.9674 72.558 53.9674 75.0414C53.9674 77.5252 53.9674 79.6892 53.9674 79.694V79.6944C53.9674 80.6302 53.5847 81.4749 52.9399 82.1104C52.285 82.7423 51.3883 83.1397 50.3808 83.1401C49.3632 83.1401 48.4665 82.7427 47.8217 82.11C47.1669 81.4741 46.7839 80.6291 46.7839 79.6944C46.7839 79.2938 46.6229 78.9019 46.3408 78.6187C46.0587 78.3354 45.6656 78.173 45.2727 78.173C44.8697 78.173 44.4869 78.3354 44.2048 78.6187C43.9227 78.9019 43.7615 79.2938 43.7615 79.6944V82.7261V82.7249C43.7615 83.8113 43.3082 84.7851 42.5728 85.5134C41.8272 86.2376 40.7996 86.6908 39.641 86.6913C38.4824 86.6908 37.4546 86.2372 36.709 85.5138C35.9635 84.7868 35.5203 83.8137 35.5203 82.7261C35.5203 81.8861 34.8453 81.2051 34.0091 81.2051C33.1729 81.2051 32.4978 81.8861 32.4978 82.7261" fill="#00D880"/>
<path d="M35.5299 72.327C35.5299 70.7042 35.5299 69.3025 35.5299 68.5057C35.5299 68.0093 35.4695 67.4783 35.3788 66.8805C35.0665 64.8079 34.3411 61.9327 33.6761 59.5227C33.0212 57.1197 32.437 55.2124 32.437 55.2033C32.1952 54.4002 31.3488 53.9489 30.5529 54.1957C29.7469 54.4426 29.3036 55.2936 29.5454 56.0967C29.5454 56.0971 29.5958 56.2461 29.6764 56.5198C29.9585 57.4763 30.684 59.9236 31.3288 62.4319C31.6411 63.6855 31.9432 64.9549 32.1649 66.0477C32.3865 67.1308 32.5075 68.0742 32.5075 68.5057C32.5075 69.3005 32.5075 70.703 32.5075 72.327C32.5075 73.1674 33.1825 73.8484 34.0187 73.8484C34.8549 73.8484 35.5299 73.1674 35.5299 72.327Z" fill="#00D880"/>
<path d="M51.7614 83.7819C51.7614 83.7848 51.7614 84.6996 51.7614 86.261C51.7614 87.8224 51.7614 90.0277 51.7614 92.6034C51.7614 99.7781 50.8849 104.942 50.0286 108.287C49.5954 109.959 49.1722 111.177 48.8599 111.965C48.7088 112.358 48.5777 112.644 48.4971 112.825L48.4066 113.018L48.3863 113.056L48.4166 113.072L48.3863 113.056L48.4166 113.072L48.3863 113.056C48.2654 113.282 48.1948 113.525 48.1948 113.783V138.479C48.1948 139.319 48.8799 140 49.7061 140C50.5423 140 51.2173 139.319 51.2173 138.479V113.783H49.7061L51.0361 114.51C51.157 114.306 54.7839 107.45 54.7839 92.6034C54.7839 90.0277 54.7839 87.8224 54.7839 86.261C54.7839 84.6996 54.7839 83.7848 54.7839 83.7819C54.7839 82.942 54.1088 82.2609 53.2726 82.2609C52.4364 82.2609 51.7614 82.942 51.7614 83.7819Z" fill="#00D880"/>
<path d="M18.7456 97.2634C19.5314 95.6276 20.1258 93.4806 20.5691 91.3644C21.0023 89.246 21.2743 87.2146 21.2944 85.7867L19.7832 85.7674L19.5817 87.2741C20.8411 87.4496 22.4934 87.6596 24.3169 87.6596C26.2009 87.6588 28.2764 87.4381 30.3115 86.6917C32.3567 85.9488 34.3517 84.654 35.9637 82.5957C37.4245 80.7348 38.0591 78.7439 38.0591 76.9393C38.0591 75.2094 37.4849 73.6693 36.5882 72.52C36.1349 71.9451 35.6009 71.4641 34.9863 71.1143C34.3717 70.766 33.6664 70.5489 32.931 70.5489C32.2962 70.5469 31.6516 70.7125 31.0773 71.0453L31.8227 72.3674L31.1679 70.9982C28.4476 72.3362 24.579 72.7268 20.6598 72.7173C17.0933 72.7189 13.5066 72.421 10.5849 72.4189C9.25503 72.4206 8.05616 72.4772 6.99829 72.6872C6.4744 72.7941 5.97061 72.9396 5.49709 73.1682C5.02357 73.3964 4.56009 73.7189 4.19739 74.1896C3.93544 74.5339 3.75417 74.8941 3.57282 75.2926C3.25043 76.0371 2.9884 76.9245 2.73653 77.9527C1.86001 81.5304 1.19506 86.8328 0.721543 91.2983C0.258097 95.7555 0.00626327 99.3439 0.00626327 99.3551C-0.0239615 99.6652 0.0565985 99.9799 0.217797 100.247C0.761842 101.159 1.55776 102.322 2.48465 103.595C5.2351 107.398 8.98293 112.097 8.99301 112.108L10.1719 111.154H8.66065V129.904C8.66065 130.744 9.33567 131.425 10.1719 131.425C11.0081 131.425 11.6831 130.744 11.6831 129.904V111.154C11.6831 110.808 11.5622 110.468 11.3506 110.2C11.3506 110.2 11.2498 110.072 11.0584 109.838C10.4136 109.022 8.76136 106.929 7.0587 104.683C6.21241 103.56 5.34597 102.4 4.59035 101.347C3.84481 100.295 3.19989 99.3439 2.80697 98.6807L1.50746 99.4636L3.0187 99.5733C3.0187 99.5721 3.03877 99.2477 3.08915 98.6644C3.24027 96.6248 3.68365 91.4619 4.32844 86.5042C4.65084 84.0269 5.03365 81.5985 5.44672 79.6643C5.64822 78.6983 5.86975 77.8556 6.08132 77.213C6.28282 76.5743 6.52477 76.1235 6.5953 76.047V76.0466L6.63544 76.0117C6.73619 75.9206 7.16949 75.7241 7.87473 75.6211C8.5699 75.5093 9.50691 75.4609 10.5849 75.4618C13.3051 75.4598 16.9422 75.7589 20.6598 75.7602C24.7603 75.751 28.9917 75.4214 32.4776 73.7371L32.5683 73.6896C32.6993 73.6171 32.8 73.5933 32.931 73.5918C33.072 73.5913 33.2736 73.6353 33.5054 73.766C33.8479 73.9582 34.2508 74.3504 34.543 74.9027C34.8351 75.4534 35.0367 76.1516 35.0367 76.9393C35.0266 78.0355 34.6739 79.3208 33.5858 80.7131C32.3365 82.2966 30.8758 83.2436 29.2839 83.8323C27.682 84.4171 25.9591 84.6176 24.3169 84.6168C22.7251 84.6172 21.214 84.431 19.9949 84.2602C19.5617 84.2003 19.1285 84.3299 18.796 84.6136C18.4736 84.8969 18.282 85.3125 18.272 85.7475C18.2619 86.8315 18.0201 88.7855 17.6071 90.7409C17.2041 92.6977 16.6198 94.7107 16.0254 95.937C15.6627 96.6926 15.975 97.6034 16.7306 97.9695C17.4762 98.3356 18.3829 98.0202 18.7456 97.2634" fill="#00D880"/>
<path d="M46.7838 79.6951C46.7838 79.6948 46.7838 72.707 46.7838 69.522C46.7838 68.5406 46.6125 67.3872 46.3808 66.1246C45.6755 62.367 44.3054 57.7731 44.2954 57.7473C44.0536 56.9422 43.2174 56.4853 42.4114 56.7262C41.6155 56.9671 41.1621 57.815 41.4039 58.6201C41.4039 58.6205 41.4342 58.7406 41.5047 58.9656C41.7263 59.7532 42.3006 61.7842 42.8144 63.9419C43.0764 65.0199 43.3181 66.13 43.4894 67.1206C43.6606 68.1064 43.7613 68.9895 43.7613 69.522C43.7613 71.1139 43.7613 73.6567 43.7613 75.8017C43.7613 77.9467 43.7613 79.6901 43.7613 79.694C43.7613 80.5339 44.4363 81.2154 45.2725 81.2158C46.1088 81.2162 46.7838 80.5355 46.7838 79.6951" fill="#00D880"/>
</svg>
