<svg width="76" height="145" viewBox="0 0 76 145" fill="none" xmlns="http://www.w3.org/2000/svg">
<path d="M7.721 25.1502L11.0214 24.624C11.3646 24.5702 11.5967 24.2448 11.5463 23.8991C11.4857 23.5533 11.1627 23.3181 10.8196 23.3728L7.5293 23.898C7.18614 23.9538 6.95398 24.2782 7.00444 24.624C7.05491 24.9697 7.37784 25.2049 7.721 25.1502Z" fill="#3330E8"/>
<path d="M9.89107 45.096L14.9982 44.2821C15.3413 44.2274 15.5734 43.9026 15.5229 43.557C15.4624 43.2113 15.1395 42.9761 14.7963 43.0308L9.68921 43.8444C9.34605 43.8991 9.11389 44.2238 9.16436 44.5696C9.21482 44.915 9.54791 45.151 9.89107 45.096" fill="#3330E8"/>
<path d="M29.8246 19.0892L33.1654 19.22C33.5086 19.2332 33.8012 18.9615 33.8113 18.6117C33.8315 18.2619 33.559 17.9669 33.2057 17.9537L29.8751 17.8229C29.5319 17.8097 29.2392 18.0814 29.219 18.4312C29.2089 18.781 29.4814 19.075 29.8246 19.0892Z" fill="#3330E8"/>
<path d="M28.785 40.9686L33.236 41.144C33.5792 41.1582 33.8719 40.8855 33.892 40.5357C33.9021 40.1859 33.6296 39.8909 33.2865 39.8777L28.8355 39.7023C28.4924 39.6891 28.1997 39.9608 28.1795 40.3106C28.1694 40.6604 28.4419 40.9554 28.785 40.9686Z" fill="#3330E8"/>
<path d="M28.3814 62.4178H33.0141C33.3674 62.4178 33.6499 62.1342 33.6499 61.7841C33.6499 61.4343 33.3674 61.1504 33.0141 61.1504H28.3814C28.0281 61.1504 27.7556 61.4343 27.7556 61.7841C27.7556 62.1342 28.0281 62.4178 28.3814 62.4178Z" fill="#3330E8"/>
<path d="M47.7499 20.539L51.0302 21.1545C51.3733 21.2183 51.7064 20.9912 51.7669 20.6475C51.8275 20.3038 51.6054 19.9733 51.2623 19.9084L47.9821 19.294C47.6389 19.2291 47.3159 19.4562 47.2453 19.7999C47.1847 20.1436 47.4068 20.4752 47.7499 20.539Z" fill="#3330E8"/>
<path d="M44.3889 41.1338L47.649 41.7462C47.9922 41.8111 48.3151 41.584 48.3858 41.2403C48.4463 40.8966 48.2243 40.565 47.8811 40.5001L44.6211 39.8878C44.278 39.8229 43.9448 40.05 43.8843 40.3937C43.8136 40.7384 44.0458 41.0689 44.3889 41.1338Z" fill="#3330E8"/>
<path d="M58.6906 51.3024L61.6277 52.8584C61.9305 53.022 62.314 52.9036 62.4755 52.5938C62.6369 52.2845 62.5159 51.9012 62.2131 51.7376L59.276 50.1819C58.9732 50.0184 58.5897 50.1368 58.4282 50.4461C58.2667 50.7554 58.3878 51.1387 58.6906 51.3024" fill="#3330E8"/>
<path d="M64.8877 37.6593L67.5321 39.0636C67.8349 39.2268 68.2183 39.1082 68.3798 38.7989C68.5413 38.4897 68.4303 38.1065 68.1174 37.9432L65.4731 36.539C65.1703 36.3758 64.7867 36.4944 64.6252 36.8036C64.4637 37.1129 64.5748 37.4961 64.8877 37.6593Z" fill="#3330E8"/>
<path d="M40.2203 63.2335L44.2171 63.811C44.5603 63.8609 44.8832 63.6205 44.9337 63.274C44.9741 62.9274 44.742 62.6062 44.3988 62.5568L40.4019 61.9793C40.0588 61.9294 39.7358 62.1698 39.6854 62.5163C39.6349 62.8628 39.8771 63.184 40.2203 63.2335Z" fill="#3330E8"/>
<path d="M51.8073 65.7286L56.7226 68.274C57.0254 68.4344 57.409 68.3124 57.5705 68.0015C57.7319 67.6902 57.6108 67.3081 57.2979 67.1477L52.3826 64.6022C52.0698 64.4418 51.6964 64.5639 51.5349 64.8752C51.3734 65.186 51.4944 65.5682 51.8073 65.7286Z" fill="#3330E8"/>
<path d="M13.7164 63.5275L22.8203 62.9377C23.0726 62.9219 23.2946 62.7596 23.3754 62.5242C23.4662 62.2894 23.4057 62.0245 23.224 61.8506C22.033 60.7132 20.2566 60.1488 18.7629 59.8054C17.2691 59.4699 16.0478 59.3912 16.0276 59.3895C15.6744 59.367 15.3818 59.632 15.3515 59.9808C15.3313 60.3302 15.5937 60.6315 15.9469 60.6541C15.9469 60.6541 16.0075 60.6585 16.1387 60.67C16.5828 60.7112 17.7637 60.8434 19.0152 61.1706C20.2768 61.4918 21.6091 62.0316 22.3459 62.7607L22.7799 62.3056L22.7394 61.6732L13.6357 62.2629C13.2824 62.2855 13.02 62.5869 13.0402 62.9362C13.0603 63.285 13.3631 63.5501 13.7164 63.5275" fill="#3330E8"/>
<path d="M13.5852 114.173C14.8065 116.353 16.9663 118.128 19.4997 119.417C22.0532 120.705 24.9902 121.504 27.8364 121.668C28.1796 121.688 28.4824 121.422 28.5026 121.071C28.5228 120.722 28.2603 120.423 27.9071 120.403C25.2425 120.251 22.4569 119.492 20.075 118.286C17.693 117.081 15.7249 115.428 14.6853 113.553C14.5137 113.248 14.1302 113.139 13.8274 113.311C13.5145 113.483 13.4137 113.869 13.5852 114.173" fill="#00D880"/>
<path d="M52.1604 117.931C51.9585 118.264 51.3327 118.71 50.4446 119.09C49.1123 119.671 47.2047 120.154 45.1862 120.482C43.1777 120.811 41.0481 120.989 39.2515 120.989C38.9084 120.989 38.6257 121.272 38.6257 121.622C38.6257 121.973 38.9084 122.256 39.2515 122.256C41.7546 122.256 44.8026 121.93 47.4268 121.341C48.7389 121.045 49.95 120.685 50.9492 120.254C51.9383 119.814 52.7357 119.331 53.2101 118.639C53.4018 118.349 53.3312 117.955 53.0385 117.759C52.7559 117.564 52.3623 117.64 52.1705 117.931" fill="#00D880"/>
<path d="M30.9753 91.8525C33.5187 94.2644 34.9518 96.4565 35.7593 98.4015C36.5667 100.348 36.7485 102.055 36.7485 103.536C36.7485 104.789 36.6071 105.872 36.6071 106.821V106.94C36.6172 107.29 36.91 107.567 37.2531 107.558C37.6064 107.548 37.8788 107.259 37.8687 106.908V106.821C37.8687 105.999 38.0101 104.876 38.0101 103.536C38.0101 101.948 37.8082 100.044 36.9301 97.9155C36.0419 95.786 34.4977 93.4406 31.8432 90.9305C31.5909 90.6905 31.1872 90.7019 30.9551 90.957C30.7128 91.2113 30.723 91.6125 30.9753 91.8525" fill="#3330E8"/>
<path d="M35.9815 76.8219C36.5366 78.6971 37.6166 80.0298 38.9489 80.8516C40.2812 81.677 41.8355 82.0061 43.3696 82.0065C45.5396 82.0033 47.6894 81.3605 49.274 80.3993C49.3951 80.326 49.4859 80.2156 49.5364 80.0837C49.5565 80.0326 49.7887 79.4085 49.7887 78.4417C49.7887 77.2623 49.4153 75.5581 47.9014 73.9043C47.6692 73.646 47.2755 73.6282 47.0131 73.8646C46.7608 74.1011 46.7407 74.5018 46.9728 74.7597C48.2647 76.1771 48.517 77.5102 48.5271 78.4417C48.5271 78.8211 48.4767 79.1312 48.4363 79.3403C48.406 79.4449 48.3858 79.5241 48.3757 79.5739L48.3556 79.6267V79.6354L48.5574 79.7098L48.3556 79.6318V79.6354L48.5574 79.7098L48.3556 79.6318L48.9409 79.8575L48.6179 79.3161C47.2655 80.1467 45.2873 80.7427 43.3696 80.7392C42.007 80.7395 40.6848 80.444 39.615 79.7736C38.535 79.1004 37.6771 78.067 37.1927 76.4599C37.0917 76.1248 36.7385 75.9335 36.4054 76.0337C36.0724 76.1336 35.8806 76.4864 35.9815 76.8219" fill="#00D880"/>
<path d="M21.3062 83.0508L21.2053 82.978C20.953 82.8049 20.3171 82.3336 19.6712 81.7284C19.0252 81.1277 18.3692 80.3767 18.1067 79.7399C17.7636 78.968 17.5213 77.6456 17.3901 76.5522C17.3194 76.0033 17.269 75.5066 17.2488 75.149C17.2186 74.791 17.2084 74.5774 17.2084 74.577C17.1882 74.2274 16.8956 73.9577 16.5524 73.9743C16.1991 73.9909 15.9367 74.2876 15.9468 74.6373C15.9468 74.6476 15.9872 75.5604 16.1386 76.709C16.2799 77.8619 16.5121 79.2325 16.9461 80.2468C17.4103 81.3031 18.3187 82.2239 19.116 82.93C19.9033 83.6302 20.5896 84.0912 20.5997 84.1016C20.8924 84.2971 21.2759 84.2207 21.4777 83.9304C21.6695 83.6402 21.5989 83.2465 21.3062 83.0508" fill="#3330E8"/>
<path d="M38.1815 90.6529C38.1815 90.6577 38.7569 91.6276 39.4533 92.7083C39.8066 93.2489 40.19 93.8169 40.5534 94.3112C40.9268 94.8082 41.2599 95.2212 41.6031 95.5033C41.8756 95.7238 42.2692 95.6826 42.4913 95.411C42.7133 95.1393 42.673 94.74 42.4005 94.5195C42.2289 94.3895 41.9059 94.0118 41.5728 93.5535C41.0581 92.8624 40.4727 91.9705 40.0286 91.2573C39.8066 90.9 39.6148 90.5867 39.4836 90.3638C39.3423 90.1404 39.2717 90.0089 39.2717 90.0085C39.09 89.7072 38.7064 89.6069 38.4036 89.7851C38.1008 89.963 37.9999 90.3515 38.1815 90.6529" fill="#3330E8"/>
<path d="M15.089 134.908V114.655C15.089 114.424 15.0385 114.197 14.9376 113.989C13.1511 110.311 11.6372 107.595 10.5674 104.081C9.4975 100.566 8.82123 96.159 8.81114 89.0687C8.81114 81.9095 8.98272 77.5767 9.21485 74.2713C9.45709 70.9679 9.75995 68.6598 10.0526 65.5311C10.0627 65.4214 10.0526 65.291 10.0425 65.1821C10.0425 65.1817 8.48818 53.8679 6.86321 42.095C6.04568 36.2074 5.21812 30.2063 4.55198 25.4462C3.88585 20.681 3.39125 17.1781 3.24995 16.2291C3.09856 15.2659 3.02789 14.3717 3.02789 13.5565C3.02789 11.7214 3.39127 10.305 3.9262 9.40774C4.19871 8.95656 4.50144 8.62908 4.82442 8.39488C5.15748 8.16068 5.52091 8.01062 5.965 7.93965C6.21732 7.90011 6.45952 7.88084 6.68156 7.88084C7.18621 7.88185 7.60006 7.97311 7.98359 8.15561C8.5488 8.43037 9.11396 8.93426 9.65898 9.94914C10.1939 10.9569 10.6784 12.4595 10.9913 14.5187C11.3647 16.955 12.7272 25.6256 13.1006 27.8845L13.0906 27.8704C15.4826 43.2782 17.5012 51.7744 18.9647 56.4854C19.6914 58.8418 20.2767 60.2525 20.7208 61.1222C21.1548 61.9908 21.4375 62.3262 21.6393 62.5136C21.9119 62.7674 22.2853 62.9096 22.6587 62.91L25.1719 62.9112C25.9894 62.9112 26.6656 62.2574 26.6858 61.4363C26.6858 61.4339 26.706 60.683 26.7463 59.3594C26.8877 54.7281 27.2409 43.1129 27.574 32.3709C27.7355 27.0005 27.897 21.8469 28.0181 17.8949C28.1493 13.9489 28.2401 11.177 28.2603 10.6426C28.3915 7.82813 28.6842 5.68784 29.2393 4.53709C29.5118 3.95614 29.7945 3.63576 30.1376 3.41575C30.4808 3.1998 30.9653 3.04467 31.7525 3.04163C32.4893 3.04467 32.9737 3.19473 33.3572 3.42487C33.6398 3.6023 33.8922 3.83854 34.1244 4.18731C34.4776 4.70743 34.7804 5.49824 34.9823 6.55064C35.1841 7.60101 35.2749 8.89979 35.2749 10.3983C35.2749 10.6487 35.2749 10.9062 35.2648 11.1709V11.1678C35.2043 14.181 34.952 26.4276 34.7097 38.0294C34.5886 43.8305 34.4675 49.4714 34.3867 53.7182C34.3363 55.8418 34.306 57.6165 34.2758 58.8894C34.2657 59.5254 34.2555 60.0363 34.2454 60.4027C34.2454 60.7749 34.2353 60.9785 34.2353 61.0723C34.2353 61.5618 34.4574 62.005 34.6895 62.2601C35.0428 62.6526 35.386 62.7904 35.6888 62.8977C36.0017 62.9967 36.3044 63.0391 36.6172 63.0403C36.9907 63.0355 37.3944 62.9864 37.8486 62.7563C38.0707 62.6395 38.3129 62.4656 38.5249 62.2074C38.7267 61.9524 38.8781 61.6074 38.9286 61.2612L37.4348 61.0387L38.9286 61.2953C39.0396 60.6553 39.9682 55.4659 40.9169 49.9985L40.9371 49.8821C41.1592 47.5728 41.5628 45.1898 41.9867 43.0004C42.4207 40.8084 42.8547 38.8171 43.1272 37.2355C44.1567 31.3054 44.9844 26.4205 45.6101 22.6966C46.2359 18.9756 46.6699 16.4035 46.902 15.1452L45.4183 14.8603L46.892 15.1969C47.1847 13.882 47.669 12.5163 48.3251 11.6119C48.6581 11.1557 49.0114 10.818 49.405 10.5919C49.7987 10.3689 50.2327 10.2351 50.8383 10.233C51.0199 10.233 51.2117 10.2462 51.4338 10.2776C52.0394 10.3648 52.5036 10.5098 52.8266 10.6751C53.3212 10.9316 53.5533 11.1891 53.7652 11.5957C53.9671 12.0032 54.0882 12.6156 54.0882 13.448C54.0882 14.2287 53.9771 15.1858 53.7753 16.2788L53.7652 16.3355C53.5331 17.9202 52.8467 21.3998 51.9788 25.8152C51.1209 30.2388 50.0813 35.6305 49.1225 41.1612L49.1023 41.29C48.7187 45.7608 48.1838 48.2406 47.6287 51.7547C47.437 52.9958 47.1543 54.2814 46.8818 55.4782C46.6194 56.6786 46.3771 57.7781 46.256 58.7329L47.7599 58.9199L46.3267 58.4244C46.3166 58.4529 46.1753 58.8838 46.0239 59.4929C45.8725 60.1071 45.711 60.881 45.7009 61.7064C45.711 62.1219 45.7413 62.5599 45.923 63.0498C46.0138 63.2933 46.1551 63.5532 46.357 63.7967C46.5689 64.04 46.8616 64.2589 47.1846 64.3916L47.336 64.4478C47.5177 64.4993 47.6994 64.5218 47.8608 64.5218C48.4361 64.5112 48.7995 64.3068 49.0922 64.1235C49.6271 63.7618 50.0107 63.3247 50.4548 62.7849C51.2016 61.8438 52.0091 60.5812 52.8569 59.1337C55.4104 54.8077 58.3071 48.8425 59.4173 46.6033C60.3559 44.7288 62.1827 40.9483 63.8884 37.4403C64.7463 35.6863 65.5639 34.0023 66.22 32.665C66.553 31.9958 66.8457 31.4138 67.0779 30.9546C67.2999 30.4983 67.4816 30.1556 67.5623 30.0076C67.8752 29.4297 68.3496 28.6287 68.9047 28.0407C69.1772 27.7477 69.4597 27.5135 69.7222 27.3685C69.9947 27.2235 70.2269 27.1586 70.4893 27.1576C70.7618 27.1586 71.105 27.2286 71.5995 27.5206L71.6398 27.5429C72.2252 27.8693 72.5281 28.1897 72.7097 28.4929C72.8914 28.797 72.9721 29.1184 72.9721 29.5514C72.9822 30.3554 72.5987 31.5162 71.9528 32.6994C71.7307 33.1161 71.438 33.764 71.0342 34.6633C69.6414 37.787 67.1283 43.7672 64.7363 49.3629C63.5453 52.1594 62.3846 54.8568 61.4157 57.0395C60.9312 58.1305 60.4871 59.093 60.1238 59.87C59.7604 60.6438 59.4576 61.2431 59.2759 61.556C58.2969 63.2723 57.4289 64.5809 56.8032 65.4534C56.5004 65.8899 56.2481 66.2169 56.0866 66.4312C56.0059 66.5385 55.9453 66.6177 55.905 66.6684L55.8545 66.7227L55.8443 66.7338C55.5819 67.0494 55.4609 67.4633 55.5012 67.8728C55.5012 67.8732 55.5214 68.015 55.5415 68.2958C55.7333 70.2602 56.5206 78.8357 56.5206 88.8128C56.5206 91.2932 56.4701 93.8601 56.349 96.432V96.4458C56.0563 104.58 54.9058 110.016 53.8561 113.382C53.3313 115.065 52.8266 116.231 52.4733 116.96C52.2917 117.324 52.1503 117.58 52.0595 117.735L51.9585 117.896L51.9384 117.923L52.3422 118.191L51.9485 117.915L51.9384 117.923L52.3422 118.191L51.9485 117.915C51.7668 118.174 51.6659 118.476 51.6659 118.793V143.479C51.6659 144.319 52.3522 145 53.1799 145C54.0176 145 54.6938 144.319 54.6938 143.479V118.793H53.1799L54.4213 119.673C54.613 119.407 58.7713 113.297 59.3769 96.5571V96.571C59.498 93.9448 59.5485 91.3329 59.5485 88.8128C59.5485 77.2322 58.519 67.5821 58.5089 67.5489L57.005 67.7109L58.1657 68.6878C58.2162 68.6317 59.8311 66.6898 61.9001 63.0727C62.2029 62.5504 62.5663 61.7979 63.0305 60.8157C64.6151 57.3971 67.209 51.2988 69.5708 45.7423C70.7516 42.9659 71.872 40.3288 72.7703 38.2443C73.2244 37.2031 73.6181 36.2997 73.9411 35.59C74.254 34.8853 74.5063 34.3571 74.6274 34.1371C75.3642 32.7258 75.9899 31.203 76 29.5514C76 28.6774 75.7982 27.7558 75.3036 26.9315C74.8192 26.1042 74.0621 25.4087 73.1033 24.8804L72.3767 26.2117L73.1437 24.9027C72.2757 24.3816 71.3573 24.1129 70.4893 24.116C69.6617 24.114 68.9047 24.3532 68.2688 24.701C67.3201 25.2262 66.6338 25.9643 66.0988 26.6669C65.5639 27.3715 65.1703 28.064 64.9179 28.5304C64.7867 28.7626 64.605 29.1093 64.3729 29.5828C62.7176 32.8637 58.3172 42.0088 56.7124 45.2433C55.7939 47.0782 53.7249 51.3273 51.6659 55.098C50.6364 56.9801 49.5968 58.744 48.749 59.9828C48.3251 60.5999 47.9416 61.0874 47.6792 61.3571C47.548 61.4918 47.447 61.5689 47.4369 61.5749L47.5278 61.7127L47.4571 61.5674L47.4369 61.5749L47.5278 61.7127L47.4571 61.5674L47.8608 62.3488V61.4802C47.6085 61.4835 47.4874 61.5516 47.4571 61.5674L47.8608 62.3488V61.4802V62.6451L48.1838 61.5266C48.0728 61.4933 47.9618 61.4799 47.8608 61.4802V62.6451L48.1838 61.5266L47.7599 62.9872L48.3453 61.5828L48.0223 62.3453L48.6481 61.8035C48.5774 61.7222 48.4664 61.6308 48.3453 61.5828L48.0223 62.3453L48.6481 61.8035L48.1838 62.2082L48.739 61.9456L48.6481 61.8035L48.1838 62.2082L48.739 61.9456L48.5471 62.0371L48.7592 61.9769L48.739 61.9456L48.5471 62.0371L48.7592 61.9769C48.7491 61.9726 48.7288 61.8637 48.7288 61.7064C48.7288 61.3266 48.8399 60.7071 48.961 60.2292C49.0216 59.988 49.0821 59.7769 49.1225 59.6303L49.1729 59.4624L49.1931 59.4225V59.4153C49.2234 59.3111 49.2537 59.2157 49.2638 59.1063C49.3546 58.3903 49.5766 57.3281 49.839 56.1345C50.1115 54.9368 50.4043 53.595 50.6162 52.2334C51.1612 48.8188 51.7164 46.1755 52.1201 41.5536L50.6162 41.4218L52.0999 41.6823C53.0587 36.1892 54.0882 30.8187 54.9562 26.4002C55.8141 21.9747 56.5004 18.5336 56.7629 16.7816L55.259 16.5586L56.7527 16.8394C56.9747 15.6339 57.1161 14.5095 57.1161 13.448C57.1161 12.6967 57.0455 11.9738 56.8638 11.2804C56.5913 10.2452 56.0159 9.26073 55.1378 8.56014C54.2496 7.8555 53.1394 7.44995 51.8576 7.26644C51.5145 7.21575 51.1713 7.19141 50.8383 7.19141C49.7482 7.18736 48.739 7.4682 47.9013 7.95283C46.6396 8.68282 45.7817 9.80112 45.1762 10.963C44.5706 12.132 44.1971 13.3781 43.9448 14.5258L43.9346 14.5765C43.6823 15.9056 43.2483 18.4647 42.6226 22.1896C41.9968 25.9136 41.1793 30.7913 40.1498 36.7123C39.8975 38.1835 39.4534 40.1859 39.0194 42.4184C38.5855 44.6536 38.1615 47.126 37.9193 49.593L39.4332 49.7376L37.9395 49.4766C36.9907 54.942 36.0622 60.0913 35.9411 60.7821L35.9309 60.8161L36.9807 60.9722L36.153 60.3068C36.0521 60.4399 35.9612 60.6394 35.9309 60.8161L36.9807 60.9722L36.153 60.3068L36.8293 60.845L36.5467 60.0165C36.4861 60.0398 36.3246 60.1009 36.153 60.3068L36.8293 60.845L36.5467 60.0165L36.6677 60.3693L36.6172 59.9999L36.5467 60.0165L36.6677 60.3693L36.6172 59.9999V60.0427V59.9987V59.9999V60.0427V59.9987L36.6072 59.9974L36.5063 60.4929L36.7888 60.0909C36.6375 59.9924 36.6072 60.0018 36.6072 59.9974L36.5063 60.4929L36.7888 60.0909L36.1631 60.9777L37.0714 60.3944C36.9604 60.2292 36.8595 60.1424 36.7888 60.0909L36.1631 60.9777L37.0714 60.3944L36.0117 61.0723H37.2632C37.2632 60.8122 37.1724 60.5548 37.0714 60.3944L36.0117 61.0723H37.2632C37.2632 61.0541 37.2733 60.8173 37.2733 60.4589C37.3742 54.9868 38.1817 16.8861 38.2927 11.2266V11.2246C38.3028 10.9468 38.3028 10.672 38.3028 10.3983C38.2927 7.50977 38.0101 5.10182 37.0412 3.18053C36.5567 2.22546 35.8604 1.39105 34.9318 0.829364C34.0133 0.263623 32.9233 -0.00201701 31.7525 1.07312e-05C30.5615 -0.00201701 29.4513 0.256523 28.5328 0.8395C27.8364 1.27344 27.2813 1.87263 26.8675 2.54787C26.2518 3.5658 25.8985 4.74088 25.6664 6.0579C25.4342 7.37593 25.3233 8.85112 25.2426 10.4946V10.4956C25.2022 11.1871 25.0912 14.6687 24.9398 19.5637C24.4755 34.2263 23.6579 61.3441 23.6579 61.3445L25.1719 61.3904V59.8696L22.6587 59.8684V61.3892L23.6781 60.2648L22.9716 61.0447L23.7689 60.3559L23.6781 60.2648L22.9716 61.0447L23.7689 60.3559L23.5671 60.5326L23.7689 60.361V60.3559L23.5671 60.5326L23.7689 60.361L23.7286 60.3064C23.5167 60.0042 22.5982 58.3836 21.2558 53.5487C19.9135 48.7114 18.1371 40.6533 16.0882 27.403L16.0781 27.3888C15.7147 25.1653 14.3623 16.4754 13.9889 14.0513C13.5044 11.0066 12.7172 8.78624 11.4757 7.20459C10.86 6.41884 10.1131 5.80747 9.28552 5.41105C8.4579 5.01361 7.56974 4.83719 6.68156 4.83922C6.28793 4.83922 5.89429 4.87269 5.50066 4.93453C4.61248 5.07039 3.78486 5.40599 3.07835 5.91292C2.0085 6.67231 1.23132 7.78453 0.736766 9.0833C0.232118 10.3861 0 11.8887 0 13.5565C0 14.5471 0.0807437 15.5954 0.252324 16.6965C0.393626 17.5846 0.88822 21.1149 1.55436 25.868C2.54347 33.0046 3.91607 42.9375 5.04648 51.0865C5.60159 55.1606 6.1063 58.7884 6.46965 61.3979C6.8229 64.0074 7.04487 65.594 7.04487 65.5984L8.5387 65.3904L7.03481 65.2494C6.75221 68.3061 6.43935 70.6555 6.19712 74.0539C5.95489 77.4503 5.78325 81.8646 5.78325 89.0687C5.78325 96.342 6.48977 101.101 7.67065 104.974C8.86162 108.849 10.4866 111.745 12.2125 115.321L13.575 114.655H12.0611V134.908C12.0611 135.747 12.7373 136.429 13.575 136.429C14.4127 136.429 15.089 135.747 15.089 134.908Z" fill="#00D880"/>
<path d="M15.0282 114.223L14.998 114.133C14.8668 113.669 14.2409 111.464 13.6555 108.721C13.0701 105.983 12.5252 102.686 12.5252 100.154C12.5252 99.6577 12.6564 98.9642 12.9289 98.1614C13.4134 96.7527 14.3218 95.0256 15.4522 93.2422C17.1579 90.561 19.3783 87.7352 21.3868 85.3899C22.3961 84.2163 23.3549 83.1613 24.1624 82.3019C24.9799 81.4441 25.6662 80.7755 26.0901 80.4049V80.4044C26.2516 80.2536 26.6048 80.0417 27.1196 79.846C28.0078 79.4963 29.3501 79.1918 30.9549 78.9264C33.357 78.5232 36.3446 78.1862 39.4734 77.6737C42.6123 77.1601 45.8925 76.4721 48.9506 75.3251L49.0415 75.2867C49.1525 75.2364 49.2434 75.2198 49.3443 75.219C49.4755 75.2194 49.637 75.2574 49.849 75.3739C50.1517 75.5446 50.505 75.905 50.7775 76.4206C51.0399 76.9343 51.2216 77.5905 51.2216 78.3221C51.2115 79.5109 50.7775 80.9145 49.4048 82.3708C47.5679 84.332 44.5097 86.2722 41.4112 87.6549C39.867 88.3491 38.3127 88.9119 36.8896 89.2944C35.4765 89.6789 34.1947 89.8778 33.2561 89.8754C32.7212 89.8774 32.3073 89.8081 32.0752 89.7257C31.6311 89.5736 31.1567 89.6319 30.7631 89.8846C30.3695 90.1368 30.1172 90.5511 30.0768 91.016C29.8548 93.3079 28.795 95.786 27.3719 97.7028C26.6654 98.6621 25.868 99.4811 25.0808 100.078C24.3036 100.676 23.5366 101.043 22.9108 101.164C22.0933 101.329 21.5584 102.131 21.7199 102.955C21.8813 103.778 22.6787 104.312 23.5063 104.147C24.7276 103.899 25.858 103.301 26.9177 102.5C28.4922 101.294 29.8952 99.609 30.9953 97.6739C32.0854 95.7385 32.8725 93.5503 33.0845 91.3115L31.5807 91.1638L31.0861 92.6017C31.7724 92.835 32.489 92.9154 33.2561 92.9171C34.5884 92.9146 36.0821 92.6616 37.6768 92.2319C40.0688 91.5843 42.693 90.5281 45.1456 89.1986C47.6083 87.8655 49.8893 86.2702 51.6051 84.4651C53.4521 82.5213 54.2494 80.3106 54.2494 78.3221C54.2494 76.6915 53.7347 75.2234 52.8869 74.1085C52.463 73.5517 51.9482 73.08 51.3527 72.735C50.7573 72.3917 50.071 72.1774 49.3443 72.1774C48.8195 72.1766 48.2845 72.2899 47.79 72.5156L48.4157 73.901L47.8808 72.4768C43.6922 74.0598 38.6862 74.7576 34.326 75.3557C32.1459 75.6578 30.1272 75.9362 28.3913 76.3197C27.5334 76.5125 26.736 76.7311 26.0194 77.0095C25.3028 77.2903 24.6569 77.6254 24.0917 78.1189V78.1185C23.2742 78.8373 22.0226 80.1117 20.539 81.7624C18.3084 84.2337 15.6136 87.5095 13.4336 90.7844C12.3536 92.4236 11.3948 94.0612 10.6883 95.6279C9.98176 97.1986 9.50741 98.6882 9.49731 100.154C9.50741 103.284 10.1634 106.965 10.8195 109.921C11.4654 112.869 12.1215 115.064 12.1215 115.088C12.3637 115.893 13.2014 116.352 14.0088 116.113C14.8061 115.874 15.2604 115.028 15.0282 114.223" fill="#00D880"/>
</svg>
