<svg width="61" height="145" viewBox="0 0 61 145" fill="none" xmlns="http://www.w3.org/2000/svg">
<path d="M38.1594 92.506C39.4826 93.894 41.3758 94.7558 43.4624 94.7554C45.437 94.7558 47.2387 93.9819 48.5415 92.7217C49.8546 91.4651 50.679 89.6965 50.679 87.7519V87.7503V84.7199C50.679 84.3195 50.5161 83.9278 50.2311 83.6447C49.9461 83.3615 49.5492 83.1992 49.1522 83.1992C48.7451 83.1992 48.3582 83.3615 48.0732 83.6447C47.7882 83.9278 47.6255 84.3195 47.6255 84.7199C47.6255 86.5183 48.3888 88.1563 49.6 89.3203C50.8113 90.4873 52.4806 91.2061 54.3128 91.2057C56.1347 91.2061 57.8141 90.4873 59.0152 89.3199C60.2264 88.155 60.9899 86.5171 60.9899 84.7199V84.7203C60.9899 84.7203 61 76.0483 61 73.5332C60.9898 73.1114 60.9491 72.6789 60.8677 72.1882C60.6031 70.4952 60.0026 68.1309 59.4529 66.1361C59.1781 65.142 58.9236 64.249 58.7302 63.6019C58.6386 63.2783 58.5572 63.0165 58.4961 62.834C58.4758 62.742 58.4554 62.6708 58.4351 62.6189L58.4147 62.5519L58.4045 62.5143L58.3842 62.4653L58.3434 62.3781L58.2722 62.2257C58.2416 62.1777 58.2111 62.1179 58.0991 61.996C57.8141 61.6644 57.3968 61.476 56.949 61.476L56.8268 61.4815C56.7657 61.4882 56.664 61.493 56.4808 61.5501C56.3485 61.5936 56.1449 61.6783 55.9515 61.8526C55.7988 61.981 55.6665 62.1576 55.5851 62.3223C55.463 62.5742 55.4426 62.7638 55.4324 62.8625C55.4222 62.9647 55.4222 62.9963 55.4222 62.9971C55.4324 63.1286 55.4324 63.1714 55.4426 63.2114C55.4629 63.3381 55.4629 63.3362 55.4731 63.3623L55.4934 63.4387C55.5036 63.4858 55.5239 63.5527 55.5545 63.6605C55.7988 64.4549 56.6436 64.9091 57.4375 64.6799C58.2416 64.4506 58.7099 63.6225 58.4961 62.8209C58.1806 61.6843 57.7735 60.7172 57.2442 59.9018C56.4706 58.6764 55.4019 57.8182 54.2415 57.3426C53.0812 56.8613 51.8699 56.7275 50.679 56.7263C49.1828 56.7259 47.7679 57.1742 46.6991 58.086C45.6304 58.9889 44.9689 60.3825 44.979 61.8969C44.979 62.4613 45.0706 63.0422 45.2335 63.6296C45.3455 64.0209 45.5999 64.3465 45.9561 64.5452C46.3124 64.7437 46.7297 64.7923 47.1165 64.6814C47.5135 64.5709 47.8392 64.3135 48.0326 63.9587C48.2362 63.6038 48.287 63.192 48.175 62.801C47.7374 61.2969 47.3913 60.1453 47.0453 59.2146C46.7806 58.5164 46.516 57.9362 46.1801 57.4187C45.9256 57.0325 45.6101 56.6796 45.2335 56.4C44.6635 55.9731 44.0019 55.7683 43.4014 55.686C42.8008 55.6004 42.2105 55.6012 41.5387 55.5996C40.7448 55.6004 40.0221 55.5973 39.3096 55.6721C38.7803 55.7295 38.2408 55.8317 37.7115 56.0527C37.3145 56.2175 36.9176 56.4547 36.5817 56.7651C36.0626 57.2317 35.686 57.8392 35.4213 58.518C35.1567 59.2012 34.9837 59.9695 34.8615 60.8787L36.3782 61.0748L37.9049 61.0954C37.9049 61.0934 37.9151 60.4102 37.9355 59.2C38.0474 50.7288 38.5157 16.4943 38.6174 11.2305C38.6174 11.0784 38.6276 10.9273 38.6276 10.7783C38.6174 7.68405 37.9965 5.14437 36.8463 3.2495C36.2662 2.3046 35.5435 1.5209 34.6987 0.955172C33.8539 0.389447 32.8767 0.0538668 31.8588 0.00621613L31.6044 0.000139501C30.5865 -0.0069574 29.5789 0.32963 28.7951 0.928811C27.5941 1.83316 26.8612 3.18157 26.3523 4.7804C25.8434 6.38937 25.5584 8.30148 25.4566 10.4985V10.4995C25.4159 11.1909 25.3039 14.6725 25.1512 19.5673C24.683 34.2295 23.8585 61.3465 23.8585 61.3469L25.3853 61.3928V59.8721L22.8508 59.8708V61.3916L23.8789 60.2673L23.1664 61.0471L23.9705 60.3584L23.8789 60.2673L23.1664 61.0471L23.9705 60.3584L23.7669 60.5334L23.9705 60.3635V60.3584L23.7669 60.5334L23.9705 60.3635L23.9298 60.3088C23.7161 60.0067 22.7898 58.3861 21.4361 53.5513C20.0823 48.7142 18.2909 40.6563 16.2246 27.4064L16.2144 27.3922C15.848 25.1688 14.4841 16.4792 14.1075 14.0551C13.619 11.0105 12.825 8.79016 11.573 7.20856C10.9521 6.42284 10.1989 5.81148 9.36426 5.41507C8.52962 5.01764 7.63393 4.84123 6.73822 4.84326C6.34125 4.84326 5.94427 4.87672 5.54731 4.93857C4.6516 5.07442 3.81695 5.41001 3.10446 5.91693C2.02553 6.6763 1.24176 7.78849 0.743014 9.08722C0.234087 10.39 0 11.8925 0 13.5603C0 14.5498 0.0814284 15.5991 0.254464 16.7012V16.7002C0.834641 20.3764 7.92913 65.458 7.92913 65.4588L9.43553 65.2232L7.93927 64.9511C6.85016 70.886 6.1784 80.0871 6.1784 89.7899C6.1784 93.0212 6.25986 96.305 6.42272 99.5362C6.46344 100.375 7.17585 101.021 8.02067 100.979C8.86549 100.937 9.50676 100.223 9.46605 99.3842C9.30319 96.2088 9.23196 92.974 9.23196 89.7899C9.23196 80.24 9.9139 71.1218 10.9419 65.4953C10.9725 65.3294 10.9725 65.1543 10.9419 64.9876C10.9419 64.9876 10.5043 62.1698 9.83253 57.8859C7.807 45.0343 3.70501 18.9833 3.27751 16.2328C3.12483 15.2696 3.05356 14.3754 3.05356 13.5603C3.05356 11.7252 3.42003 10.3089 3.95949 9.41164C4.23431 8.96048 4.53961 8.63301 4.86532 8.39882C5.20122 8.16462 5.56772 8.01457 6.01558 7.9436C6.27004 7.90406 6.51429 7.88479 6.73822 7.88479C7.24714 7.8858 7.6645 7.97706 8.05129 8.15955C8.62129 8.4343 9.19125 8.93818 9.74089 9.95303C10.2804 10.9608 10.7689 12.4633 11.0845 14.5224C11.4611 16.9587 12.8351 25.6291 13.2117 27.8879L13.2016 27.8737C15.6139 43.2811 17.6496 51.7771 19.1255 56.4879C19.8584 58.8443 20.4487 60.255 20.8965 61.1247C21.3342 61.9932 21.6193 62.3286 21.8228 62.516C22.0977 62.7698 22.4742 62.912 22.8508 62.9124L25.3853 62.9136C26.2098 62.9136 26.8918 62.2598 26.9121 61.4387C26.9121 61.4363 26.9324 60.6855 26.9731 59.3619C27.1156 54.7308 27.4719 43.1159 27.8078 32.3742C27.9707 27.0039 28.1336 21.8505 28.2557 17.8985C28.388 13.9526 28.4796 11.1808 28.4999 10.6465C28.6322 7.95476 29.0699 5.85001 29.6908 4.60501C29.9962 3.97845 30.3219 3.58204 30.6273 3.36102C30.9326 3.14203 31.1871 3.04877 31.6044 3.04167L31.7164 3.0447C32.1643 3.06802 32.5714 3.20287 32.9989 3.4837C33.6299 3.90141 34.2814 4.68815 34.77 5.91185C35.2585 7.13151 35.574 8.76988 35.574 10.7783C35.574 10.9081 35.5639 11.0389 35.5639 11.1727V11.1717C35.4519 17.2193 34.8514 61.0511 34.8514 61.0542C34.8412 61.8617 35.462 62.5342 36.2661 62.5916C37.0804 62.6494 37.7929 62.0716 37.8947 61.2709C38.0067 60.3778 38.1797 59.7798 38.3426 59.4408C38.4647 59.1829 38.5665 59.0724 38.6581 58.9956C38.7293 58.9382 38.8007 58.8923 38.9228 58.8435C39.1162 58.7706 39.4317 58.7065 39.8694 58.6756C40.3071 58.6432 40.8771 58.6407 41.5387 58.6411C42.3123 58.6376 42.8517 58.6602 43.1164 58.7211C43.3199 58.7683 43.3505 58.7964 43.4217 58.8483C43.4726 58.8907 43.554 58.9715 43.666 59.1552C43.839 59.4277 44.0731 59.9239 44.3276 60.6645C44.582 61.4051 44.8772 62.3853 45.2335 63.6355C45.4676 64.4431 46.3124 64.9103 47.1165 64.6814C47.9308 64.4525 48.399 63.6154 48.175 62.807C48.0732 62.4636 48.0326 62.1611 48.0326 61.8969C48.053 61.192 48.2769 60.7611 48.6942 60.3936C49.1115 60.0352 49.7833 59.7682 50.679 59.7678C51.3101 59.7674 51.8801 59.8189 52.3789 59.9326C53.1219 60.1089 53.6714 60.3892 54.1804 60.9104C54.6893 61.4348 55.1779 62.2617 55.5443 63.6158L57.0202 63.2181L58.4757 62.7761L58.4351 62.6225L58.4248 62.5968L57.58 62.8351L58.4248 62.611V62.5968L57.58 62.8351L58.4248 62.611L57.061 62.9737L58.4351 62.649L58.4248 62.611L57.061 62.9737L58.4351 62.649L56.9693 62.9936L58.4554 62.7084L58.4351 62.649L56.9693 62.9936L58.4554 62.7084L56.9592 62.9963L58.4656 62.7829L58.4554 62.7084L56.9592 62.9963L58.4656 62.7829L56.949 62.9971H58.4757C58.4757 62.8652 58.4656 62.8228 58.4656 62.7829L56.949 62.9971H58.4757H56.949L58.4248 63.3888C58.4961 63.0763 58.4757 62.9975 58.4757 62.9971H56.949L58.4248 63.3888L56.949 62.9971L57.8955 64.1955C58.1704 63.9923 58.3841 63.6154 58.4248 63.3888L56.949 62.9971L57.8955 64.1955L56.949 62.9967L57.3765 64.4569C57.5088 64.4205 57.692 64.3519 57.8955 64.1955L56.949 62.9967L57.3765 64.4569L56.949 62.9967L57.0406 64.5147C57.1017 64.5096 57.1933 64.5096 57.3765 64.4569L56.949 62.9967L57.0406 64.5147L56.949 62.9995V64.5175L57.0406 64.5147L56.949 62.9995V64.5175V62.9967L55.8598 64.0557L56.949 62.9971L55.636 63.7686C55.6767 63.8236 55.7072 63.8917 55.8598 64.0557L56.949 62.9971L55.636 63.7686L56.949 62.9983L55.5545 63.6054C55.5647 63.6355 55.5749 63.6668 55.636 63.7686L56.949 62.9983L55.5545 63.6054L56.9184 63.0129L55.5138 63.4961C55.5138 63.5136 55.5138 63.5096 55.5545 63.6054L56.9184 63.0129L55.5138 63.4961L56.3179 63.2177L55.5036 63.4775L55.5138 63.4961L56.3179 63.2177L55.5036 63.4775C55.5138 63.504 55.5647 63.6787 55.6461 63.931C55.9108 64.8244 56.5012 66.8315 57.0101 68.8363C57.2646 69.8382 57.5088 70.8405 57.6818 71.6908C57.8549 72.5316 57.9464 73.26 57.9464 73.5332C57.9464 74.7897 57.9363 77.5865 57.9363 80.0689C57.9363 82.5516 57.9363 84.7148 57.9363 84.7195V84.7199C57.9363 85.6553 57.5495 86.4996 56.8981 87.1349C56.2365 87.7665 55.3306 88.1638 54.3128 88.1642C53.2847 88.1642 52.3788 87.7669 51.7274 87.1345C51.0658 86.4989 50.679 85.6542 50.679 84.7199C50.679 84.3195 50.5161 83.9278 50.2311 83.6447C49.9461 83.3615 49.5492 83.1992 49.1522 83.1992C48.7451 83.1992 48.3582 83.3615 48.0732 83.6447C47.7882 83.9278 47.6255 84.3195 47.6255 84.7199V87.7503V87.7492C47.6255 88.8351 47.1674 89.8085 46.4244 90.5365C45.6712 91.2603 44.6329 91.7134 43.4624 91.7138C42.2206 91.7134 41.1315 91.2081 40.3783 90.4125C39.7981 89.8034 38.8311 89.778 38.2204 90.3562C37.6097 90.9341 37.5792 91.8968 38.1594 92.506" fill="#00D880"/>
<path d="M36.8057 80.3453C36.8057 80.3453 36.8972 79.5279 37.0295 78.3022C37.1008 77.6911 37.1721 76.9782 37.2535 76.2151C37.2942 75.8349 37.3349 75.4424 37.3756 75.0432C37.4164 74.6484 37.4469 74.2464 37.4876 73.8448C37.5079 73.4812 37.5589 73.0096 37.5691 72.7399C37.5487 72.3462 37.5691 71.9114 37.5182 71.5834C37.4673 70.9059 37.3757 70.2132 37.2942 69.6072C37.1212 68.4089 36.9889 67.6041 36.9889 67.6041C36.8973 67.0517 37.2637 66.5281 37.8235 66.4338C38.3426 66.3447 38.8516 66.6742 38.9737 67.1784L38.9838 67.1887C38.9838 67.1887 39.1874 67.9915 39.4622 69.2175C39.6047 69.8235 39.7574 70.5482 39.8898 71.4005C39.9712 71.8333 39.9915 72.1977 40.0322 72.6095C40.0729 73.1474 40.0526 73.4967 40.0526 73.9545C40.0424 74.3731 40.0424 74.7917 40.0322 75.2036C40.022 75.6115 40.0119 76.0135 40.0017 76.4024C39.9712 77.1751 39.9406 77.8962 39.9203 78.5145C39.8796 79.7469 39.849 80.5679 39.849 80.5679C39.8185 81.4083 39.106 82.0644 38.2612 82.0336C37.4266 82.0035 36.7649 81.2978 36.7954 80.4582L36.8057 80.3453" fill="#00D880"/>
<path d="M50.6789 84.7206C50.6789 84.7203 50.6789 77.7354 50.6789 74.5518C50.6789 73.5708 50.5058 72.4179 50.2717 71.1558C49.5592 67.3998 48.1749 62.8078 48.1647 62.7821C47.9204 61.9773 47.0756 61.5206 46.2613 61.7614C45.4572 62.0022 44.9992 62.8498 45.2435 63.6545C45.2435 63.6549 45.274 63.7749 45.3453 63.9999C45.5692 64.7871 46.1494 66.8172 46.6685 68.974C46.9331 70.0516 47.1774 71.1613 47.3504 72.1514C47.5235 73.1367 47.6253 74.0195 47.6253 74.5518C47.6253 76.143 47.6253 78.6847 47.6253 80.8289C47.6253 82.9729 47.6253 84.7155 47.6253 84.7191C47.6253 85.5591 48.3073 86.2403 49.1521 86.2407C49.9969 86.2411 50.6789 85.5607 50.6789 84.7206" fill="#00D880"/>
<path d="M55.7071 88.8057C55.7071 88.8085 55.7071 89.7229 55.7071 91.2837C55.7071 92.8444 55.7071 95.0488 55.7071 97.6234C55.7071 104.795 54.8217 109.957 53.9565 113.3C53.5188 114.972 53.0913 116.189 52.7757 116.976C52.6231 117.37 52.4908 117.656 52.4094 117.836L52.3177 118.03L52.2973 118.067L52.3177 118.079L52.2973 118.067L52.3177 118.079L52.2973 118.067C52.1752 118.293 52.104 118.537 52.104 118.794V143.479C52.104 144.319 52.7961 145 53.6308 145C54.4756 145 55.1576 144.319 55.1576 143.479V118.794H53.6308L54.9744 119.521C55.0965 119.317 58.7607 112.464 58.7607 97.6234C58.7607 95.0488 58.7607 92.8444 58.7607 91.2837C58.7607 89.7229 58.7607 88.8085 58.7607 88.8057C58.7607 87.9661 58.0788 87.2853 57.2339 87.2853C56.3891 87.2853 55.7071 87.9661 55.7071 88.8057Z" fill="#00D880"/>
<path d="M22.4539 105.662C23.085 104.812 23.5226 103.807 23.8992 102.716C24.459 101.081 24.8459 99.2432 25.1512 97.5748C25.4566 95.9134 25.6805 94.4028 25.8637 93.5672L24.3674 93.2552L23.8687 94.6936C25.3038 95.1783 27.1258 95.4362 29.1819 95.4397C31.3092 95.4389 33.6808 95.153 36.0219 94.4572C38.3528 93.7602 40.6735 92.65 42.6379 90.9681C44.9586 88.997 45.9663 86.5484 45.9561 84.3666C45.9459 82.8396 45.4879 81.4479 44.6838 80.3723C44.2868 79.8356 43.7881 79.3751 43.2079 79.0381C42.6277 78.7022 41.9458 78.4939 41.2333 78.4946C40.8262 78.4942 40.419 78.5608 40.022 78.693L40.5106 80.1346L40.1238 78.6641C37.8642 79.2583 35.1058 79.4638 32.2354 79.4617C27.3905 79.4646 22.2808 78.8899 18.413 78.8856C17.2018 78.8868 16.1025 78.9406 15.1254 79.1108C14.6368 79.1968 14.1787 79.3121 13.7309 79.482C13.2932 79.6522 12.8657 79.8784 12.4891 80.2111V80.2103C12.143 80.5129 11.8885 80.8475 11.6544 81.217C11.2066 81.9089 10.83 82.7409 10.4432 83.71C9.79179 85.4014 9.17082 87.5036 8.58047 89.7325C6.83994 96.4076 5.49643 104.201 5.48625 104.223C5.42518 104.582 5.49637 104.951 5.67958 105.263C6.67708 106.904 8.34638 109.826 9.77138 112.325C10.4737 113.575 11.1252 114.721 11.5934 115.554C12.0616 116.388 12.3568 116.906 12.3568 116.909L13.6901 116.167H12.1633V134.908C12.1633 135.748 12.8453 136.429 13.6901 136.429C14.5349 136.429 15.2169 135.748 15.2169 134.908V116.167C15.2169 115.909 15.1457 115.648 15.0236 115.424C15.0134 115.416 10.3414 107.083 8.30573 103.698L6.99265 104.481L8.49906 104.739C8.49906 104.738 8.54995 104.426 8.65174 103.863C9.00799 101.897 9.94447 96.9193 11.1048 92.1906C11.685 89.8283 12.3262 87.5254 12.9572 85.7222C13.2728 84.822 13.5883 84.0462 13.8733 83.4724C14.1583 82.8998 14.4433 82.5298 14.5044 82.497V82.4962C14.5349 82.4669 14.6367 82.3932 14.8403 82.3183C15.1253 82.2035 15.6139 82.0934 16.2246 82.0265C16.8353 81.9579 17.5784 81.9271 18.413 81.9271C21.9958 81.9231 27.1767 82.5009 32.2354 82.5033C35.2483 82.5013 38.2306 82.3021 40.8973 81.6055L40.9991 81.5766L41.2333 81.5362C41.3656 81.537 41.4979 81.5694 41.6811 81.6701C41.9458 81.8178 42.2613 82.1386 42.4954 82.6119C42.7397 83.0827 42.9025 83.6918 42.9025 84.3666C42.8924 85.6514 42.3631 87.1812 40.6429 88.6612C39.0856 90.0013 37.1618 90.9435 35.1465 91.5431C33.1311 92.1435 31.0344 92.399 29.1819 92.3982C27.4006 92.4013 25.8331 92.1518 24.8661 91.8172C24.4488 91.6758 23.9908 91.7186 23.6142 91.9328C23.2376 92.1474 22.9628 92.5182 22.8712 92.9435C22.7287 93.6183 22.5861 94.4869 22.4233 95.4773C22.1688 96.9581 21.8635 98.6979 21.4563 100.258C21.0594 101.813 20.5098 103.199 20.0111 103.833C19.5021 104.504 19.6446 105.457 20.3164 105.963C20.9882 106.468 21.945 106.333 22.4539 105.662" fill="#00D880"/>
<path d="M7.78671 25.1536L11.1151 24.6274C11.4612 24.5737 11.6953 24.2482 11.6444 23.9025C11.5833 23.5568 11.2576 23.3216 10.9115 23.3763L7.59338 23.9015C7.24731 23.9573 7.01318 24.2817 7.06407 24.6274C7.11497 24.9731 7.44064 25.2083 7.78671 25.1536Z" fill="#3330E8"/>
<path d="M9.97517 45.0988L15.1256 44.285C15.4716 44.2302 15.7057 43.9055 15.6548 43.5599C15.5937 43.2141 15.2681 42.9789 14.922 43.0337L9.7716 43.8473C9.42553 43.9019 9.1914 44.2267 9.2423 44.5724C9.29319 44.9178 9.6291 45.1538 9.97517 45.0988" fill="#3330E8"/>
<path d="M30.0773 19.0928L33.4465 19.2236C33.7925 19.2368 34.0876 18.9651 34.0978 18.6153C34.1182 18.2655 33.8434 17.9705 33.4871 17.9573L30.1282 17.8265C29.7821 17.8133 29.4869 18.0851 29.4666 18.4348C29.4564 18.7846 29.7312 19.0786 30.0773 19.0928Z" fill="#3330E8"/>
<path d="M28.3066 40.9431L33.5179 41.1469C33.864 41.1611 34.1592 40.8884 34.1795 40.5386C34.1897 40.1888 33.9149 39.8938 33.5688 39.8806L28.3575 39.6769C28.0012 39.6627 27.7061 39.9354 27.6959 40.2852C27.6755 40.6349 27.9503 40.929 28.3066 40.9431Z" fill="#3330E8"/>
<path d="M28.0522 62.5147L33.2635 62.7187C33.6096 62.7326 33.9048 62.46 33.9251 62.1104C33.9353 61.7607 33.6605 61.466 33.3144 61.4526L28.1031 61.2486C27.7468 61.2347 27.4517 61.5072 27.4415 61.8569C27.4211 62.2066 27.696 62.5012 28.0522 62.5147Z" fill="#3330E8"/>
<path d="M13.8939 63.5226L22.9528 62.0165C23.1869 61.9772 23.3905 61.8077 23.4618 61.58C23.533 61.3523 23.4617 61.1024 23.2887 60.9365C22.5355 60.207 21.5381 59.8161 20.5507 59.588C19.5634 59.3618 18.5557 59.3032 17.7516 59.3028C16.7643 59.3028 16.062 59.3936 16.0417 59.3959C15.6854 59.4411 15.4411 59.759 15.492 60.106C15.5327 60.4529 15.8584 60.6977 16.2045 60.6526L16.3063 60.6407C16.5302 60.6177 17.0697 60.5701 17.7516 60.5701C18.4947 60.5698 19.4108 60.6276 20.2658 60.8233C21.1208 61.0169 21.9045 61.3535 22.4134 61.8466L22.8511 61.3915L22.7493 60.7666L13.6802 62.2724C13.3342 62.3302 13.1 62.6565 13.1611 63.0018C13.2221 63.3467 13.5479 63.58 13.8939 63.5226" fill="#3330E8"/>
<path d="M13.4152 115.74C17.0998 119.148 22.3723 121.343 28.0723 121.669C28.4184 121.689 28.7238 121.422 28.7441 121.072C28.7645 120.722 28.4998 120.423 28.1436 120.403C22.7286 120.097 17.7207 117.995 14.2804 114.811C14.0259 114.572 13.6188 114.587 13.3847 114.843C13.1404 115.1 13.1607 115.501 13.4152 115.74Z" fill="#00D880"/>
<path d="M44.0931 93.2346C44.0931 92.9209 44.0931 92.6152 44.0931 92.3182C44.0829 88.862 44.1542 86.4652 44.7955 85.1282C45.111 84.4577 45.5181 84.0348 46.1797 83.7183C46.8515 83.4059 47.8083 83.2316 49.1519 83.2328C49.5081 83.2328 49.7931 82.9492 49.7931 82.5991C49.7931 82.2491 49.5081 81.9655 49.1519 81.9655C47.7065 81.9666 46.5665 82.1421 45.6403 82.5703C44.9481 82.8898 44.3985 83.3646 43.9913 83.9627C43.3908 84.8633 43.116 85.9916 42.9735 87.3614C42.831 88.7344 42.831 90.3685 42.8208 92.3182C42.8208 92.6163 42.8208 92.9217 42.8309 93.2346C42.8309 93.5847 43.1058 93.8682 43.462 93.8682C43.8183 93.8682 44.1033 93.5847 44.1033 93.2346" fill="#00D880"/>
<path d="M54.9028 89.6849C54.9028 86.8371 54.974 84.491 55.5746 82.9932C55.8799 82.2415 56.2871 81.7096 56.8876 81.3358C57.478 80.964 58.3024 80.7398 59.4729 80.7394C59.7986 80.7394 60.0634 80.4737 60.0634 80.1457C60.0634 79.8178 59.7986 79.5517 59.4729 79.5517C58.1497 79.5513 57.0912 79.806 56.2464 80.3299C55.6255 80.7211 55.1369 81.2598 54.7807 81.8914C54.2514 82.8411 53.9969 83.9881 53.8646 85.2942C53.7221 86.601 53.7119 88.0743 53.7119 89.6849C53.7119 90.0133 53.9766 90.2791 54.3125 90.2791C54.6382 90.2791 54.9028 90.0133 54.9028 89.6849" fill="#00D880"/>
<path d="M52.6025 117.932C52.3989 118.265 51.7679 118.711 50.8722 119.09C49.5286 119.671 47.6049 120.155 45.5692 120.482C43.5436 120.812 41.396 120.99 39.5842 120.989C39.2381 120.989 38.9531 121.273 38.9531 121.623C38.9531 121.973 39.2381 122.257 39.5842 122.257C42.1085 122.257 45.1824 121.931 47.8288 121.342C49.152 121.046 50.3734 120.686 51.3811 120.254C52.3786 119.815 53.1827 119.332 53.6611 118.64C53.8545 118.35 53.7832 117.956 53.4881 117.76C53.2031 117.564 52.8061 117.641 52.6128 117.932" fill="#00D880"/>
<path d="M24.2962 93.8845C33.5281 94.9831 40.1137 98.2313 42.129 99.4876C42.4344 99.6733 42.8211 99.583 43.0043 99.286C43.1977 98.9889 43.1061 98.5984 42.8008 98.4127C40.6124 97.0531 33.9149 93.7593 24.4387 92.6263C24.0926 92.5847 23.7771 92.8326 23.7364 93.1803C23.6956 93.5277 23.9399 93.8429 24.2962 93.8845" fill="#00D880"/>
<path d="M27.1665 80.9145C27.3701 83.3687 28.5915 85.1373 30.2201 86.2081C31.8589 87.2862 33.864 87.7191 35.7776 87.7206C37.1415 87.7202 38.4545 87.5008 39.564 87.106C39.7065 87.0557 39.8184 86.9591 39.8999 86.8303C39.9304 86.7725 40.6429 85.5686 40.6429 83.7618C40.6429 82.7021 40.3885 81.4356 39.6047 80.1315C39.4215 79.8313 39.0347 79.733 38.7293 79.9129C38.4342 80.0922 38.3324 80.4811 38.5156 80.7817C39.1671 81.8827 39.3706 82.8998 39.3706 83.7618C39.3706 84.4941 39.2281 85.1139 39.0754 85.5448C39.0042 85.7602 38.9329 85.9282 38.882 86.0386L38.821 86.1599L38.8006 86.186V86.1871L39.3503 86.5087L39.1365 85.9119C38.1797 86.2521 36.999 86.4541 35.7776 86.4533C34.0574 86.4553 32.2762 86.0506 30.9326 85.1527C29.5789 84.2482 28.622 82.9033 28.4286 80.8043C28.3981 80.4558 28.0928 80.198 27.7365 80.2285C27.3904 80.2586 27.136 80.5659 27.1665 80.9145" fill="#00D880"/>
<path d="M25.1105 80.2115C25.1105 80.2115 25.0392 80.1485 24.9069 80.0261C24.4387 79.5976 23.2478 78.4653 22.0366 77.0717C20.8151 75.682 19.5836 74.0143 19.0237 72.6025C18.8914 72.2769 18.5249 72.1182 18.1992 72.2468C17.8735 72.376 17.7107 72.7443 17.843 73.0694C18.5962 74.9684 20.1942 76.9505 21.609 78.5037C23.0239 80.0511 24.2453 81.1457 24.2555 81.1553C24.5201 81.3888 24.9171 81.367 25.1513 81.1061C25.3854 80.8459 25.365 80.4452 25.1105 80.2115" fill="#00D880"/>
<path d="M33.7924 80.4059L33.7415 80.3401C33.4871 80.0007 32.2962 78.373 31.0544 76.118C29.8025 73.8646 28.52 70.9787 28.0518 68.1613C28.0009 67.816 27.665 67.5827 27.3189 67.6398C26.9728 67.6967 26.7387 68.0227 26.7997 68.3681C27.3392 71.6147 28.8355 74.7961 30.1893 77.1845C31.543 79.5714 32.7644 81.1603 32.7848 81.1765C32.9985 81.4546 33.3954 81.5072 33.6702 81.2946C33.9552 81.0819 34.0062 80.6839 33.7924 80.4059Z" fill="#00D880"/>
</svg>
