<svg width="33" height="33" viewBox="0 0 33 33" fill="none" xmlns="http://www.w3.org/2000/svg">
<g clip-path="url(#clip0_649_2827)">
<path d="M23.3455 32.6317H9.28816C6.82596 32.6279 4.4657 31.6481 2.72466 29.907C0.983622 28.166 0.00382712 25.8057 0 23.3435V9.28621C0.00382712 6.82401 0.983622 4.46376 2.72466 2.72272C4.4657 0.981682 6.82596 0.00187399 9.28816 -0.00195312H23.3455C25.8073 0.00242052 28.1671 0.98246 29.9076 2.72344C31.6482 4.46442 32.6278 6.82437 32.6316 9.28621V23.3435C32.6278 25.8054 31.6482 28.1653 29.9076 29.9063C28.1671 31.6473 25.8073 32.6273 23.3455 32.6317ZM9.28816 2.79711C7.56727 2.7993 5.91748 3.48389 4.70063 4.70074C3.48377 5.9176 2.79917 7.56739 2.79699 9.28828V23.3456C2.79863 25.0667 3.48305 26.7168 4.70002 27.9337C5.917 29.1507 7.5671 29.8351 9.28816 29.8368H23.3455C25.0662 29.8346 26.7158 29.1499 27.9323 27.933C29.1488 26.7161 29.8329 25.0663 29.8346 23.3456V9.28828C29.8329 7.56758 29.1488 5.91779 27.9323 4.70087C26.7158 3.48395 25.0662 2.7993 23.3455 2.79711H9.28816Z" fill="white"/>
<path d="M16.3169 24.6665C14.6641 24.6669 13.0483 24.1771 11.6739 23.2591C10.2994 22.3412 9.22812 21.0362 8.59543 19.5093C7.96274 17.9824 7.7971 16.3021 8.11944 14.681C8.44179 13.06 9.23765 11.5709 10.4064 10.4022C11.5751 9.23349 13.0641 8.43764 14.6852 8.11529C16.3062 7.79295 17.9865 7.9586 19.5134 8.59129C21.0403 9.22398 22.3453 10.2953 23.2633 11.6697C24.1813 13.0441 24.6711 14.6599 24.6706 16.3127C24.6679 18.5275 23.7869 20.6507 22.2209 22.2167C20.6548 23.7828 18.5316 24.6638 16.3169 24.6665ZM16.3169 10.7539C15.2174 10.7535 14.1424 11.0792 13.228 11.6897C12.3136 12.3003 11.6008 13.1683 11.1797 14.184C10.7587 15.1997 10.6483 16.3175 10.8625 17.3959C11.0768 18.4744 11.6061 19.4651 12.3834 20.2427C13.1607 21.0203 14.1512 21.55 15.2296 21.7646C16.308 21.9793 17.4258 21.8693 18.4416 21.4486C19.4575 21.028 20.3258 20.3155 20.9367 19.4013C21.5476 18.4871 21.8737 17.4123 21.8737 16.3127C21.8709 14.84 21.2845 13.4284 20.243 12.3873C19.2014 11.3461 17.7896 10.7602 16.3169 10.758V10.7539Z" fill="white"/>
<path d="M27.0378 7.4835C27.0378 7.881 26.9199 8.26958 26.699 8.60006C26.4781 8.93054 26.1642 9.18809 25.7969 9.34011C25.4296 9.49214 25.0255 9.5318 24.6356 9.4541C24.2458 9.3764 23.8878 9.18482 23.6068 8.9036C23.3259 8.62238 23.1347 8.26415 23.0574 7.87424C22.9801 7.48432 23.0202 7.08024 23.1726 6.71311C23.325 6.34598 23.5829 6.03231 23.9136 5.81177C24.2443 5.59122 24.633 5.47371 25.0305 5.47412C25.2943 5.47412 25.5554 5.52612 25.7991 5.62712C26.0428 5.72813 26.2642 5.87617 26.4506 6.06278C26.637 6.24939 26.7848 6.47093 26.8856 6.7147C26.9863 6.95848 27.0381 7.21972 27.0378 7.4835Z" fill="white"/>
</g>
<defs>
<clipPath id="clip0_649_2827">
<rect width="32.6316" height="32.6316" fill="white"/>
</clipPath>
</defs>
</svg>
