<?xml version="1.0" encoding="UTF-8"?><svg id="Capa_2" xmlns="http://www.w3.org/2000/svg" viewBox="0 0 319.22 314.89"><defs><style>.cls-1{fill:#fff;}</style></defs><g id="Capa_1-2"><g><path class="cls-1" d="M178.06,62.65c-5.97-1.18-12.14-1.81-18.45-1.81s-11.9,.59-17.61,1.66c-43.75,8.25-76.84,46.64-76.84,92.79,0,39.09,23.75,72.63,57.6,86.99l9.68-31.42c-20.53-10.06-34.67-31.16-34.67-55.57,0-31.47,23.51-57.44,53.93-61.33,2.6-.33,5.24-.52,7.92-.52,2.98,0,5.91,.22,8.78,.63,30,4.26,53.07,30.04,53.07,61.22,0,24.1-13.79,44.96-33.9,55.17l9.69,31.46c33.43-14.54,56.82-47.85,56.82-86.64,0-45.85-32.67-84.06-76-92.64Z"/><circle class="cls-1" cx="159.61" cy="155.28" r="29.32"/><path class="cls-1" d="M197.29,.19l-9.61,31.23c56.64,12.78,98.95,63.37,98.95,123.87,0,70.15-56.87,127.02-127.02,127.02s-127.02-56.87-127.02-127.02c0-60.8,42.72-111.59,99.78-124.06L122.76,0C52.38,16.64,0,79.83,0,155.28c0,88.15,71.46,159.61,159.61,159.61s159.61-71.46,159.61-159.61C319.22,80.12,267.25,17.13,197.29,.19Z"/></g></g></svg>