<svg width="58" height="93" viewBox="0 0 58 93" fill="none" xmlns="http://www.w3.org/2000/svg">
<path d="M27.7774 50.8755H3.86908C3.6077 50.8755 3.35701 50.7714 3.17219 50.5861C2.98737 50.4007 2.88354 50.1494 2.88354 49.8873V34.277C2.88354 30.8358 4.24682 27.5356 6.67348 25.1023C9.10014 22.669 12.3914 21.302 15.8232 21.302C19.255 21.302 22.5463 22.669 24.973 25.1023C27.3996 27.5356 28.7629 30.8358 28.7629 34.277V49.8873C28.7629 50.0171 28.7374 50.1456 28.6879 50.2655C28.6384 50.3854 28.5658 50.4943 28.4742 50.5861C28.3827 50.6778 28.2741 50.7506 28.1545 50.8003C28.0349 50.8499 27.9068 50.8755 27.7774 50.8755ZM4.8181 48.899H26.7188V34.2587C26.7188 31.3466 25.5651 28.5537 23.5115 26.4945C21.4579 24.4353 18.6727 23.2785 15.7685 23.2785C12.8643 23.2785 10.079 24.4353 8.0254 26.4945C5.97181 28.5537 4.8181 31.3466 4.8181 34.2587V48.899Z" fill="#3330E8"/>
<path d="M15.7685 41.9081C14.2633 41.9081 12.7918 41.4605 11.5403 40.622C10.2888 39.7834 9.3133 38.5916 8.73728 37.1972C8.16126 35.8027 8.01054 34.2683 8.3042 32.788C8.59785 31.3077 9.32267 29.9479 10.387 28.8807C11.4514 27.8134 12.8074 27.0866 14.2837 26.7921C15.76 26.4977 17.2902 26.6488 18.6809 27.2264C20.0715 27.804 21.2601 28.7821 22.0964 30.0371C22.9326 31.292 23.379 32.7675 23.379 34.2768C23.379 36.3007 22.5772 38.2418 21.1499 39.6729C19.7227 41.1041 17.7869 41.9081 15.7685 41.9081ZM15.7685 28.622C14.6531 28.622 13.5628 28.9536 12.6354 29.575C11.708 30.1963 10.9851 31.0795 10.5583 32.1128C10.1315 33.1461 10.0198 34.2831 10.2374 35.38C10.455 36.4769 10.9921 37.4845 11.7808 38.2754C12.5695 39.0662 13.5743 39.6048 14.6683 39.823C15.7622 40.0412 16.8961 39.9292 17.9266 39.5012C18.9571 39.0732 19.8378 38.3484 20.4575 37.4185C21.0772 36.4885 21.4079 35.3952 21.4079 34.2768C21.4079 33.5342 21.262 32.7989 20.9786 32.1128C20.6952 31.4267 20.2798 30.8033 19.7562 30.2782C19.2325 29.7531 18.6108 29.3366 17.9266 29.0524C17.2424 28.7682 16.509 28.622 15.7685 28.622Z" fill="#00D880"/>
<path d="M29.6756 56.5304H1.97115C1.71077 56.5305 1.45295 56.4787 1.21261 56.3783C0.972272 56.2778 0.754174 56.1306 0.570903 55.9451C0.387632 55.7596 0.242829 55.5396 0.144853 55.2977C0.0468781 55.0558 -0.00232649 54.7968 8.45001e-05 54.5357V50.8756C8.45001e-05 50.3514 0.207745 49.8487 0.577392 49.4781C0.947038 49.1074 1.44839 48.8992 1.97115 48.8992H29.6756C30.1983 48.8992 30.6997 49.1074 31.0693 49.4781C31.439 49.8487 31.6466 50.3514 31.6466 50.8756V54.5357C31.649 54.7968 31.5998 55.0558 31.5019 55.2977C31.4039 55.5396 31.2591 55.7596 31.0758 55.9451C30.8925 56.1306 30.6744 56.2778 30.4341 56.3783C30.1938 56.4787 29.936 56.5305 29.6756 56.5304ZM1.97115 50.8756V54.5357H29.6756V50.8756H1.97115Z" fill="#3330E8"/>
<path d="M21.4992 92.326C21.2885 92.3209 21.0845 92.2506 20.9152 92.1248L9.56331 83.8163C9.43646 83.7247 9.33368 83.6035 9.26375 83.4633C9.19382 83.323 9.15883 83.1679 9.16179 83.0111V72.8361C9.16179 72.7063 9.18729 72.5778 9.23682 72.4579C9.28635 72.338 9.35894 72.2291 9.45046 72.1373C9.54197 72.0455 9.65061 71.9727 9.77018 71.9231C9.88975 71.8734 10.0179 71.8478 10.1473 71.8478H13.5237V70.4936H10.1473C9.88595 70.4936 9.63528 70.3895 9.45046 70.2042C9.26563 70.0188 9.16179 69.7675 9.16179 69.5054V64.7839C9.16179 64.5218 9.26563 64.2705 9.45046 64.0851C9.63528 63.8998 9.88595 63.7957 10.1473 63.7957H13.5237V62.7892H10.1473C10.0179 62.7892 9.88975 62.7636 9.77018 62.7139C9.65061 62.6643 9.54197 62.5915 9.45046 62.4997C9.35894 62.4079 9.28635 62.299 9.23682 62.1791C9.18729 62.0592 9.16179 61.9307 9.16179 61.8009V55.5605C9.16179 55.2984 9.26563 55.047 9.45046 54.8617C9.63528 54.6764 9.88595 54.5723 10.1473 54.5723H21.4992C21.7606 54.5723 22.0113 54.6764 22.1961 54.8617C22.3809 55.047 22.4847 55.2984 22.4847 55.5605V66.6322C22.48 66.8911 22.374 67.1378 22.1897 67.3192C22.0054 67.5006 21.7575 67.6022 21.4992 67.6022H20.4772V80.5406H21.4992C21.7575 80.5405 22.0054 80.6421 22.1897 80.8235C22.374 81.0049 22.48 81.2516 22.4847 81.5105V91.3561C22.4852 91.5371 22.4361 91.7147 22.3427 91.8696C22.2494 92.0245 22.1155 92.1508 21.9555 92.2346C21.8122 92.2992 21.6562 92.3305 21.4992 92.326ZM11.1329 82.5536L20.5137 89.398V82.4804H19.4186C19.1573 82.4804 18.9066 82.3763 18.7218 82.191C18.5369 82.0057 18.4331 81.7543 18.4331 81.4922V66.614C18.4331 66.3519 18.5369 66.1005 18.7218 65.9152C18.9066 65.7298 19.1573 65.6257 19.4186 65.6257H20.4407V56.4755H11.0599V60.7395H14.4362C14.6976 60.7395 14.9483 60.8436 15.1331 61.0289C15.3179 61.2143 15.4218 61.4656 15.4218 61.7277V64.7107C15.4218 64.9728 15.3179 65.2241 15.1331 65.4095C14.9483 65.5948 14.6976 65.6989 14.4362 65.6989H11.0599V68.444H14.4362C14.6976 68.444 14.9483 68.5481 15.1331 68.7334C15.3179 68.9187 15.4218 69.1701 15.4218 69.4322V72.8361C15.4218 73.0982 15.3179 73.3495 15.1331 73.5349C14.9483 73.7202 14.6976 73.8243 14.4362 73.8243H11.0599L11.1329 82.5536Z" fill="#00D880"/>
<path d="M56.1572 88.4644C56.0607 88.4819 55.9618 88.4819 55.8652 88.4644L42.4145 84.4749C42.2641 84.4299 42.1263 84.3502 42.0122 84.2422C41.8981 84.1341 41.8109 84.0007 41.7575 83.8527L38.3446 74.2084C38.3013 74.0858 38.2825 73.9559 38.2893 73.826C38.2961 73.6962 38.3284 73.569 38.3844 73.4517C38.4403 73.3344 38.5188 73.2293 38.6153 73.1425C38.7119 73.0556 38.8245 72.9887 38.9469 72.9456L42.1407 71.811L41.6845 70.53L38.4906 71.6646C38.3684 71.7081 38.2388 71.7269 38.1093 71.7201C37.9798 71.7133 37.853 71.6809 37.736 71.6248C37.619 71.5687 37.5142 71.49 37.4276 71.3932C37.341 71.2964 37.2743 71.1834 37.2313 71.0607L35.6618 66.6137C35.6187 66.4924 35.6002 66.3637 35.6072 66.2352C35.6143 66.1066 35.6468 65.9807 35.7028 65.8649C35.7589 65.7491 35.8374 65.6456 35.9337 65.5605C36.0301 65.4754 36.1424 65.4104 36.2641 65.3693L39.4579 64.2346L39.1112 63.2647L35.9356 64.3994C35.6901 64.5011 35.4145 64.5011 35.169 64.3994C35.0508 64.3463 34.9455 64.268 34.8604 64.17C34.7753 64.0721 34.7125 63.9567 34.6763 63.832L32.5957 57.9576C32.5498 57.8352 32.529 57.7048 32.5346 57.5742C32.5402 57.4436 32.5721 57.3154 32.6284 57.1975C32.6846 57.0795 32.7641 56.9742 32.862 56.8879C32.9598 56.8015 33.0741 56.7358 33.198 56.6949L43.8928 52.8884C44.015 52.8449 44.1446 52.8261 44.2741 52.8329C44.4036 52.8398 44.5305 52.8721 44.6475 52.9282C44.7644 52.9843 44.8692 53.0631 44.9558 53.1598C45.0424 53.2566 45.1091 53.3696 45.1521 53.4923L48.8022 63.9236C48.8456 64.0461 48.8644 64.176 48.8576 64.3059C48.8507 64.4357 48.8184 64.5629 48.7625 64.6802C48.7065 64.7975 48.628 64.9026 48.5315 64.9895C48.435 65.0763 48.3223 65.1432 48.1999 65.1863L47.2509 65.534L51.5398 77.7038L52.5071 77.3561C52.7541 77.2732 53.0236 77.2899 53.2586 77.4026C53.4936 77.5153 53.6756 77.7151 53.7664 77.9599L57.0515 87.2383C57.1041 87.3875 57.1202 87.5472 57.0985 87.7039C57.0767 87.8606 57.0178 88.0098 56.9265 88.1389C56.8353 88.268 56.7145 88.3733 56.5743 88.4459C56.4341 88.5185 56.2785 88.5562 56.1207 88.5559L56.1572 88.4644ZM43.3818 82.6632L54.4964 85.9755L52.2698 79.4606L51.3208 79.8083C51.1986 79.8518 51.069 79.8706 50.9395 79.8638C50.81 79.8569 50.6831 79.8245 50.5662 79.7684C50.4492 79.7123 50.3444 79.6336 50.2578 79.5368C50.1712 79.44 50.1045 79.3271 50.0615 79.2044L45.0973 65.168C45.054 65.0454 45.0352 64.9155 45.042 64.7856C45.0489 64.6558 45.0812 64.5286 45.1371 64.4113C45.1931 64.294 45.2715 64.1889 45.3681 64.102C45.4646 64.0152 45.5773 63.9483 45.6996 63.9052L46.6486 63.5575L43.6191 54.9929L34.7675 58.1955L36.1911 62.2216L39.3849 61.087C39.5034 61.0371 39.6306 61.0115 39.759 61.0115C39.8875 61.0115 40.0147 61.0371 40.1332 61.087C40.3678 61.197 40.5509 61.3937 40.6442 61.636L41.6297 64.4543C41.6731 64.5768 41.6919 64.7067 41.6851 64.8366C41.6782 64.9664 41.6459 65.0937 41.59 65.211C41.534 65.3283 41.4555 65.4334 41.359 65.5202C41.2625 65.607 41.1498 65.6739 41.0275 65.717L37.8519 66.8516L38.7644 69.432L41.94 68.2973C42.1858 68.1976 42.4607 68.1976 42.7065 68.2973C42.8222 68.3495 42.9258 68.4252 43.0106 68.5198C43.0954 68.6143 43.1597 68.7255 43.1993 68.8464L44.3126 71.994C44.3559 72.1166 44.3747 72.2465 44.3679 72.3764C44.3611 72.5062 44.3288 72.6334 44.2728 72.7507C44.2169 72.868 44.1384 72.9731 44.0418 73.06C43.9453 73.1468 43.8327 73.2137 43.7103 73.2568L40.5347 74.3914L43.3818 82.6632Z" fill="#00D880"/>
<path d="M28.6535 37.0772H27.741C27.478 37.0629 27.231 36.9456 27.0535 36.7505C26.8759 36.5553 26.782 36.298 26.792 36.034C26.799 35.9042 26.8314 35.777 26.8876 35.6598C26.9437 35.5425 27.0223 35.4376 27.1189 35.3509C27.2156 35.2642 27.3283 35.1974 27.4507 35.1545C27.5731 35.1116 27.7028 35.0933 27.8323 35.1007H28.6535C33.001 35.0719 37.1623 33.3274 40.2364 30.2448C43.3106 27.1622 45.0504 22.9897 45.0791 18.6303C45.0791 18.3682 45.1829 18.1169 45.3677 17.9316C45.5526 17.7462 45.8032 17.6421 46.0646 17.6421C46.326 17.6421 46.5767 17.7462 46.7615 17.9316C46.9463 18.1169 47.0502 18.3682 47.0502 18.6303C47.0167 23.5124 45.0677 28.1849 41.6249 31.6371C38.1821 35.0893 33.5223 37.0436 28.6535 37.0772Z" fill="#3330E8"/>
<path d="M30.6247 2.08639H30.5152C29.9094 2.01475 29.3001 1.97809 28.6901 1.97659C28.4287 1.97659 28.1781 1.87248 27.9933 1.68716C27.8084 1.50183 27.7046 1.25047 27.7046 0.98838C27.7046 0.726287 27.8084 0.474932 27.9933 0.289604C28.1781 0.104276 28.4287 0.000141412 28.6901 0.000141412C29.3857 -0.00279528 30.0807 0.0400109 30.7707 0.128258C31.007 0.171436 31.2195 0.299678 31.3682 0.488899C31.5169 0.678121 31.5915 0.915272 31.578 1.15579C31.5646 1.3963 31.464 1.6236 31.2951 1.79497C31.1263 1.96634 30.9009 2.06998 30.6612 2.08639H30.6247Z" fill="#3330E8"/>
<path d="M42.5787 8.89434C42.427 8.89648 42.2769 8.86281 42.1406 8.79605C42.0043 8.72929 41.8855 8.63133 41.7939 8.51005C40.8944 7.32322 39.8384 6.26432 38.6548 5.36237C38.4467 5.2022 38.3105 4.96567 38.2763 4.70484C38.2421 4.44401 38.3126 4.18023 38.4723 3.97152C38.632 3.76282 38.8679 3.6263 39.128 3.59198C39.3881 3.55766 39.6512 3.62837 39.8593 3.78853C41.1778 4.80554 42.3561 5.99318 43.3635 7.3205C43.4416 7.42329 43.4984 7.54069 43.5307 7.66581C43.5629 7.79094 43.5699 7.92127 43.5512 8.04913C43.5325 8.17699 43.4884 8.29984 43.4217 8.41041C43.355 8.52099 43.267 8.61707 43.1627 8.69304C42.9989 8.829 42.7913 8.90055 42.5787 8.89434Z" fill="#3330E8"/>
<path d="M46.1557 19.5269C45.8943 19.5269 45.6437 19.4228 45.4588 19.2375C45.274 19.0522 45.1702 18.8008 45.1702 18.5387C45.1687 17.9271 45.1321 17.3161 45.0607 16.7087C45.0351 16.4492 45.1129 16.1902 45.2769 15.9879C45.441 15.7857 45.6782 15.6567 45.9367 15.6289C46.0639 15.6137 46.1928 15.6239 46.316 15.659C46.4392 15.6941 46.5542 15.7533 46.6544 15.8334C46.7545 15.9134 46.8379 16.0125 46.8995 16.1251C46.9612 16.2376 46.9999 16.3614 47.0135 16.4891C47.0924 17.1818 47.135 17.8781 47.1412 18.5753C47.1318 18.831 47.0238 19.0731 46.84 19.2506C46.6562 19.428 46.4109 19.5271 46.1557 19.5269Z" fill="#3330E8"/>
<path d="M22.4117 35.924C22.2975 35.95 22.179 35.95 22.0649 35.924C18.0325 34.3755 14.6677 31.4605 12.5545 27.6846C10.4412 23.9088 9.71259 19.5103 10.4951 15.2522C11.2777 10.994 13.522 7.14486 16.8387 4.37237C20.1554 1.59988 24.3353 0.0789849 28.6534 0.0734863C28.9148 0.0734863 29.1654 0.177593 29.3503 0.362921C29.5351 0.548249 29.6389 0.799604 29.6389 1.0617C29.6389 1.32379 29.5351 1.57515 29.3503 1.76047C29.1654 1.9458 28.9148 2.04994 28.6534 2.04994C24.7876 2.04314 21.042 3.39619 18.0687 5.87349C15.0954 8.35079 13.0829 11.7954 12.3817 15.6074C11.6804 19.4194 12.3348 23.3572 14.2309 26.7352C16.127 30.1132 19.1447 32.7173 22.7584 34.094C22.9343 34.197 23.074 34.352 23.1584 34.5379C23.2428 34.7237 23.2677 34.9312 23.2297 35.1318C23.1916 35.3324 23.0926 35.5163 22.9461 35.6582C22.7996 35.8 22.6129 35.8929 22.4117 35.924Z" fill="#3330E8"/>
<path d="M44.0022 35.2652C43.7988 35.2629 43.6008 35.1987 43.4346 35.081C43.2684 34.9634 43.1417 34.7978 43.0715 34.6064L42.1224 31.9162C41.6438 30.5534 40.9016 29.2987 39.9385 28.2241C38.9754 27.1495 37.8102 26.276 36.5098 25.6538C35.2094 25.0315 33.7992 24.6728 32.3603 24.598C30.9213 24.5233 29.4818 24.734 28.1242 25.2182L27.7044 25.4012H27.5219C27.4021 25.4517 27.2735 25.478 27.1436 25.4786C27.0136 25.4793 26.8848 25.4543 26.7644 25.405C26.6441 25.3557 26.5346 25.2831 26.4423 25.1914C26.3499 25.0997 26.2765 24.9907 26.2261 24.8705C26.1758 24.7503 26.1496 24.6214 26.1489 24.4911C26.1483 24.3608 26.1733 24.2316 26.2224 24.1109C26.2715 23.9903 26.3439 23.8805 26.4354 23.7879C26.5268 23.6953 26.6356 23.6217 26.7554 23.5712H26.9197C27.0893 23.4825 27.2664 23.409 27.4489 23.3516C29.0487 22.7724 30.7478 22.5194 32.4464 22.6074C34.145 22.6954 35.809 23.1226 37.3408 23.864C40.434 25.3264 42.8229 27.9588 43.984 31.1842L44.933 33.8743C44.9764 33.9969 44.9952 34.1268 44.9883 34.2567C44.9815 34.3865 44.9492 34.5137 44.8933 34.631C44.8373 34.7483 44.7588 34.8534 44.6623 34.9403C44.5658 35.0271 44.4531 35.094 44.3307 35.1371C44.2293 35.1982 44.1182 35.2415 44.0022 35.2652Z" fill="#3330E8"/>
<path d="M47.2872 44.5251C47.0819 44.5311 46.8801 44.4701 46.7123 44.3513C46.5445 44.2325 46.4196 44.0623 46.3565 43.8663L45.6994 42.0362C45.6272 41.911 45.5834 41.7714 45.5708 41.6273C45.5583 41.4833 45.5775 41.3382 45.6271 41.2023C45.6766 41.0665 45.7553 40.9432 45.8575 40.8412C45.9598 40.7391 46.0831 40.6609 46.2188 40.6119C46.3546 40.5629 46.4994 40.5444 46.643 40.5576C46.7866 40.5709 46.9256 40.6156 47.0501 40.6886C47.1747 40.7616 47.2817 40.8612 47.3636 40.9802C47.4456 41.0992 47.5005 41.2348 47.5245 41.3774L48.1815 43.2075C48.27 43.4526 48.2582 43.7229 48.1488 43.9594C48.0394 44.196 47.8413 44.3795 47.5975 44.4702C47.4975 44.5042 47.3928 44.5227 47.2872 44.5251Z" fill="#3330E8"/>
<path d="M44.6593 37.1135C44.4546 37.1166 44.2542 37.0545 44.0869 36.9361C43.9197 36.8177 43.7942 36.6491 43.7285 36.4547L43.0715 34.6246C42.9993 34.4994 42.9554 34.3598 42.9429 34.2157C42.9304 34.0716 42.9496 33.9265 42.9992 33.7907C43.0487 33.6548 43.1274 33.5316 43.2296 33.4295C43.3319 33.3275 43.4552 33.2493 43.5909 33.2003C43.7267 33.1513 43.8714 33.1327 44.0151 33.146C44.1587 33.1593 44.2977 33.204 44.4222 33.277C44.5468 33.35 44.6538 33.4495 44.7357 33.5686C44.8177 33.6876 44.8726 33.8232 44.8966 33.9658L45.5536 35.7959C45.5969 35.9184 45.6157 36.0483 45.6089 36.1782C45.6021 36.308 45.5698 36.4353 45.5138 36.5526C45.4579 36.6699 45.3794 36.775 45.2829 36.8618C45.1863 36.9486 45.0737 37.0155 44.9513 37.0586C44.8571 37.0908 44.7588 37.1093 44.6593 37.1135Z" fill="#3330E8"/>
<path d="M33.6177 52.5042C33.4177 52.4703 33.2331 52.3753 33.0889 52.2322C32.9448 52.0892 32.8481 51.905 32.8122 51.7049C32.7763 51.5048 32.8028 51.2984 32.8882 51.1139C32.9735 50.9295 33.1135 50.7759 33.2891 50.6742L46.9954 45.7879L46.3566 43.9579C46.3182 43.7295 46.361 43.4948 46.4776 43.2948C46.5943 43.0948 46.7772 42.9423 46.9946 42.8638C47.212 42.7854 47.4499 42.786 47.6669 42.8655C47.8838 42.9451 48.066 43.0985 48.1817 43.2991L49.1672 46.0624C49.2105 46.185 49.2293 46.3149 49.2225 46.4448C49.2157 46.5746 49.1834 46.7018 49.1274 46.8192C49.0715 46.9365 48.993 47.0416 48.8965 47.1284C48.7999 47.2152 48.6873 47.2821 48.5649 47.3252L33.9644 52.5225C33.8491 52.5452 33.73 52.5389 33.6177 52.5042Z" fill="#3330E8"/>
<path d="M31.7741 43.226C31.3731 43.2532 30.9707 43.2532 30.5696 43.226C30.3136 43.1813 30.0856 43.0369 29.9352 42.8244C29.7848 42.6119 29.7242 42.3485 29.7666 42.0914C29.7842 41.9616 29.8279 41.8367 29.8949 41.7242C29.962 41.6118 30.0511 41.5141 30.1569 41.4372C30.2626 41.3602 30.3828 41.3055 30.5102 41.2764C30.6376 41.2473 30.7696 41.2444 30.8981 41.2679C32.0986 41.4609 33.3291 41.2585 34.4051 40.691C35.4811 40.1235 36.3446 39.2214 36.8661 38.1202C37.3427 37.1307 37.5204 36.0232 37.3775 34.9337C37.2346 33.8443 36.7773 32.8205 36.0617 31.9883C35.3462 31.1561 34.4036 30.5517 33.3501 30.2495C32.2965 29.9474 31.1778 29.9606 30.1316 30.2876C30.0036 30.3661 29.8594 30.4142 29.7101 30.4283C29.5607 30.4424 29.4101 30.4221 29.2697 30.369C29.1294 30.3159 29.0029 30.2314 28.9001 30.1219C28.7972 30.0124 28.7207 29.8807 28.6763 29.737C28.6319 29.5933 28.6207 29.4414 28.6438 29.2928C28.6668 29.1441 28.7234 29.0027 28.8092 28.8793C28.8949 28.7559 29.0077 28.6537 29.1388 28.5807C29.27 28.5076 29.416 28.4655 29.5658 28.4576C30.6149 28.1288 31.7226 28.0318 32.8126 28.1732C33.9026 28.3146 34.9492 28.6911 35.8803 29.2767C36.8114 29.8624 37.6049 30.6433 38.2063 31.5658C38.8077 32.4883 39.2027 33.5305 39.3641 34.6207C39.5255 35.7109 39.4495 36.8232 39.1413 37.8811C38.8332 38.939 38.3001 39.9174 37.5789 40.749C36.8576 41.5807 35.9653 42.2458 34.9633 42.6987C33.9612 43.1515 32.8732 43.3814 31.7741 43.3724V43.226Z" fill="#00D880"/>
<path d="M25.8063 61.2701C25.573 61.2712 25.3469 61.1893 25.1682 61.0389C24.9895 60.8886 24.8698 60.6795 24.8303 60.4489C24.7909 60.2183 24.8343 59.9812 24.9529 59.7797C25.0715 59.5782 25.2575 59.4255 25.4778 59.3486L51.5944 50.0703L50.3716 46.5932L33.9461 52.4311C33.8212 52.5034 33.682 52.5475 33.5383 52.56C33.3946 52.5725 33.2499 52.5533 33.1144 52.5036C32.9789 52.4539 32.856 52.375 32.7543 52.2725C32.6525 52.17 32.5745 52.0463 32.5256 51.9102C32.4767 51.7741 32.4583 51.6289 32.4715 51.4849C32.4847 51.3409 32.5293 51.2015 32.6021 51.0767C32.6749 50.9518 32.7742 50.8445 32.8929 50.7623C33.0116 50.6801 33.1468 50.6251 33.2891 50.601L49.7146 44.7632C49.9524 44.6544 50.2107 44.5981 50.472 44.5981C50.7334 44.5981 50.9916 44.6544 51.2294 44.7632C51.4618 44.8738 51.6701 45.0293 51.8424 45.2209C52.0146 45.4125 52.1475 45.6363 52.2332 45.8795L53.456 49.3566C53.5424 49.6004 53.5798 49.859 53.5659 50.1174C53.552 50.3758 53.4872 50.6289 53.3752 50.8621C53.2632 51.0952 53.1062 51.3038 52.9133 51.4757C52.7204 51.6476 52.4955 51.7795 52.2514 51.8637L26.1348 61.1603C26.0322 61.2151 25.9212 61.2522 25.8063 61.2701Z" fill="#3330E8"/>
</svg>
