<svg width="155" height="20" viewBox="0 0 155 20" fill="none" xmlns="http://www.w3.org/2000/svg">
<path d="M0 11.8065C0 10.1565 0.327042 8.71503 0.981127 7.48222C1.6539 6.24941 2.57896 5.30109 3.75631 4.63727C4.95235 3.97345 6.31659 3.64154 7.84902 3.64154C9.81127 3.64154 11.4465 4.16311 12.7546 5.20626C14.0815 6.24941 14.9505 7.7193 15.3616 9.61593H10.2598C9.82996 8.40209 8.99833 7.79516 7.76492 7.79516C6.88658 7.79516 6.18577 8.14604 5.6625 8.8478C5.13924 9.53058 4.8776 10.5168 4.8776 11.8065C4.8776 13.0963 5.13924 14.092 5.6625 14.7937C6.18577 15.4765 6.88658 15.8179 7.76492 15.8179C8.99833 15.8179 9.82996 15.211 10.2598 13.9972H15.3616C14.9505 15.8559 14.0815 17.3163 12.7546 18.3784C11.4278 19.4405 9.79258 19.9716 7.84902 19.9716C6.31659 19.9716 4.95235 19.6396 3.75631 18.9758C2.57896 18.312 1.6539 17.3637 0.981127 16.1309C0.327042 14.8981 0 13.4566 0 11.8065Z" fill="white"/>
<path d="M23.6443 19.9716C22.1119 19.9716 20.7289 19.6396 19.4955 18.9758C18.2808 18.312 17.3183 17.3637 16.6082 16.1309C15.9167 14.8981 15.571 13.4566 15.571 11.8065C15.571 10.1754 15.9261 8.74348 16.6362 7.51067C17.3464 6.25889 18.3182 5.30109 19.5516 4.63727C20.785 3.97345 22.1679 3.64154 23.7003 3.64154C25.2328 3.64154 26.6157 3.97345 27.8491 4.63727C29.0825 5.30109 30.0543 6.25889 30.7645 7.51067C31.4746 8.74348 31.8297 10.1754 31.8297 11.8065C31.8297 13.4376 31.4653 14.8791 30.7364 16.1309C30.0263 17.3637 29.0452 18.312 27.793 18.9758C26.5596 19.6396 25.1767 19.9716 23.6443 19.9716ZM23.6443 15.761C24.56 15.761 25.3356 15.4196 25.971 14.7368C26.625 14.0541 26.9521 13.0773 26.9521 11.8065C26.9521 10.5358 26.6344 9.55903 25.999 8.87624C25.3823 8.19346 24.6161 7.85206 23.7003 7.85206C22.7659 7.85206 21.9904 8.19346 21.3737 8.87624C20.757 9.54007 20.4486 10.5168 20.4486 11.8065C20.4486 13.0773 20.7476 14.0541 21.3456 14.7368C21.9623 15.4196 22.7286 15.761 23.6443 15.761Z" fill="white"/>
<path d="M42.5021 3.69844C44.3335 3.69844 45.7912 4.30536 46.8751 5.5192C47.9777 6.71408 48.529 8.36415 48.529 10.4694V19.744H43.7635V11.1238C43.7635 10.0616 43.4925 9.23661 42.9506 8.64865C42.4086 8.06069 41.6798 7.76671 40.7641 7.76671C39.8484 7.76671 39.1195 8.06069 38.5776 8.64865C38.0356 9.23661 37.7646 10.0616 37.7646 11.1238V19.744H32.9711V3.86913H37.7646V5.97439C38.2505 5.27264 38.9046 4.72262 39.7269 4.32432C40.5491 3.90706 41.4742 3.69844 42.5021 3.69844Z" fill="white"/>
<path d="M59.9893 3.69844C61.8208 3.69844 63.2784 4.30536 64.3624 5.5192C65.465 6.71408 66.0163 8.36415 66.0163 10.4694V19.744H61.2508V11.1238C61.2508 10.0616 60.9798 9.23661 60.4378 8.64865C59.8959 8.06069 59.1671 7.76671 58.2513 7.76671C57.3356 7.76671 56.6068 8.06069 56.0648 8.64865C55.5229 9.23661 55.2519 10.0616 55.2519 11.1238V19.744H50.4584V3.86913H55.2519V5.97439C55.7378 5.27264 56.3919 4.72262 57.2141 4.32432C58.0364 3.90706 58.9615 3.69844 59.9893 3.69844Z" fill="white"/>
<path d="M82.6906 11.5505C82.6906 12.0057 82.6626 12.4798 82.6065 12.973H71.758C71.8328 13.9592 72.1411 14.7179 72.6831 15.2489C73.2437 15.761 73.9259 16.0171 74.7294 16.0171C75.9255 16.0171 76.7571 15.505 77.2243 14.4808H82.3262C82.0645 15.5239 81.588 16.4628 80.8965 17.2973C80.2237 18.1318 79.3735 18.7862 78.3456 19.2603C77.3178 19.7345 76.1684 19.9716 74.8976 19.9716C73.3652 19.9716 72.001 19.6396 70.8049 18.9758C69.6089 18.312 68.6745 17.3637 68.0017 16.1309C67.3289 14.8981 66.9926 13.4566 66.9926 11.8065C66.9926 10.1565 67.3196 8.71503 67.9737 7.48222C68.6465 6.24941 69.5809 5.30109 70.7769 4.63727C71.9729 3.97345 73.3465 3.64154 74.8976 3.64154C76.4114 3.64154 77.7569 3.96396 78.9343 4.60882C80.1116 5.25367 81.0273 6.17354 81.6814 7.36842C82.3542 8.5633 82.6906 9.95733 82.6906 11.5505ZM77.785 10.2703C77.785 9.43575 77.5046 8.77193 76.944 8.27881C76.3833 7.78568 75.6825 7.53912 74.8416 7.53912C74.038 7.53912 73.3559 7.7762 72.7952 8.25035C72.2533 8.72451 71.9169 9.39782 71.7861 10.2703H77.785Z" fill="white"/>
<path d="M82.8647 11.8065C82.8647 10.1565 83.1917 8.71503 83.8458 7.48222C84.5186 6.24941 85.4437 5.30109 86.621 4.63727C87.817 3.97345 89.1813 3.64154 90.7137 3.64154C92.676 3.64154 94.3112 4.16311 95.6193 5.20626C96.9462 6.24941 97.8152 7.7193 98.2263 9.61593H93.1245C92.6946 8.40209 91.863 7.79516 90.6296 7.79516C89.7513 7.79516 89.0505 8.14604 88.5272 8.8478C88.0039 9.53058 87.7423 10.5168 87.7423 11.8065C87.7423 13.0963 88.0039 14.092 88.5272 14.7937C89.0505 15.4765 89.7513 15.8179 90.6296 15.8179C91.863 15.8179 92.6946 15.211 93.1245 13.9972H98.2263C97.8152 15.8559 96.9462 17.3163 95.6193 18.3784C94.2925 19.4405 92.6573 19.9716 90.7137 19.9716C89.1813 19.9716 87.817 19.6396 86.621 18.9758C85.4437 18.312 84.5186 17.3637 83.8458 16.1309C83.1917 14.8981 82.8647 13.4566 82.8647 11.8065Z" fill="white"/>
<path d="M108.107 15.6188V19.744H105.668C103.93 19.744 102.575 19.3172 101.603 18.4637C100.632 17.5913 100.146 16.1783 100.146 14.2248V7.90896H98.2395V3.86913H100.146V0H104.939V3.86913H108.079V7.90896H104.939V14.2816C104.939 14.7558 105.051 15.0972 105.276 15.3058C105.5 15.5145 105.874 15.6188 106.397 15.6188H108.107Z" fill="white"/>
<path d="M112.652 11.9203C112.652 10.3082 112.97 8.9047 113.605 7.70982C114.241 6.49597 115.119 5.55714 116.24 4.89331C117.38 4.22949 118.679 3.89758 120.137 3.89758C122.024 3.89758 123.575 4.36226 124.79 5.29161C126.024 6.22096 126.836 7.51067 127.229 9.16074H124.482C124.22 8.21242 123.706 7.46325 122.94 6.91323C122.192 6.36321 121.258 6.08819 120.137 6.08819C118.679 6.08819 117.502 6.60029 116.605 7.62447C115.708 8.62968 115.259 10.0616 115.259 11.9203C115.259 13.798 115.708 15.2489 116.605 16.2731C117.502 17.2973 118.679 17.8094 120.137 17.8094C121.258 17.8094 122.192 17.5439 122.94 17.0128C123.688 16.4817 124.201 15.7231 124.482 14.7368H127.229C126.818 16.33 125.996 17.6102 124.762 18.5775C123.529 19.5258 121.987 20 120.137 20C118.679 20 117.38 19.6681 116.24 19.0043C115.119 18.3404 114.241 17.4016 113.605 16.1878C112.97 14.9739 112.652 13.5514 112.652 11.9203Z" fill="white"/>
<path d="M128.278 11.8919C128.278 10.2987 128.596 8.9047 129.231 7.70982C129.866 6.49597 130.735 5.55714 131.838 4.89331C132.959 4.22949 134.202 3.89758 135.566 3.89758C136.912 3.89758 138.08 4.19156 139.07 4.77952C140.061 5.36747 140.799 6.10716 141.285 6.99858V4.15363H143.864V19.744H141.285V16.8421C140.78 17.7525 140.023 18.5111 139.014 19.1181C138.024 19.706 136.865 20 135.538 20C134.174 20 132.941 19.6586 131.838 18.9758C130.735 18.293 129.866 17.3352 129.231 16.1024C128.596 14.8696 128.278 13.4661 128.278 11.8919ZM141.285 11.9203C141.285 10.7444 141.051 9.72025 140.584 8.8478C140.117 7.97534 139.481 7.31152 138.678 6.85633C137.893 6.38217 137.024 6.14509 136.071 6.14509C135.118 6.14509 134.249 6.37269 133.464 6.82788C132.679 7.28307 132.053 7.94689 131.586 8.81935C131.119 9.6918 130.885 10.716 130.885 11.8919C130.885 13.0868 131.119 14.1299 131.586 15.0213C132.053 15.8938 132.679 16.5671 133.464 17.0413C134.249 17.4964 135.118 17.724 136.071 17.724C137.024 17.724 137.893 17.4964 138.678 17.0413C139.481 16.5671 140.117 15.8938 140.584 15.0213C141.051 14.1299 141.285 13.0963 141.285 11.9203Z" fill="white"/>
<path d="M149.324 6.68563C149.773 5.79422 150.408 5.10194 151.23 4.60882C152.071 4.11569 153.09 3.86913 154.286 3.86913V6.54339H153.613C150.754 6.54339 149.324 8.11759 149.324 11.266V19.744H146.773V4.15363H149.324V6.68563Z" fill="white"/>
</svg>
