<svg width="204" height="48" viewBox="0 0 204 48" fill="none" xmlns="http://www.w3.org/2000/svg">
<g clip-path="url(#clip0_1498_321)">
<path d="M71.2884 31.5285C66.9207 31.5285 63.6558 28.3001 63.6558 24.0081C63.6558 19.7161 66.9207 16.4661 71.2884 16.4661C75.0507 16.4661 77.9642 18.9441 78.548 22.5828H74.5425C74.0506 21.1144 72.8074 20.1588 71.2992 20.1588C69.2667 20.1588 67.7748 21.7892 67.7748 24.0135C67.7748 26.2377 69.2667 27.8358 71.2992 27.8358C72.8938 27.8358 74.1425 26.7992 74.5479 25.2066H78.5913C78.0453 28.9749 75.1155 31.5339 71.2884 31.5339V31.5285ZM87.3212 31.5285C82.7049 31.5285 79.4129 28.381 79.4129 23.9973C79.4129 19.6135 82.7049 16.4661 87.3212 16.4661C91.9376 16.4661 95.2025 19.6027 95.2025 23.9973C95.2025 28.3918 91.9214 31.5285 87.3212 31.5285ZM91.0889 23.9973C91.0889 21.7514 89.5051 20.1426 87.3212 20.1426C85.1374 20.1426 83.532 21.7676 83.532 23.9973C83.532 26.2269 85.1374 27.852 87.3212 27.852C89.5051 27.852 91.0889 26.2377 91.0889 23.9973ZM109.008 16.8278V31.1668H105.738L100.035 23.3872V31.1668H96.2026V16.8332H99.6621L105.176 24.3536V16.8332H109.008V16.8278ZM123.268 16.8278V31.1668H119.998L114.295 23.3872V31.1668H110.462V16.8332H113.922L119.436 24.3536V16.8332H123.268V16.8278ZM134.079 27.7386V31.1668H124.722V16.8332H133.906V20.2452H128.657V22.3561H133.371V25.5953H128.657V27.744H134.079V27.7386ZM142.004 31.5285C137.636 31.5285 134.371 28.3001 134.371 24.0081C134.371 19.7161 137.636 16.4661 142.004 16.4661C145.766 16.4661 148.68 18.9441 149.263 22.5828H145.258C144.766 21.1144 143.523 20.1588 142.015 20.1588C139.982 20.1588 138.49 21.7892 138.49 24.0135C138.49 26.2377 139.982 27.8358 142.015 27.8358C143.609 27.8358 144.858 26.7992 145.263 25.2066H149.307C148.761 28.9749 145.831 31.5339 142.009 31.5339L142.004 31.5285ZM161.264 20.3855H157.366V31.1668H153.393V20.3855H149.496V16.8278H161.269V20.3855H161.264ZM164.394 24.0027C164.394 19.7161 167.523 16.574 171.772 16.574C175.167 16.574 177.891 18.6849 178.643 21.9134H176.259C175.572 20.0022 173.896 18.8469 171.772 18.8469C168.896 18.8469 166.788 21.0064 166.788 23.9973C166.788 26.9882 168.896 29.1369 171.772 29.1369C173.967 29.1369 175.659 27.9005 176.307 25.8652H178.697C177.951 29.234 175.226 31.4097 171.772 31.4097C167.523 31.4097 164.394 28.2677 164.394 23.9919V24.0027ZM188.319 28.0463H181.918L180.697 31.1668H178.194L183.962 16.8278H186.178L192.113 31.1668H189.556L188.313 28.0463H188.319ZM182.729 25.9408H187.497L185.097 19.8942L182.729 25.9408ZM198.276 25.8598H195.551V31.1668H193.194V16.8332H198.784C201.551 16.8332 203.605 18.7227 203.605 21.3681C203.605 23.3224 202.443 24.8827 200.686 25.5305L204 31.1668H201.357L198.27 25.8598H198.276ZM195.551 23.6572H198.643C200.205 23.6572 201.205 22.6908 201.205 21.3465C201.205 20.0022 200.2 19.0359 198.643 19.0359H195.551V23.6626V23.6572Z" fill="#131353"/>
<path d="M27.1792 9.55024C26.2656 9.37208 25.3251 9.2749 24.3629 9.2749C23.4007 9.2749 22.5466 9.36668 21.6763 9.52864C15.0005 10.7865 9.94629 16.6388 9.94629 23.6733C9.94629 29.6335 13.568 34.7461 18.7357 36.9325L20.2114 32.1439C17.0762 30.6106 14.9194 27.393 14.9194 23.6733C14.9194 18.8738 18.5087 14.9166 23.152 14.3227C23.5466 14.2741 23.9521 14.2417 24.3629 14.2417C24.817 14.2417 25.2656 14.2741 25.7035 14.3389C30.282 14.9867 33.8064 18.917 33.8064 23.6733C33.8064 27.3444 31.7036 30.5297 28.6333 32.0845L30.1144 36.8785C35.2172 34.6597 38.7849 29.5849 38.7849 23.6733C38.7849 16.6819 33.7956 10.8621 27.1846 9.55024H27.1792Z" fill="#00D880"/>
<path d="M24.363 28.1434C26.8349 28.1434 28.8388 26.1421 28.8388 23.6733C28.8388 21.2045 26.8349 19.2031 24.363 19.2031C21.8911 19.2031 19.8872 21.2045 19.8872 23.6733C19.8872 26.1421 21.8911 28.1434 24.363 28.1434Z" fill="#00D880"/>
<path d="M30.1143 0.0269936L28.6494 4.78866C37.2929 6.7376 43.7525 14.447 43.7525 23.668C43.7525 34.3628 35.0712 43.0278 24.3682 43.0278C13.6652 43.0278 4.9731 34.3628 4.9731 23.6734C4.9731 14.4038 11.4922 6.66202 20.2005 4.76167L18.7356 0C7.99481 2.5374 0 12.1687 0 23.6734C0 37.1108 10.9084 48.0054 24.3628 48.0054C37.8172 48.0054 48.7256 37.1108 48.7256 23.6734C48.7202 12.2119 40.7903 2.61298 30.1143 0.0269936Z" fill="#00D880"/>
</g>
<defs>
<clipPath id="clip0_1498_321">
<rect width="204" height="48" fill="white"/>
</clipPath>
</defs>
</svg>
