<svg width="49" height="48" viewBox="0 0 49 48" fill="none" xmlns="http://www.w3.org/2000/svg">
<path d="M27.1792 9.55024C26.2656 9.37208 25.3251 9.2749 24.3629 9.2749C23.4007 9.2749 22.5466 9.36668 21.6763 9.52864C15.0005 10.7865 9.94629 16.6388 9.94629 23.6733C9.94629 29.6335 13.568 34.7461 18.7357 36.9325L20.2114 32.1439C17.0762 30.6106 14.9194 27.393 14.9194 23.6733C14.9194 18.8738 18.5087 14.9166 23.152 14.3227C23.5466 14.2741 23.9521 14.2417 24.3629 14.2417C24.817 14.2417 25.2656 14.2741 25.7035 14.3389C30.282 14.9867 33.8064 18.917 33.8064 23.6733C33.8064 27.3444 31.7036 30.5297 28.6333 32.0845L30.1144 36.8785C35.2172 34.6597 38.7849 29.5849 38.7849 23.6733C38.7849 16.6819 33.7956 10.8621 27.1846 9.55024H27.1792Z" fill="#00D880"/>
<path d="M24.363 28.1434C26.8349 28.1434 28.8388 26.1421 28.8388 23.6733C28.8388 21.2045 26.8349 19.2031 24.363 19.2031C21.8911 19.2031 19.8872 21.2045 19.8872 23.6733C19.8872 26.1421 21.8911 28.1434 24.363 28.1434Z" fill="#00D880"/>
<path d="M30.1143 0.0269936L28.6494 4.78866C37.2929 6.7376 43.7525 14.447 43.7525 23.668C43.7525 34.3628 35.0712 43.0278 24.3682 43.0278C13.6652 43.0278 4.9731 34.3628 4.9731 23.6734C4.9731 14.4038 11.4922 6.66202 20.2005 4.76167L18.7356 0C7.99481 2.5374 0 12.1687 0 23.6734C0 37.1108 10.9084 48.0054 24.3628 48.0054C37.8172 48.0054 48.7256 37.1108 48.7256 23.6734C48.7202 12.2119 40.7903 2.61298 30.1143 0.0269936Z" fill="#00D880"/>
</svg>
