<svg width="190" height="21" viewBox="0 0 190 21" fill="none" xmlns="http://www.w3.org/2000/svg">
<path d="M10.2908 20.3327C4.4006 20.3327 0 15.9723 0 10.1824C0 4.39257 4.4006 0 10.2908 0C15.362 0 19.2928 3.34864 20.0798 8.25515H14.6754C14.0129 6.27166 12.3385 4.9828 10.3029 4.9828C7.56052 4.9828 5.55295 7.18712 5.55295 10.1824C5.55295 13.1777 7.56454 15.3379 10.3029 15.3379C12.451 15.3379 14.1373 13.9366 14.6794 11.7885H20.132C19.3972 16.8757 15.4423 20.3327 10.2868 20.3327H10.2908Z" fill="white"/>
<path d="M31.9044 20.3327C25.6809 20.3327 21.2441 16.0807 21.2441 10.1664C21.2441 4.25204 25.6849 0 31.9044 0C38.1238 0 42.5325 4.23598 42.5325 10.1664C42.5325 16.0967 38.1078 20.3327 31.9044 20.3327ZM36.9835 10.1664C36.9835 7.13894 34.8515 4.96273 31.9044 4.96273C28.9573 4.96273 26.7931 7.155 26.7931 10.1664C26.7931 13.1777 28.9573 15.37 31.9044 15.37C34.8515 15.37 36.9835 13.1938 36.9835 10.1664Z" fill="white"/>
<path d="M61.1387 0.489746V19.8428H56.73L49.041 9.33914V19.8428H43.8735V0.489746H48.5391L55.9712 10.6441V0.489746H61.1387Z" fill="white"/>
<path d="M80.3672 0.489746V19.8428H75.9586L68.2695 9.33914V19.8428H63.1021V0.489746H67.7677L75.1997 10.6441V0.489746H80.3672Z" fill="white"/>
<path d="M94.9463 15.2173V19.8428H82.3267V0.489746H94.7094V5.09914H87.6347V7.94989H93.9907V12.3224H87.6347V15.2213H94.9463V15.2173Z" fill="white"/>
<path d="M105.631 20.3327C99.7404 20.3327 95.3398 15.9723 95.3398 10.1824C95.3398 4.39257 99.7404 0 105.631 0C110.702 0 114.633 3.34864 115.42 8.25515H110.015C109.349 6.27166 107.678 4.9828 105.643 4.9828C102.9 4.9828 100.893 7.18712 100.893 10.1824C100.893 13.1777 102.904 15.3379 105.643 15.3379C107.791 15.3379 109.477 13.9366 110.019 11.7885H115.472C114.737 16.8757 110.782 20.3327 105.631 20.3327Z" fill="white"/>
<path d="M131.596 5.28796H126.341V19.8429H120.984V5.28796H115.729V0.48584H131.6V5.28796H131.596Z" fill="white"/>
<path d="M135.82 10.1744C135.82 4.38453 140.044 0.144531 145.77 0.144531C150.347 0.144531 154.017 2.9993 155.033 7.35574H151.817C150.893 4.77801 148.637 3.21612 145.77 3.21612C141.891 3.21612 139.053 6.13513 139.053 10.1744C139.053 14.2136 141.895 17.1166 145.77 17.1166C148.725 17.1166 151.014 15.4463 151.885 12.7039H155.109C154.101 17.2571 150.431 20.1922 145.77 20.1922C140.044 20.1922 135.82 15.9522 135.82 10.1784V10.1744Z" fill="white"/>
<path d="M168.078 15.6309H159.45L157.803 19.8428H154.431L162.208 0.489746H165.195L173.201 19.8428H169.756L168.082 15.6309H168.078ZM160.546 12.7882H166.974L163.738 4.62535L160.546 12.7882Z" fill="white"/>
<path d="M181.505 12.6797H177.835V19.8428H174.659V0.489746H182.192C185.922 0.489746 188.696 3.04338 188.696 6.61285C188.696 9.2508 187.126 11.3547 184.761 12.2341L189.23 19.8428H185.665L181.505 12.6797V12.6797ZM177.835 9.70451H182.007C184.111 9.70451 185.464 8.4036 185.464 6.58474C185.464 4.76588 184.111 3.46096 182.007 3.46096H177.835V9.70451Z" fill="white"/>
</svg>
