<svg width="44" height="41" viewBox="0 0 44 41" fill="none" xmlns="http://www.w3.org/2000/svg">
<path d="M36.6715 5.30662C31.9554 1.30433 25.851 -0.530608 19.4988 0.132962C9.37998 1.18722 1.2332 8.91154 0.132915 18.4977C-0.925721 27.758 4.41567 36.4 13.4351 40.0116C13.9026 40.2004 14.4388 39.9922 14.6382 39.5497C14.8375 39.1072 14.6176 38.5996 14.1501 38.4109C5.88667 35.1049 0.98483 27.1719 1.96115 18.6863C2.96477 9.90081 10.4304 2.82717 19.6977 1.85774C25.5275 1.24597 31.1162 2.93148 35.4476 6.60175C39.7168 10.2199 42.1642 15.4064 42.1642 20.8273C42.1642 29.1833 36.2657 36.6994 27.8241 39.1069C26.6828 39.4323 25.4662 39.2306 24.4899 38.5473C23.9769 38.1866 23.5735 37.7251 23.304 37.2028C23.1148 36.8363 23.4176 36.4453 23.83 36.4453C24.3386 36.4453 24.7443 36.055 24.7443 35.5798C24.7443 33.7961 25.9798 32.2956 27.4399 31.271C29.6938 29.6892 31.1584 27.1512 31.1584 24.2957C31.1584 22.3801 33.2392 20.7822 33.7998 18.9505C33.8703 18.72 33.9081 18.4764 33.9081 18.2244C33.9081 16.7863 32.6776 15.6215 31.1584 15.6215C30.657 15.6211 30.2507 15.2146 30.2507 14.7132V7.81172C30.2507 6.37368 29.0201 5.20883 27.501 5.20883C25.9818 5.20883 24.7512 6.37368 24.7512 7.81172V12.871C24.7512 14.3897 23.5201 15.6209 22.0014 15.6209C20.4827 15.6209 19.2515 14.3897 19.2515 12.871V7.81172C19.2515 6.37368 18.021 5.20883 16.5018 5.20883C14.9826 5.20883 13.7521 6.37368 13.7521 7.81172V14.7065C13.7521 15.2115 13.3427 15.6209 12.8377 15.6209C11.3186 15.6209 10.088 16.7857 10.088 18.2238C10.088 18.4758 10.1258 18.7194 10.1963 18.9499C10.7569 20.7816 12.8377 22.3795 12.8377 24.2951C12.8377 27.151 14.3025 29.6858 16.5571 31.2682C18.0176 32.2933 19.2518 33.7949 19.2518 35.5792C19.2518 36.0607 19.6642 36.4447 20.1661 36.4447C20.7417 36.4447 21.2196 36.8671 21.4217 37.406C21.7945 38.4006 22.4716 39.2794 23.4042 39.9391C24.3942 40.6354 25.556 41 26.7384 41C27.2815 41 27.8246 40.9218 28.3538 40.7723C37.5652 38.1371 44 29.9375 44 20.8276C44 14.9121 41.3325 9.25645 36.6715 5.30662ZM26.5832 7.81181C26.5851 7.81181 26.5867 7.81023 26.5867 7.8083C26.5887 7.3285 27.0003 6.9463 27.501 6.9463C28.0096 6.9463 28.4153 7.33666 28.4153 7.81181V14.7031C28.4153 15.21 28.0044 15.621 27.4975 15.621C26.9906 15.621 26.5797 15.21 26.5797 14.7031V7.81529C26.5797 7.81337 26.5813 7.81181 26.5832 7.81181ZM15.5836 7.81181C15.5855 7.81181 15.5871 7.81023 15.5871 7.8083C15.5891 7.3285 16.0007 6.9463 16.5014 6.9463C17.0034 6.9463 17.4158 7.33666 17.4158 7.81181V14.7031C17.4158 15.21 17.0048 15.621 16.4979 15.621C15.991 15.621 15.5801 15.21 15.5801 14.7031V7.81529C15.5801 7.81337 15.5817 7.81181 15.5836 7.81181ZM11.9161 18.224C11.9161 17.7426 12.3284 17.3585 12.8304 17.3585H31.1649C31.6735 17.3585 32.0792 17.7489 32.0792 18.224C32.0792 18.7055 31.6668 19.0895 31.1649 19.0895H12.8377C12.3288 19.0895 11.9161 18.6992 11.9161 18.224ZM14.6658 24.2955C14.6658 22.38 16.2186 20.8271 18.1342 20.8271H25.8608C27.7763 20.8271 29.3292 22.38 29.3292 24.2955C29.3292 27.595 26.8887 30.3539 23.6231 31.0567C22.798 31.2323 20.6396 31.1151 20.3784 31.0567C17.1131 30.3605 14.6658 27.5949 14.6658 24.2955ZM22.0011 32.9706C22.4902 32.9706 22.9155 33.3518 22.9155 33.841V33.8611C22.9155 34.3253 22.5392 34.7016 22.075 34.7016H21.9218C21.4568 34.7016 21.0798 34.3191 21.0798 33.854C21.0798 33.3607 21.5078 32.9706 22.0011 32.9706Z" fill="white"/>
</svg>
