<svg width="20" height="20" viewBox="0 0 20 20" fill="none" xmlns="http://www.w3.org/2000/svg">
<path d="M9.15 1V9.15H1C0.757454 9.15 0.551297 9.22878 0.390039 9.39004C0.228781 9.5513 0.15 9.75745 0.15 10C0.15 10.2425 0.228781 10.4487 0.390039 10.61C0.551297 10.7712 0.757454 10.85 1 10.85H9.15V19C9.15 19.2425 9.22878 19.4487 9.39004 19.61C9.5513 19.7712 9.75745 19.85 10 19.85C10.2425 19.85 10.4487 19.7712 10.61 19.61C10.7712 19.4487 10.85 19.2425 10.85 19V10.85H19C19.2425 10.85 19.4487 10.7712 19.61 10.61C19.7712 10.4487 19.85 10.2425 19.85 10C19.85 9.75745 19.7712 9.5513 19.61 9.39004C19.4487 9.22878 19.2425 9.15 19 9.15H10.85V1C10.85 0.757454 10.7712 0.551297 10.61 0.390039C10.4487 0.228781 10.2425 0.15 10 0.15C9.75745 0.15 9.5513 0.228781 9.39004 0.390039C9.22878 0.551297 9.15 0.757454 9.15 1Z" fill="#3330E8" stroke="#3330E8" stroke-width="0.2"/>
</svg>
