<svg width="88" height="59" viewBox="0 0 88 59" fill="none" xmlns="http://www.w3.org/2000/svg">
<path d="M72.7597 2.88781C72.6362 2.91311 72.5089 2.91311 72.3855 2.88781C71.8363 2.65664 71.2704 2.46711 70.6925 2.32088C70.5717 2.28998 70.4583 2.23559 70.3587 2.16085C70.2592 2.08611 70.1755 1.99251 70.1125 1.88544C70.0496 1.77837 70.0085 1.65996 69.9919 1.53705C69.9752 1.41414 69.9832 1.28917 70.0154 1.16935C70.0445 1.04764 70.0978 0.932925 70.1722 0.831983C70.2465 0.731041 70.3404 0.64592 70.4483 0.581554C70.5562 0.517188 70.6759 0.474912 70.8005 0.457204C70.9251 0.439496 71.052 0.446728 71.1737 0.478452C71.8428 0.640118 72.4981 0.85333 73.1339 1.1162C73.3678 1.2177 73.5527 1.4059 73.6492 1.6408C73.7457 1.8757 73.7463 2.13875 73.6507 2.37403C73.5664 2.5348 73.4379 2.66844 73.2802 2.7594C73.1224 2.85036 72.9419 2.89491 72.7597 2.88781Z" fill="#3330E8"/>
<path d="M85.3407 20.1785C85.1263 20.18 84.9177 20.1089 84.7493 19.9769C84.5808 19.8449 84.4626 19.6599 84.4141 19.4522C84.1227 18.2953 83.7718 17.1541 83.3627 16.033C83.3204 15.9143 83.302 15.7886 83.3087 15.6629C83.3153 15.5371 83.3469 15.414 83.4015 15.3004C83.4561 15.1868 83.5328 15.0851 83.627 15.001C83.7213 14.917 83.8313 14.8523 83.9508 14.8106C84.0688 14.7656 84.1947 14.7446 84.321 14.7489C84.4473 14.7532 84.5715 14.7826 84.6861 14.8355C84.8008 14.8884 84.9036 14.9636 84.9885 15.0567C85.0734 15.1498 85.1386 15.2588 85.1804 15.3774C85.5902 16.5467 85.9644 17.7514 86.2852 18.9207C86.3441 19.1673 86.3021 19.4272 86.1685 19.6431C86.0348 19.859 85.8204 20.0134 85.5724 20.0722L85.3407 20.1785ZM80.9926 10.0804C80.8335 10.0839 80.6761 10.0467 80.5356 9.97223C80.3952 9.89776 80.2764 9.78857 80.1907 9.65519C79.532 8.67419 78.7993 7.74436 77.9988 6.87376C77.8203 6.69462 77.7202 6.45267 77.7202 6.20054C77.7202 5.94841 77.8203 5.70646 77.9988 5.52732C78.182 5.34879 78.4283 5.24878 78.6849 5.24878C78.9414 5.24878 79.1877 5.34879 79.371 5.52732C80.2304 6.47071 81.0168 7.47753 81.7232 8.53907C81.8671 8.74824 81.9217 9.00563 81.8749 9.25473C81.8281 9.50384 81.6839 9.72432 81.4737 9.86778C81.3345 9.97875 81.1687 10.052 80.9926 10.0804Z" fill="#3330E8"/>
<path d="M86.5703 29.3555C86.4462 29.3578 86.323 29.3358 86.2075 29.2908C86.092 29.2458 85.9865 29.1786 85.8972 29.093C85.8078 29.0075 85.7363 28.9052 85.6866 28.7922C85.637 28.6792 85.6103 28.5576 85.608 28.4342C85.608 27.7965 85.608 27.1764 85.608 26.5563C85.5914 26.3026 85.677 26.0528 85.8457 25.8617C86.0145 25.6707 86.2527 25.5541 86.5079 25.5377C86.7631 25.5212 87.0145 25.6062 87.2066 25.774C87.3988 25.9418 87.516 26.1786 87.5326 26.4323C87.5326 27.0878 87.5326 27.7256 87.6217 28.3811C87.624 28.5067 87.6015 28.6316 87.5553 28.7485C87.5091 28.8655 87.4402 28.9723 87.3525 29.0627C87.2648 29.1532 87.16 29.2257 87.0441 29.2759C86.9283 29.3261 86.8036 29.3532 86.6772 29.3555H86.5703Z" fill="#3330E8"/>
<path d="M67.8234 58.7287C56.9709 58.7287 48.1143 45.548 48.1143 29.3555C48.1143 13.163 57.0243 0 67.8234 0C68.9537 0.000509358 70.0794 0.143358 71.1736 0.425168C71.4183 0.487908 71.6284 0.643894 71.7585 0.859365C71.8885 1.07484 71.9281 1.33253 71.8686 1.57676C71.8396 1.7004 71.7858 1.81689 71.7102 1.91926C71.6347 2.02162 71.5391 2.1077 71.4292 2.17228C71.3192 2.23687 71.1972 2.27862 71.0706 2.29501C70.944 2.3114 70.8153 2.3021 70.6924 2.26765C69.7541 2.03445 68.7906 1.9155 67.8234 1.91336C58.0223 1.91336 50.0032 14.226 50.0032 29.3555C50.0032 44.485 57.9866 56.8154 67.8234 56.8154C77.6601 56.8154 85.6436 44.5028 85.6436 29.3555C85.6482 29.1032 85.751 28.8625 85.9305 28.6841C86.11 28.5057 86.3521 28.4034 86.6059 28.3988C86.8611 28.3988 87.1059 28.4996 87.2863 28.6791C87.4668 28.8585 87.5682 29.1018 87.5682 29.3555C87.5325 45.548 78.6937 58.7287 67.8234 58.7287Z" fill="#3330E8"/>
<path d="M86.5704 30.312C86.3152 30.312 86.0704 30.2112 85.89 30.0318C85.7095 29.8524 85.6081 29.6091 85.6081 29.3553V28.4341C85.6033 28.3079 85.6242 28.1819 85.6695 28.0639C85.7148 27.9459 85.7836 27.8381 85.8718 27.7471C85.96 27.6562 86.0657 27.5838 86.1827 27.5344C86.2997 27.485 86.4255 27.4596 86.5526 27.4597C86.8035 27.4593 87.045 27.5547 87.2274 27.7261C87.4097 27.8975 87.519 28.1319 87.5327 28.381V29.3553C87.5327 29.481 87.5078 29.6054 87.4594 29.7214C87.4111 29.8375 87.3402 29.943 87.2508 30.0318C87.1615 30.1206 87.0554 30.1911 86.9386 30.2392C86.8219 30.2873 86.6968 30.312 86.5704 30.312Z" fill="#3330E8"/>
<path d="M67.8238 44.1484C62.2639 44.1484 57.7554 37.5049 57.7554 29.3555C57.7554 21.2061 62.2639 14.5803 67.8238 14.5803C73.3837 14.5803 77.91 21.2061 77.91 29.3555C77.91 37.5049 73.3837 44.1484 67.8238 44.1484ZM67.8238 16.4936C63.3331 16.4936 59.6621 22.2691 59.6621 29.3555C59.6621 36.4419 63.3331 42.2351 67.8238 42.2351C72.3145 42.2351 75.9854 36.4596 75.9854 29.3555C75.9854 22.2514 72.3323 16.4936 67.8238 16.4936Z" fill="#00D880"/>
<path d="M67.8238 44.1486C62.2639 44.1486 57.7554 37.5051 57.7554 29.3557C57.7554 21.2063 62.2639 14.5805 67.8238 14.5805C68.1205 14.563 68.418 14.563 68.7148 14.5805C68.8895 14.6042 69.0545 14.6743 69.1925 14.7835C69.3305 14.8926 69.4364 15.0367 69.4989 15.2006C72.7069 24.3254 72.7069 34.2621 69.4989 43.3868C69.4364 43.5507 69.3305 43.6949 69.1925 43.804C69.0545 43.9131 68.8895 43.9832 68.7148 44.0069C68.4209 44.0719 68.1234 44.1192 67.8238 44.1486ZM67.8238 16.4939C63.3331 16.4939 59.6621 22.2693 59.6621 29.3557C59.6621 36.4422 63.3331 42.2353 67.8238 42.2353C69.276 38.0957 70.0052 33.7397 69.98 29.3557C69.9919 24.9844 69.2876 20.6402 67.895 16.4939H67.8238Z" fill="#00D880"/>
<path d="M67.8236 1.91336C67.5684 1.91336 67.3236 1.81255 67.1432 1.63314C66.9627 1.45373 66.8613 1.21041 66.8613 0.956682C66.8613 0.767471 66.9178 0.582491 67.0235 0.425168C67.1292 0.267844 67.2795 0.145233 67.4554 0.0728251C67.6312 0.000417262 67.8247 -0.0185317 68.0113 0.0183816C68.198 0.0552948 68.3695 0.146427 68.504 0.280219C68.6386 0.414011 68.7303 0.584474 68.7674 0.770049C68.8045 0.955624 68.7855 1.14795 68.7127 1.32276C68.6398 1.49756 68.5165 1.64702 68.3582 1.75214C68.2 1.85726 68.0139 1.91336 67.8236 1.91336Z" fill="#3330E8"/>
<path d="M67.8236 58.7287C67.5698 58.7242 67.3277 58.622 67.1482 58.4435C66.9687 58.2651 66.8659 58.0244 66.8613 57.7721C66.8613 57.5184 66.9627 57.2751 67.1432 57.0956C67.3236 56.9162 67.5684 56.8154 67.8236 56.8154C68.0788 56.8154 68.3236 56.9162 68.504 57.0956C68.6845 57.2751 68.7859 57.5184 68.7859 57.7721C68.7859 58.0258 68.6845 58.2692 68.504 58.4486C68.3236 58.628 68.0788 58.7287 67.8236 58.7287Z" fill="#3330E8"/>
<path d="M67.8238 58.7287H52.1955C41.3251 58.7287 32.4863 45.548 32.4863 29.3555C32.4863 13.163 41.3964 0 52.1955 0H67.8238C68.079 0 68.3237 0.10081 68.5042 0.28022C68.6847 0.459629 68.786 0.702958 68.786 0.956682C68.786 1.21041 68.6847 1.45374 68.5042 1.63315C68.3237 1.81255 68.079 1.91336 67.8238 1.91336C58.0227 1.91336 50.0036 14.226 50.0036 29.3555C50.0036 44.485 57.987 56.8154 67.8238 56.8154C68.079 56.8154 68.3237 56.9162 68.5042 57.0956C68.6847 57.275 68.786 57.5184 68.786 57.7721C68.786 58.0258 68.6847 58.2691 68.5042 58.4486C68.3237 58.628 68.079 58.7287 67.8238 58.7287ZM52.1955 1.91336C42.3765 1.91336 34.3753 14.226 34.3753 29.3555C34.3753 44.485 42.3409 56.8154 52.1955 56.8154H60.8383C53.4072 52.599 48.1146 41.8808 48.1146 29.3555C48.1146 16.8303 53.4607 6.12979 60.8383 1.91336H52.1955Z" fill="#3330E8"/>
<path d="M35.3731 1.91336C35.1179 1.91336 34.8731 1.81255 34.6927 1.63314C34.5122 1.45373 34.4108 1.21041 34.4108 0.956682C34.4084 0.831895 34.4311 0.707876 34.4775 0.591905C34.5239 0.475933 34.5931 0.370322 34.6811 0.281247C34.769 0.192172 34.8739 0.121441 34.9897 0.0731501C35.1055 0.0248594 35.2297 -2.22032e-05 35.3553 1.48666e-08C35.4816 -2.74931e-08 35.6068 0.0247487 35.7235 0.0728257C35.8403 0.120903 35.9464 0.191385 36.0357 0.280219C36.1251 0.369054 36.196 0.474485 36.2443 0.590553C36.2927 0.706621 36.3176 0.831051 36.3176 0.956682C36.3176 1.08231 36.2927 1.20669 36.2443 1.32276C36.196 1.43883 36.1251 1.54431 36.0357 1.63314C35.9464 1.72198 35.8403 1.79246 35.7235 1.84054C35.6068 1.88862 35.4816 1.91336 35.3553 1.91336H35.3731Z" fill="#3330E8"/>
<path d="M35.3731 58.7287C35.1179 58.7287 34.8731 58.628 34.6927 58.4486C34.5122 58.2692 34.4108 58.0258 34.4108 57.7721C34.4084 57.6473 34.4311 57.5233 34.4775 57.4073C34.5239 57.2914 34.5931 57.1858 34.6811 57.0967C34.769 57.0076 34.8739 56.9369 34.9897 56.8886C35.1055 56.8403 35.2297 56.8154 35.3553 56.8154C35.6105 56.8154 35.8553 56.9162 36.0357 57.0956C36.2162 57.2751 36.3176 57.5184 36.3176 57.7721C36.3176 58.0258 36.2162 58.2692 36.0357 58.4486C35.8553 58.628 35.6105 58.7287 35.3553 58.7287H35.3731Z" fill="#3330E8"/>
<path d="M35.3553 58.7287H19.7091C8.83881 58.7287 0 45.548 0 29.3555C0 13.163 8.91009 0 19.7091 0H35.3553C35.6105 0 35.8552 0.10081 36.0357 0.280219C36.2162 0.459629 36.3176 0.702958 36.3176 0.956682C36.3176 1.21041 36.2162 1.45373 36.0357 1.63314C35.8552 1.81255 35.6105 1.91336 35.3553 1.91336C25.5363 1.91336 17.5351 14.226 17.5351 29.3555C17.5351 44.485 25.5007 56.8154 35.3553 56.8154C35.6105 56.8154 35.8552 56.9162 36.0357 57.0956C36.2162 57.275 36.3176 57.5184 36.3176 57.7721C36.313 58.0244 36.2101 58.2651 36.0306 58.4435C35.8512 58.622 35.609 58.7242 35.3553 58.7287ZM19.7091 1.91336C9.90802 1.91336 1.88894 14.226 1.88894 29.3555C1.88894 44.485 9.87238 56.8154 19.7091 56.8154H28.3519C20.9387 52.599 15.6461 41.8808 15.6461 29.3555C15.6461 16.8303 20.9922 6.12979 28.3519 1.91336H19.7091Z" fill="#3330E8"/>
<path d="M35.3551 58.7287C24.4848 58.7287 15.646 45.548 15.646 29.3555C15.646 13.163 24.5561 0 35.3551 0C37.2328 0.00986806 39.0885 0.40175 40.8081 1.15153C40.9232 1.1998 41.0276 1.27033 41.1152 1.35898C41.2027 1.44764 41.2717 1.55267 41.3181 1.66802C41.3645 1.78336 41.3874 1.90674 41.3855 2.03096C41.3836 2.15517 41.357 2.27778 41.3071 2.39168C41.2584 2.50835 41.1869 2.61429 41.0968 2.70336C41.0067 2.79244 40.8998 2.86288 40.7821 2.91065C40.6645 2.95842 40.5385 2.98253 40.4114 2.98164C40.2844 2.98074 40.1588 2.95487 40.0418 2.90546C38.5639 2.26093 36.969 1.92333 35.3551 1.91336C25.5362 1.91336 17.5349 14.226 17.5349 29.3555C17.5349 44.485 25.5006 56.8154 35.3551 56.8154C36.969 56.8054 38.5639 56.4678 40.0418 55.8233C40.2781 55.7223 40.5451 55.7187 40.7841 55.8134C41.023 55.9081 41.2144 56.0933 41.316 56.3282C41.4176 56.5632 41.4212 56.8286 41.3259 57.0661C41.2307 57.3037 41.0444 57.4939 40.8081 57.5949C39.0872 58.3386 37.2315 58.7244 35.3551 58.7287Z" fill="#3330E8"/>
<path d="M31.5596 42.8906C31.3681 42.8829 31.1828 42.8215 31.025 42.7135C27.4609 40.2864 25.269 35.0601 25.269 29.3556C25.269 23.651 27.5322 18.4248 31.025 16.0154C31.2332 15.8705 31.4906 15.8134 31.741 15.8566C31.9914 15.8997 32.2145 16.0396 32.3615 16.2457C32.4351 16.3485 32.4872 16.4649 32.5145 16.5881C32.5419 16.7113 32.5439 16.8387 32.5206 16.9627C32.4974 17.0867 32.4492 17.2048 32.379 17.3099C32.3087 17.415 32.218 17.505 32.112 17.5744C29.1182 19.6472 27.1936 24.2711 27.1936 29.3556C27.1936 34.4401 29.1182 39.0639 32.112 41.1367C32.3221 41.2802 32.4664 41.5007 32.5132 41.7498C32.5599 41.9989 32.5054 42.2563 32.3615 42.4654C32.2734 42.5965 32.1541 42.7039 32.0142 42.7781C31.8743 42.8523 31.7181 42.8909 31.5596 42.8906Z" fill="#00D880"/>
</svg>
