<svg width="86" height="78" viewBox="0 0 86 78" fill="none" xmlns="http://www.w3.org/2000/svg">
<g clip-path="url(#clip0_649_2513)">
<path d="M42.9725 20.0894C42.7118 20.0894 42.4617 19.9854 42.2773 19.8003C42.0929 19.6152 41.9893 19.3641 41.9893 19.1023V10.2366C41.9939 9.97628 42.099 9.72792 42.2824 9.54381C42.4658 9.3597 42.7132 9.2542 42.9725 9.24951C43.2333 9.24951 43.4834 9.3535 43.6678 9.53862C43.8522 9.72374 43.9558 9.97481 43.9558 10.2366V19.1023C43.9558 19.232 43.9304 19.3603 43.881 19.4801C43.8315 19.5999 43.7591 19.7087 43.6678 19.8003C43.5765 19.892 43.4681 19.9647 43.3488 20.0143C43.2295 20.0639 43.1017 20.0894 42.9725 20.0894Z" fill="#00D880"/>
<path d="M59.9431 27.1455C59.6834 27.1418 59.4354 27.0369 59.2512 26.853C59.0689 26.6682 58.9666 26.4186 58.9666 26.1584C58.9666 25.8983 59.0689 25.6486 59.2512 25.4638L65.4968 19.1938C65.6855 19.0383 65.9251 18.9589 66.1689 18.9709C66.4127 18.9829 66.6433 19.0855 66.8159 19.2588C66.9885 19.4321 67.0907 19.6636 67.1027 19.9084C67.1147 20.1531 67.0355 20.3936 66.8807 20.5831L60.6351 26.853C60.4509 27.0369 60.2028 27.1418 59.9431 27.1455Z" fill="#00D880"/>
<path d="M75.7485 44.1459H66.9354C66.6746 44.1459 66.4245 44.0419 66.2401 43.8567C66.0557 43.6716 65.9521 43.4206 65.9521 43.1588C65.9521 42.897 66.0557 42.6459 66.2401 42.4607C66.4245 42.2756 66.6746 42.1716 66.9354 42.1716H75.7485C76.0092 42.1716 76.2593 42.2756 76.4437 42.4607C76.6281 42.6459 76.7317 42.897 76.7317 43.1588C76.7317 43.4206 76.6281 43.6716 76.4437 43.8567C76.2593 44.0419 76.0092 44.1459 75.7485 44.1459Z" fill="#00D880"/>
<path d="M66.1889 67.4342C66.0596 67.4365 65.9313 67.4116 65.8121 67.3613C65.693 67.3109 65.5856 67.2361 65.4969 67.1417L59.2513 60.8717C59.1452 60.7843 59.0585 60.6755 58.9968 60.5525C58.9351 60.4294 58.8998 60.2947 58.893 60.1571C58.8863 60.0195 58.9083 59.882 58.9577 59.7534C59.0071 59.6249 59.0828 59.5081 59.1798 59.4107C59.2769 59.3133 59.3932 59.2373 59.5212 59.1877C59.6493 59.1381 59.7863 59.116 59.9234 59.1228C60.0604 59.1295 60.1946 59.165 60.3172 59.227C60.4398 59.2889 60.5481 59.3759 60.6352 59.4824L66.8808 65.7524C67.0631 65.9373 67.1654 66.1869 67.1654 66.4471C67.1654 66.7072 67.0631 66.9569 66.8808 67.1417C66.7914 67.2352 66.6839 67.3094 66.5649 67.3597C66.4459 67.41 66.318 67.4354 66.1889 67.4342Z" fill="#00D880"/>
<path d="M26.0567 27.1455C25.7922 27.1391 25.5394 27.035 25.3466 26.853L19.1192 20.5831C18.9643 20.3936 18.8852 20.1531 18.8972 19.9084C18.9092 19.6636 19.0114 19.4321 19.184 19.2588C19.3566 19.0855 19.5872 18.9829 19.831 18.9709C20.0748 18.9589 20.3144 19.0383 20.5031 19.1938L26.7487 25.4638C26.931 25.6486 27.0333 25.8983 27.0333 26.1584C27.0333 26.4186 26.931 26.6682 26.7487 26.853C26.5606 27.0309 26.3149 27.1347 26.0567 27.1455Z" fill="#00D880"/>
<path d="M19.0284 44.1459H10.1971C9.93636 44.1459 9.68627 44.0419 9.50187 43.8567C9.31747 43.6716 9.21387 43.4206 9.21387 43.1588C9.21387 42.897 9.31747 42.6459 9.50187 42.4607C9.68627 42.2756 9.93636 42.1716 10.1971 42.1716H19.0284C19.1575 42.1716 19.2854 42.1972 19.4047 42.2468C19.524 42.2964 19.6324 42.3691 19.7237 42.4607C19.815 42.5524 19.8874 42.6612 19.9368 42.781C19.9862 42.9008 20.0117 43.0291 20.0117 43.1588C20.0117 43.4206 19.9081 43.6716 19.7237 43.8567C19.5393 44.0419 19.2892 44.1459 19.0284 44.1459Z" fill="#00D880"/>
<path d="M19.8111 67.4342C19.6818 67.4365 19.5535 67.4117 19.4344 67.3613C19.3152 67.3109 19.2078 67.2361 19.1191 67.1417C18.9368 66.9569 18.8345 66.7072 18.8345 66.4471C18.8345 66.1869 18.9368 65.9373 19.1191 65.7525L25.3465 59.4825C25.5337 59.2983 25.7854 59.1951 26.0476 59.1951C26.3097 59.1951 26.5614 59.2983 26.7486 59.4825C26.931 59.6673 27.0333 59.917 27.0333 60.1771C27.0333 60.4373 26.931 60.6869 26.7486 60.8717L20.503 67.1417C20.4136 67.2353 20.3061 67.3094 20.1871 67.3597C20.0681 67.41 19.9402 67.4354 19.8111 67.4342Z" fill="#00D880"/>
<path d="M42.9726 49.4653C41.7352 49.4585 40.5273 49.0849 39.5006 48.3915C38.4738 47.6981 37.674 46.7157 37.2014 45.5675C36.7287 44.4194 36.6044 43.1568 36.8439 41.938C37.0835 40.7192 37.6763 39.5986 38.5479 38.7168C39.451 37.7568 40.639 37.1156 41.9347 36.8888L53.5519 31.1672C53.7349 31.0729 53.9432 31.0398 54.1463 31.0727C54.3494 31.1056 54.5367 31.2027 54.6809 31.35C54.8228 31.4977 54.9163 31.6854 54.9489 31.888C54.9814 32.0906 54.9514 32.2984 54.863 32.4833L49.1454 44.1276C48.9219 45.4345 48.2831 46.6337 47.3245 47.5459C46.1814 48.7349 44.6181 49.4244 42.9726 49.4653ZM51.8221 34.2748L42.7177 38.8082H42.4082C41.4842 38.928 40.626 39.3523 39.9682 40.0147C39.4728 40.4963 39.0996 41.0901 38.8798 41.7463C38.6601 42.4026 38.6002 43.1022 38.7052 43.7864C38.8102 44.4707 39.077 45.1197 39.4833 45.6792C39.8896 46.2386 40.4236 46.6921 41.0404 47.0017C41.6572 47.3114 42.339 47.4681 43.0286 47.4587C43.7182 47.4494 44.3955 47.2742 45.0038 46.948C45.6121 46.6218 46.1336 46.154 46.5247 45.5837C46.9158 45.0135 47.1651 44.3575 47.2517 43.6706C47.2565 43.5669 47.2878 43.4661 47.3427 43.3781L51.8221 34.2748Z" fill="#00D880"/>
<path d="M42.9725 49.4651C41.73 49.4651 40.5154 49.0952 39.4824 48.4023C38.4493 47.7093 37.6441 46.7244 37.1686 45.572C36.6932 44.4196 36.5687 43.1516 36.8111 41.9282C37.0535 40.7049 37.6518 39.5812 38.5304 38.6992C39.409 37.8172 40.5283 37.2166 41.7469 36.9732C42.9655 36.7299 44.2286 36.8548 45.3765 37.3321C46.5244 37.8094 47.5055 38.6178 48.1958 39.6549C48.886 40.692 49.2545 41.9113 49.2545 43.1586C49.2545 44.8312 48.5926 46.4353 47.4145 47.618C46.2364 48.8007 44.6386 49.4651 42.9725 49.4651ZM42.9725 38.8446C42.1182 38.8446 41.2831 39.0991 40.573 39.576C39.863 40.0528 39.3099 40.7305 38.9838 41.5232C38.6577 42.3159 38.5733 43.1879 38.7413 44.0288C38.9093 44.8697 39.3221 45.6416 39.9275 46.2468C40.5328 46.8519 41.3034 47.2631 42.1418 47.4282C42.9801 47.5932 43.8484 47.5048 44.6366 47.1741C45.4248 46.8434 46.0975 46.2853 46.5695 45.5705C47.0415 44.8556 47.2915 44.0162 47.2879 43.1586C47.2831 42.0128 46.8263 40.9155 46.0175 40.107C45.2088 39.2985 44.1139 38.8446 42.9725 38.8446Z" fill="#00D880"/>
<path d="M53.8978 66.7215H32.0472C31.7896 66.7215 31.5422 66.62 31.3583 66.4388C31.1744 66.2576 31.0687 66.0113 31.064 65.7526V56.2471C31.064 56.1175 31.0894 55.9891 31.1388 55.8694C31.1882 55.7496 31.2607 55.6408 31.352 55.5491C31.4433 55.4575 31.5517 55.3848 31.671 55.3352C31.7903 55.2855 31.9181 55.26 32.0472 55.26H53.8978C54.1585 55.26 54.4086 55.364 54.593 55.5491C54.7774 55.7342 54.881 55.9853 54.881 56.2471V65.7526C54.8763 66.0113 54.7706 66.2576 54.5867 66.4388C54.4028 66.62 54.1554 66.7215 53.8978 66.7215ZM33.0305 64.7107H52.9691V57.2159H33.0305V64.7107Z" fill="#3330E8"/>
<path d="M48.4354 73.1009H37.5101C37.2494 73.1009 36.9993 72.9969 36.8149 72.8118C36.6305 72.6267 36.5269 72.3756 36.5269 72.1138C36.5269 71.852 36.6305 71.601 36.8149 71.4158C36.9993 71.2307 37.2494 71.1267 37.5101 71.1267H48.4354C48.6962 71.1267 48.9463 71.2307 49.1307 71.4158C49.3151 71.601 49.4187 71.852 49.4187 72.1138C49.4187 72.3756 49.3151 72.6267 49.1307 72.8118C48.9463 72.9969 48.6962 73.1009 48.4354 73.1009Z" fill="#3330E8"/>
<path d="M37.2186 62.974C36.9578 62.974 36.7077 62.87 36.5233 62.6849C36.3389 62.4998 36.2354 62.2487 36.2354 61.9869V59.9944C36.2354 59.7326 36.3389 59.4816 36.5233 59.2964C36.7077 59.1113 36.9578 59.0073 37.2186 59.0073C37.4794 59.0073 37.7295 59.1113 37.9139 59.2964C38.0983 59.4816 38.2019 59.7326 38.2019 59.9944V61.9869C38.2019 62.2487 38.0983 62.4998 37.9139 62.6849C37.7295 62.87 37.4794 62.974 37.2186 62.974Z" fill="#3330E8"/>
<path d="M42.7723 62.974C42.5116 62.974 42.2615 62.87 42.0771 62.6849C41.8927 62.4998 41.7891 62.2487 41.7891 61.9869V59.9944C41.7891 59.7326 41.8927 59.4816 42.0771 59.2964C42.2615 59.1113 42.5116 59.0073 42.7723 59.0073C43.0331 59.0073 43.2832 59.1113 43.4676 59.2964C43.652 59.4816 43.7556 59.7326 43.7556 59.9944V61.9869C43.7556 62.2487 43.652 62.4998 43.4676 62.6849C43.2832 62.87 43.0331 62.974 42.7723 62.974Z" fill="#3330E8"/>
<path d="M48.326 62.974C48.0653 62.974 47.8152 62.87 47.6308 62.6849C47.4464 62.4998 47.3428 62.2487 47.3428 61.9869V59.9944C47.3428 59.7326 47.4464 59.4816 47.6308 59.2964C47.8152 59.1113 48.0653 59.0073 48.326 59.0073C48.5868 59.0073 48.8369 59.1113 49.0213 59.2964C49.2057 59.4816 49.3093 59.7326 49.3093 59.9944V61.9869C49.3093 62.2487 49.2057 62.4998 49.0213 62.6849C48.8369 62.87 48.5868 62.974 48.326 62.974Z" fill="#3330E8"/>
<path d="M80.0276 44.1459C79.7668 44.1459 79.5167 44.0419 79.3323 43.8568C79.1479 43.6716 79.0443 43.4206 79.0443 43.1588C79.0443 42.519 79.0443 41.8792 79.0443 41.2394C79.037 41.1106 79.0553 40.9817 79.0982 40.8602C79.1411 40.7386 79.2078 40.6269 79.2943 40.5316C79.3808 40.4362 79.4853 40.3592 79.6019 40.3049C79.7184 40.2507 79.8446 40.2204 79.973 40.2157C80.1018 40.2057 80.2313 40.2223 80.3535 40.2644C80.4756 40.3065 80.588 40.3733 80.6835 40.4606C80.779 40.548 80.8557 40.654 80.9089 40.7722C80.962 40.8904 80.9906 41.0183 80.9927 41.148C80.9927 41.8061 80.9927 42.4824 80.9927 43.1588C80.9927 43.4174 80.8916 43.6658 80.7111 43.8504C80.5306 44.035 80.2852 44.1411 80.0276 44.1459Z" fill="#3330E8"/>
<path d="M78.7711 34.5123C78.5553 34.5117 78.3455 34.4398 78.1744 34.3076C78.0033 34.1755 77.8803 33.9905 77.8243 33.7811C77.5037 32.5417 77.1147 31.3212 76.6589 30.1252C76.5965 29.8905 76.6225 29.641 76.7318 29.4244C76.8412 29.2077 77.0263 29.0391 77.2516 28.9509C77.477 28.8626 77.7269 28.8609 77.9535 28.946C78.1801 29.0312 78.3675 29.1971 78.4798 29.4123C78.9574 30.6556 79.3648 31.925 79.6998 33.2145C79.7666 33.4665 79.7314 33.7349 79.6018 33.961C79.4721 34.1871 79.2586 34.3524 79.0078 34.4209L78.7711 34.5123ZM74.0551 23.8917C73.8937 23.889 73.7352 23.8477 73.5927 23.7715C73.4503 23.6952 73.3279 23.586 73.2357 23.453C72.5549 22.3872 71.8131 21.3618 71.0142 20.382C70.9329 20.2812 70.8722 20.1653 70.8355 20.0409C70.7988 19.9165 70.7869 19.7861 70.8004 19.6571C70.814 19.5281 70.8527 19.403 70.9143 19.289C70.976 19.1751 71.0595 19.0744 71.1599 18.9928C71.2603 18.9111 71.3758 18.8502 71.4997 18.8134C71.6236 18.7765 71.7535 18.7646 71.882 18.7782C72.0105 18.7917 72.1351 18.8306 72.2486 18.8925C72.3622 18.9544 72.4624 19.0382 72.5437 19.139C73.3792 20.1738 74.1573 21.2539 74.8745 22.3745C74.9484 22.4802 75.0002 22.5999 75.0265 22.7264C75.0529 22.8528 75.0533 22.9833 75.0277 23.1099C75.0022 23.2364 74.9512 23.3565 74.8779 23.4626C74.8046 23.5688 74.7105 23.6588 74.6013 23.7272C74.439 23.8341 74.2492 23.8912 74.0551 23.8917ZM66.3164 15.3551C66.091 15.3553 65.8725 15.2779 65.6973 15.1357C64.7213 14.3337 63.6999 13.5891 62.6382 12.9056C62.5304 12.8337 62.4379 12.7412 62.3658 12.6333C62.2937 12.5254 62.2435 12.4044 62.2182 12.277C62.1928 12.1496 62.1927 12.0185 62.2179 11.8911C62.2431 11.7637 62.2931 11.6426 62.3651 11.5346C62.4335 11.4256 62.5229 11.3313 62.6281 11.2574C62.7333 11.1835 62.8521 11.1314 62.9776 11.1042C63.1031 11.0769 63.2327 11.0751 63.3589 11.0988C63.4851 11.1225 63.6053 11.1712 63.7125 11.2421C64.8293 11.9733 65.9036 12.7593 66.9355 13.6002C67.1344 13.7677 67.2607 14.0061 67.2879 14.2653C67.3151 14.5245 67.2409 14.7841 67.0811 14.9895C66.9872 15.1019 66.8703 15.1927 66.7383 15.2558C66.6064 15.3189 66.4625 15.3527 66.3164 15.3551ZM56.3015 9.52381C56.1808 9.54156 56.0581 9.54156 55.9374 9.52381C54.7453 9.06842 53.5296 8.67789 52.2956 8.3539C52.0449 8.28539 51.8314 8.12004 51.7017 7.89397C51.5721 7.66791 51.5368 7.3995 51.6037 7.14742C51.6353 7.02149 51.6918 6.90323 51.7698 6.79966C51.8479 6.69608 51.9458 6.60929 52.058 6.54449C52.1701 6.47969 52.294 6.43819 52.4224 6.42243C52.5508 6.40668 52.6811 6.41702 52.8055 6.45281C54.0847 6.78647 55.3433 7.19543 56.5747 7.67755C56.7501 7.78041 56.8895 7.9353 56.9737 8.12094C57.0579 8.30657 57.0827 8.51383 57.0448 8.71422C57.0069 8.9146 56.9081 9.09827 56.7619 9.23997C56.6158 9.38167 56.4295 9.47445 56.2287 9.50554L56.3015 9.52381Z" fill="#3330E8"/>
<path d="M44.9576 7.01939H42.9911C42.7303 7.01939 42.4802 6.9154 42.2958 6.73028C42.1114 6.54516 42.0078 6.29406 42.0078 6.03226C42.0078 5.77047 42.1114 5.51939 42.2958 5.33427C42.4802 5.14916 42.7303 5.04517 42.9911 5.04517C43.6587 5.04517 44.3325 5.04517 45.0123 5.04517C45.273 5.04517 45.5231 5.14916 45.7075 5.33427C45.8919 5.51939 45.9955 5.77047 45.9955 6.03226C45.9955 6.29406 45.8919 6.54516 45.7075 6.73028C45.5231 6.9154 45.273 7.01939 45.0123 7.01939H44.9576Z" fill="#3330E8"/>
<path d="M66.2433 73.1011H19.7564C19.5316 73.0985 19.3139 73.0214 19.1373 72.8818C13.0119 67.9278 8.56776 61.1886 6.41747 53.5928C4.26718 45.9971 4.51655 37.9188 7.13122 30.4713C9.74589 23.0238 14.5971 16.5737 21.0164 12.0101C27.4356 7.44646 35.1067 4.99392 42.9725 4.99048C43.2333 4.99048 43.4834 5.09447 43.6678 5.27959C43.8522 5.46471 43.9558 5.71578 43.9558 5.97758C43.9558 6.23937 43.8522 6.49045 43.6678 6.67557C43.4834 6.86069 43.2333 6.9647 42.9725 6.9647C35.5412 6.96388 28.2911 9.26843 22.2145 13.563C16.1379 17.8576 11.5316 23.9323 9.02613 30.9559C6.52063 37.9794 6.23828 45.6087 8.21773 52.7995C10.1972 59.9904 14.3417 66.3915 20.0841 71.1269H65.8792C69.9963 67.7329 73.3113 63.4634 75.5849 58.6267C77.8584 53.79 79.0337 48.5069 79.0259 43.1588C79.0306 42.8984 79.1357 42.6501 79.3191 42.466C79.5025 42.2818 79.7498 42.1763 80.0092 42.1716C80.27 42.1716 80.52 42.2756 80.7044 42.4607C80.8888 42.6459 80.9925 42.897 80.9925 43.1588C81.004 48.8609 79.7385 54.4926 77.2895 59.6375C74.8405 64.7823 71.2708 69.3087 66.8442 72.8818C66.6697 73.0124 66.4607 73.0887 66.2433 73.1011Z" fill="#3330E8"/>
<path d="M73.5454 73.1011H12.4368C12.1694 73.0915 11.9156 72.9805 11.7266 72.7903C5.95664 66.6587 2.1021 58.9646 0.639016 50.6584C-0.824064 42.3522 0.168409 33.7977 3.49386 26.0515C6.81931 18.3052 12.3321 11.7064 19.3513 7.07011C26.3706 2.43382 34.5888 -0.0368652 42.9911 -0.0368652C51.3933 -0.0368652 59.6116 2.43382 66.6308 7.07011C73.65 11.7064 79.1628 18.3052 82.4883 26.0515C85.8137 33.7977 86.8062 42.3522 85.3431 50.6584C83.88 58.9646 80.0255 66.6587 74.2555 72.7903C74.0687 72.9837 73.8136 73.0953 73.5454 73.1011ZM12.8738 71.1268H73.1266C78.5471 65.2452 82.1417 57.9044 83.4702 50.0032C84.7987 42.1021 83.8035 33.9836 80.6064 26.6416C77.4093 19.2995 72.1491 13.0527 65.4698 8.66588C58.7905 4.27905 50.9819 1.9426 43.0002 1.9426C35.0184 1.9426 27.2099 4.27905 20.5305 8.66588C13.8512 13.0527 8.591 19.2995 5.39391 26.6416C2.19682 33.9836 1.20161 42.1021 2.53012 50.0032C3.85863 57.9044 7.45321 65.2452 12.8738 71.1268Z" fill="#3330E8"/>
<path d="M77.6785 78.0001H75.7484C75.4876 78.0001 75.2375 77.8961 75.0531 77.711C74.8687 77.5258 74.7651 77.2748 74.7651 77.013C74.7651 76.7512 74.8687 76.5001 75.0531 76.315C75.2375 76.1299 75.4876 76.0259 75.7484 76.0259H77.7149C77.9743 76.0306 78.2217 76.1361 78.405 76.3202C78.5884 76.5043 78.6935 76.7526 78.6982 77.013C78.6983 77.1457 78.6717 77.2772 78.62 77.3994C78.5684 77.5216 78.4927 77.6321 78.3975 77.7242C78.3023 77.8164 78.1895 77.8883 78.066 77.9357C77.9425 77.9831 77.8107 78.005 77.6785 78.0001Z" fill="#3330E8"/>
<path d="M69.1388 78.0001H65.843C65.5854 77.9953 65.3399 77.8892 65.1595 77.7046C64.979 77.52 64.8779 77.2716 64.8779 77.013C64.8779 76.7543 64.979 76.506 65.1595 76.3214C65.3399 76.1368 65.5854 76.0307 65.843 76.0259H69.1388C69.3996 76.0259 69.6497 76.1299 69.8341 76.315C70.0185 76.5001 70.1221 76.7512 70.1221 77.013C70.1221 77.2748 70.0185 77.5258 69.8341 77.711C69.6497 77.8961 69.3996 78.0001 69.1388 78.0001ZM59.2878 78.0001H55.9921C55.7313 78.0001 55.4812 77.8961 55.2968 77.711C55.1124 77.5258 55.0088 77.2748 55.0088 77.013C55.0088 76.7512 55.1124 76.5001 55.2968 76.315C55.4812 76.1299 55.7313 76.0259 55.9921 76.0259H59.3607C59.62 76.0306 59.8674 76.1361 60.0508 76.3202C60.2342 76.5043 60.3393 76.7526 60.344 77.013C60.344 77.2748 60.2404 77.5258 60.056 77.711C59.8716 77.8961 59.6215 78.0001 59.3607 78.0001H59.2878Z" fill="#3330E8"/>
<path d="M49.4184 78.0001H47.4519C47.1943 77.9953 46.9488 77.8892 46.7683 77.7046C46.5879 77.52 46.4868 77.2716 46.4868 77.013C46.4868 76.7543 46.5879 76.506 46.7683 76.3214C46.9488 76.1368 47.1943 76.0307 47.4519 76.0259H49.4184C49.6792 76.0259 49.9293 76.1299 50.1137 76.315C50.2981 76.5001 50.4017 76.7512 50.4017 77.013C50.4017 77.2748 50.2981 77.5258 50.1137 77.711C49.9293 77.8961 49.6792 78.0001 49.4184 78.0001Z" fill="#3330E8"/>
<path d="M80.0277 77.9999H77.6788C77.418 77.9999 77.1679 77.8959 76.9835 77.7108C76.7991 77.5257 76.6955 77.2746 76.6955 77.0128C76.6955 76.751 76.7991 76.4999 76.9835 76.3148C77.1679 76.1297 77.418 76.0257 77.6788 76.0257H79.0444V73.1009H6.93774V76.0257H47.4522C47.713 76.0257 47.9631 76.1297 48.1475 76.3148C48.3319 76.4999 48.4355 76.751 48.4355 77.0128C48.4355 77.2746 48.3319 77.5257 48.1475 77.7108C47.9631 77.8959 47.713 77.9999 47.4522 77.9999H5.95447C5.69369 77.9999 5.44359 77.8959 5.25919 77.7108C5.07479 77.5257 4.97119 77.2746 4.97119 77.0128V72.1138C4.97119 71.852 5.07479 71.601 5.25919 71.4158C5.44359 71.2307 5.69369 71.1267 5.95447 71.1267H80.0277C80.2885 71.1267 80.5386 71.2307 80.723 71.4158C80.9074 71.601 81.011 71.852 81.011 72.1138V77.0128C81.011 77.2746 80.9074 77.5257 80.723 77.7108C80.5386 77.8959 80.2885 77.9999 80.0277 77.9999Z" fill="#3330E8"/>
</g>
<defs>
<clipPath id="clip0_649_2513">
<rect width="86" height="78" fill="white"/>
</clipPath>
</defs>
</svg>
