<svg width="86" height="72" viewBox="0 0 86 72" fill="none" xmlns="http://www.w3.org/2000/svg">
<g clip-path="url(#clip0_649_2539)">
<path d="M67.4507 13.4315C67.3256 13.4336 67.2015 13.411 67.0863 13.3654C66.971 13.3197 66.8671 13.2518 66.7813 13.1662L63.9452 10.4965C63.8557 10.4146 63.7845 10.3166 63.7359 10.2084C63.6874 10.1001 63.6624 9.98382 63.6624 9.86633C63.6624 9.74883 63.6874 9.63254 63.7359 9.52431C63.7845 9.41608 63.8557 9.3181 63.9452 9.23619L71.2733 2.33801C71.3603 2.25377 71.4644 2.18681 71.5794 2.14108C71.6944 2.09536 71.8179 2.07178 71.9427 2.07178C72.0676 2.07178 72.1911 2.09536 72.306 2.14108C72.421 2.18681 72.5251 2.25377 72.6121 2.33801L75.4483 5.00775C75.54 5.08842 75.6131 5.18598 75.6631 5.29437C75.7131 5.40277 75.739 5.51968 75.739 5.63786C75.739 5.75603 75.7131 5.87296 75.6631 5.98136C75.6131 6.08976 75.54 6.18732 75.4483 6.26799L68.1201 13.1662C68.0343 13.2518 67.9304 13.3197 67.8152 13.3654C67.6999 13.411 67.5757 13.4336 67.4507 13.4315ZM65.9533 9.86633L67.4507 11.2758L73.44 5.63786L71.9427 4.22838L65.9533 9.86633Z" fill="#00D880"/>
<path d="M75.5186 21.0263C75.2705 21.0241 75.032 20.9355 74.8492 20.7776L72.0131 18.0913C71.9237 18.0093 71.8528 17.9113 71.8044 17.803C71.756 17.6948 71.7311 17.5785 71.7312 17.4611C71.7348 17.2246 71.8359 16.9987 72.0131 16.831L79.3412 9.9328C79.5194 9.766 79.7594 9.67087 80.0106 9.66748C80.2672 9.67003 80.5131 9.76497 80.6977 9.9328L83.5338 12.6025C83.7102 12.7702 83.8092 12.9967 83.8092 13.2326C83.8092 13.4686 83.7102 13.6951 83.5338 13.8628L76.2056 20.7776C76.0174 20.9379 75.7725 21.0266 75.5186 21.0263ZM74.0213 17.4611L75.5186 18.8706L81.508 13.2326L80.0106 11.8232L74.0213 17.4611Z" fill="#00D880"/>
<path d="M18.5493 13.4316C18.2977 13.43 18.057 13.3346 17.8799 13.1663L10.5518 6.2681C10.3754 6.10043 10.2764 5.87397 10.2764 5.63797C10.2764 5.40197 10.3754 5.17554 10.5518 5.00786L13.3879 2.33812C13.4736 2.25176 13.5772 2.18291 13.6924 2.13583C13.8076 2.08875 13.9317 2.06445 14.0573 2.06445C14.1828 2.06445 14.307 2.08875 14.4222 2.13583C14.5374 2.18291 14.641 2.25176 14.7267 2.33812L22.0724 9.23631C22.2489 9.40398 22.3478 9.63045 22.3478 9.86644C22.3478 10.1024 22.2489 10.3289 22.0724 10.4966L19.2187 13.1663C19.1329 13.252 19.029 13.3198 18.9138 13.3655C18.7985 13.4112 18.6744 13.4337 18.5493 13.4316ZM12.56 5.63797L18.5493 11.2759L20.0467 9.86644L14.0573 4.2285L12.56 5.63797Z" fill="#00D880"/>
<path d="M10.4813 21.0263C10.2322 21.0291 9.99186 20.9398 9.81194 20.7776L2.50142 13.8628C2.40968 13.7821 2.33653 13.6846 2.28652 13.5762C2.23651 13.4678 2.21069 13.3509 2.21069 13.2327C2.21069 13.1145 2.23651 12.9976 2.28652 12.8892C2.33653 12.7808 2.40968 12.6832 2.50142 12.6026L5.33756 9.93283C5.51568 9.76676 5.75626 9.67358 6.00696 9.67358C6.25767 9.67358 6.49822 9.76676 6.67634 9.93283L14.0045 16.831C14.1809 16.9987 14.2799 17.2252 14.2799 17.4612C14.2799 17.6971 14.1809 17.9236 14.0045 18.0913L11.1684 20.7776C11.0771 20.8599 10.9694 20.9244 10.8514 20.9671C10.7335 21.0098 10.6077 21.0299 10.4813 21.0263ZM4.49201 13.2327L10.4813 18.8706L11.9787 17.4612L5.98933 11.8232L4.49201 13.2327Z" fill="#00D880"/>
<path d="M67.1512 65.9641C66.7619 65.9668 66.376 65.8963 66.016 65.7568C65.656 65.6173 65.3293 65.4115 65.0549 65.1515L33.1528 35.1377C32.6618 34.6054 32.4035 33.9177 32.4298 33.2132C32.4562 32.5087 32.7652 31.8398 33.2948 31.3413C33.8243 30.8429 34.5349 30.5519 35.2833 30.5271C36.0317 30.5023 36.7623 30.7455 37.3278 31.2077L69.2299 61.2381C69.6323 61.6283 69.9046 62.121 70.0131 62.6552C70.1217 63.1893 70.0617 63.7417 69.8407 64.2442C69.6197 64.7468 69.2473 65.1774 68.7694 65.483C68.2914 65.7886 67.7289 65.9558 67.1512 65.9641ZM35.2315 32.1695C34.9563 32.1738 34.6926 32.2743 34.4916 32.4514C34.298 32.6374 34.1895 32.8874 34.1895 33.1478C34.1895 33.4083 34.298 33.6583 34.4916 33.8443L66.4113 63.8913C66.613 64.0661 66.8771 64.1631 67.1512 64.1631C67.4253 64.1631 67.6894 64.0661 67.891 63.8913C68.0847 63.7053 68.1932 63.4553 68.1932 63.1948C68.1932 62.9344 68.0847 62.6844 67.891 62.4984L35.9713 32.468C35.7723 32.2881 35.5074 32.1871 35.2315 32.1861V32.1695Z" fill="#00D880"/>
<path d="M67.9966 72.0166C66.8813 72.0173 65.7767 71.8112 64.746 71.4101C63.7154 71.0089 62.7787 70.4205 61.9897 69.6785L57.1101 65.1349C56.9337 64.9673 56.8347 64.7408 56.8347 64.5048C56.8347 64.2688 56.9337 64.0424 57.1101 63.8747C57.2698 63.7123 57.3585 63.4991 57.3585 63.2777C57.3585 63.0564 57.2698 62.8432 57.1101 62.6808L35.7951 42.55C35.6225 42.3996 35.396 42.3161 35.1609 42.3161C34.9258 42.3161 34.6993 42.3996 34.5267 42.55C34.3486 42.716 34.1081 42.8092 33.8574 42.8092C33.6067 42.8092 33.3661 42.716 33.188 42.55L24.9614 34.8227C23.8988 35.4108 22.6316 35.5778 21.4383 35.287L7.34568 31.7052C6.55457 31.5046 5.83284 31.113 5.25196 30.5691C4.67108 30.0252 4.25121 29.3479 4.03392 28.6043L0.246546 15.3385C0.0582828 14.6695 0.0399102 13.9682 0.192921 13.2912C0.345932 12.6142 0.666033 11.9807 1.12733 11.4417C1.21158 11.3451 1.31603 11.2658 1.43422 11.2087C1.5524 11.1516 1.6818 11.1181 1.81434 11.1101C1.94814 11.1007 2.08245 11.1197 2.20743 11.1656C2.33241 11.2115 2.44489 11.2832 2.5366 11.3754L15.6955 23.7457L25.2609 14.7416L12.1196 2.35466C12.0226 2.26763 11.9471 2.16164 11.8984 2.04417C11.8497 1.92671 11.829 1.80061 11.8377 1.67478C11.8462 1.55001 11.8818 1.42823 11.9424 1.31698C12.0031 1.20573 12.0873 1.10738 12.19 1.02808C12.7646 0.597318 13.4376 0.298199 14.1561 0.154308C14.8745 0.010418 15.6186 0.0256967 16.3297 0.198967L30.4223 3.76416C31.2123 3.9687 31.9318 4.36394 32.5095 4.91074C33.0873 5.45754 33.5034 6.1369 33.7164 6.8816L37.5214 20.1474C37.8305 21.2707 37.653 22.4636 37.0282 23.4638L45.2371 31.2077C45.4135 31.3754 45.5125 31.6019 45.5125 31.8378C45.5125 32.0738 45.4135 32.3003 45.2371 32.468C45.0716 32.6281 44.9772 32.8416 44.9729 33.0649C44.9805 33.2876 45.0745 33.5 45.2371 33.6619L47.5096 35.801C47.6594 35.9728 47.7359 36.191 47.7243 36.413C47.7128 36.635 47.6139 36.8451 47.4469 37.0023C47.2799 37.1594 47.0568 37.2525 46.8209 37.2635C46.585 37.2744 46.3533 37.2023 46.1707 37.0613L43.8983 34.9221C43.6394 34.6785 43.4344 34.3888 43.2953 34.07C43.1562 33.7512 43.0857 33.4096 43.088 33.0649C43.0863 32.6824 43.1703 32.3038 43.3346 31.9539L35.1081 24.1934C34.9421 24.0274 34.8497 23.8079 34.8497 23.5799C34.8497 23.3519 34.9421 23.1325 35.1081 22.9664C35.4128 22.6477 35.6275 22.2619 35.7322 21.8446C35.8368 21.4273 35.8282 20.9919 35.707 20.5785L31.9196 7.31275C31.7956 6.87065 31.5493 6.46739 31.2058 6.14406C30.8623 5.82073 30.4339 5.58887 29.9643 5.47213L15.8717 1.89036C15.3861 1.77455 14.8775 1.77455 14.392 1.89036L27.1634 14.0617C27.2551 14.1424 27.3283 14.2399 27.3783 14.3483C27.4283 14.4567 27.4541 14.5737 27.4541 14.6918C27.4541 14.81 27.4283 14.9269 27.3783 15.0353C27.3283 15.1437 27.2551 15.2413 27.1634 15.322L16.2592 25.5863C16.1735 25.6727 16.0699 25.7416 15.9547 25.7886C15.8396 25.8357 15.7154 25.86 15.5898 25.86C15.4643 25.86 15.3401 25.8357 15.2249 25.7886C15.1098 25.7416 15.0062 25.6727 14.9205 25.5863L1.99051 13.4316C1.86748 13.8887 1.86748 14.3674 1.99051 14.8245L5.79549 28.0903C5.91417 28.5456 6.16208 28.962 6.51269 29.295C6.8633 29.6279 7.30345 29.8649 7.78608 29.9806L21.8787 33.5458C22.3178 33.6599 22.7803 33.668 23.2236 33.5695C23.667 33.4709 24.0768 33.2689 24.4153 32.982C24.5918 32.8258 24.8249 32.7388 25.0671 32.7388C25.3093 32.7388 25.5424 32.8258 25.7189 32.982L33.9631 40.7425C34.481 40.5124 35.0617 40.4383 35.626 40.5303C36.1903 40.6223 36.7107 40.8759 37.1163 41.2566L58.5018 61.3874C58.9062 61.7691 59.1755 62.259 59.2733 62.7902C59.371 63.3214 59.2923 63.8681 59.0479 64.3556L63.3108 68.3685C63.9156 68.9794 64.6449 69.4695 65.4552 69.8093C66.2655 70.1492 67.1403 70.3319 68.0273 70.3467C68.9143 70.3614 69.7953 70.2078 70.6179 69.8951C71.4404 69.5823 72.1876 69.1168 72.8149 68.5263C73.4422 67.9359 73.9367 67.2325 74.2689 66.4582C74.6012 65.6839 74.7644 64.8546 74.7487 64.0196C74.7331 63.1847 74.5389 62.3613 74.1778 61.5985C73.8168 60.8357 73.2962 60.1492 72.6472 59.5799L68.3842 55.567C67.8657 55.7947 67.2856 55.8675 66.7219 55.7756C66.1582 55.6837 65.6379 55.4315 65.2309 55.053C65.0811 54.8811 65.0046 54.663 65.0162 54.441C65.0278 54.2189 65.1266 54.0089 65.2936 53.8517C65.4606 53.6945 65.6837 53.6014 65.9196 53.5905C66.1555 53.5796 66.3872 53.6517 66.5698 53.7927C66.7423 53.9431 66.9688 54.0266 67.204 54.0266C67.4391 54.0266 67.6655 53.9431 67.8381 53.7927C67.9251 53.7085 68.0292 53.6415 68.1441 53.5958C68.2591 53.5501 68.3827 53.5265 68.5075 53.5265C68.6323 53.5265 68.7559 53.5501 68.8709 53.5958C68.9858 53.6415 69.0899 53.7085 69.1769 53.7927L74.0036 58.3197C75.5946 59.8238 76.4878 61.8599 76.4878 63.9825C76.4878 66.105 75.5946 68.1412 74.0036 69.6453C72.4136 71.153 70.2534 72.0057 67.9966 72.0166Z" fill="#3330E8"/>
<path d="M48.1438 38.6199C47.8922 38.6183 47.6515 38.5229 47.4744 38.3546L46.1356 37.0944C45.9858 36.9225 45.9092 36.7044 45.9208 36.4824C45.9324 36.2604 46.0313 36.0503 46.1983 35.8931C46.3653 35.7359 46.5884 35.6428 46.8243 35.6319C47.0601 35.621 47.2919 35.6931 47.4744 35.8341L48.8308 37.0944C49.0072 37.262 49.1062 37.4885 49.1062 37.7245C49.1062 37.9605 49.0072 38.187 48.8308 38.3546C48.7411 38.44 48.634 38.5074 48.516 38.553C48.3979 38.5986 48.2714 38.6213 48.1438 38.6199Z" fill="#3330E8"/>
<path d="M58.0087 47.8894C57.7596 47.8922 57.5192 47.8029 57.3393 47.6406L54.0452 44.5398C53.8688 44.3721 53.7698 44.1456 53.7698 43.9096C53.7698 43.6736 53.8688 43.4472 54.0452 43.2795C54.2263 43.1124 54.4697 43.0188 54.7234 43.0188C54.977 43.0188 55.2205 43.1124 55.4016 43.2795L58.6781 46.3638C58.8099 46.489 58.8994 46.648 58.9356 46.8209C58.9718 46.9938 58.9529 47.1729 58.8814 47.3358C58.81 47.4987 58.6891 47.6381 58.5338 47.7365C58.3786 47.835 58.1959 47.8882 58.0087 47.8894Z" fill="#3330E8"/>
<path d="M65.9179 55.3514C65.6675 55.3447 65.4287 55.2501 65.2485 55.0861L63.9097 53.8259C63.7322 53.6554 63.6328 53.4262 63.6328 53.1875C63.6328 52.9487 63.7322 52.7195 63.9097 52.549C64.0878 52.383 64.3284 52.2898 64.5791 52.2898C64.8298 52.2898 65.0704 52.383 65.2485 52.549L66.5873 53.8259C66.7638 53.9935 66.8628 54.22 66.8628 54.456C66.8628 54.692 66.7638 54.9184 66.5873 55.0861C66.4092 55.2529 66.1692 55.3481 65.9179 55.3514Z" fill="#3330E8"/>
<path d="M18.0033 72.0167C16.3233 72.0132 14.6819 71.5416 13.2861 70.6613C11.8904 69.781 10.8027 68.5314 10.1603 67.0701C9.51786 65.6088 9.34939 64.0011 9.67614 62.4498C10.0029 60.8985 10.8102 59.473 11.9964 58.3529L16.8055 53.826C16.9866 53.6589 17.2301 53.5653 17.4837 53.5653C17.7373 53.5653 17.9808 53.6589 18.1619 53.826C18.3295 53.9789 18.5538 54.0645 18.7872 54.0645C19.0207 54.0645 19.245 53.9789 19.4126 53.826L30.9333 42.9646C31.1132 42.7953 31.3571 42.7002 31.6115 42.7002C31.8659 42.7002 32.1098 42.7953 32.2897 42.9646C32.4696 43.1339 32.5706 43.3636 32.5706 43.603C32.5706 43.8425 32.4696 44.0721 32.2897 44.2414L20.7514 55.0862C20.3458 55.4669 19.8254 55.7205 19.2611 55.8125C18.6968 55.9045 18.1161 55.8304 17.5982 55.6003L13.3352 59.6132C12.1683 60.792 11.533 62.3511 11.5632 63.9621C11.5934 65.573 12.2867 67.1101 13.4971 68.2494C14.7074 69.3887 16.3402 70.0413 18.0516 70.0697C19.763 70.0981 21.4192 69.5002 22.6715 68.4018L26.9345 64.3889C26.6951 63.9003 26.6191 63.3548 26.7167 62.8247C26.8142 62.2946 27.0806 61.8049 27.4806 61.4206L40.3225 49.3488C40.505 49.2077 40.7367 49.1357 40.9726 49.1466C41.2085 49.1575 41.4316 49.2506 41.5986 49.4078C41.7656 49.565 41.8645 49.775 41.8761 49.997C41.8876 50.219 41.8111 50.4372 41.6613 50.609L28.9251 62.6477C28.7565 62.8059 28.6615 63.0206 28.6609 63.2447C28.6592 63.3559 28.6817 63.4663 28.7272 63.569C28.7726 63.6717 28.84 63.7645 28.9251 63.8416C29.1015 64.0093 29.2005 64.2358 29.2005 64.4718C29.2005 64.7078 29.1015 64.9342 28.9251 65.1019L24.0984 69.6454C23.303 70.4049 22.3536 71.0061 21.3066 71.4135C20.2596 71.8208 19.1362 72.0259 18.0033 72.0167Z" fill="#3330E8"/>
<path d="M54.3974 40.7095C54.1462 40.7061 53.9062 40.6109 53.728 40.4441C53.5516 40.2765 53.4526 40.05 53.4526 39.814C53.4526 39.578 53.5516 39.3516 53.728 39.1839L60.2635 33.0153C60.4399 32.8591 60.673 32.7721 60.9153 32.7721C61.1575 32.7721 61.3906 32.8591 61.567 33.0153C61.9099 33.301 62.3228 33.502 62.7687 33.6004C63.2145 33.6989 63.6793 33.6915 64.1213 33.5791L78.2139 30.0139C78.686 29.8982 79.1172 29.667 79.4637 29.3437C79.8102 29.0204 80.0597 28.6166 80.1869 28.1733L83.9743 14.9075C84.106 14.4515 84.106 13.9706 83.9743 13.5146L71.0619 25.6694C70.9762 25.7557 70.8726 25.8246 70.7574 25.8717C70.6422 25.9187 70.5181 25.943 70.3925 25.943C70.267 25.943 70.1428 25.9187 70.0276 25.8717C69.9125 25.8246 69.8088 25.7557 69.7231 25.6694L58.8014 15.405C58.6242 15.2373 58.5231 15.0114 58.5195 14.7749C58.5194 14.6574 58.5443 14.5411 58.5927 14.4329C58.6411 14.3247 58.712 14.2267 58.8014 14.1447L71.7137 1.97338C71.2282 1.85757 70.7196 1.85757 70.234 1.97338L56.1414 5.55515C55.6693 5.67089 55.2381 5.90212 54.8916 6.22539C54.5451 6.54865 54.2956 6.95241 54.1684 7.39575L50.381 20.6615C50.2599 21.0749 50.2512 21.5103 50.3559 21.9276C50.4606 22.3449 50.6752 22.7307 50.98 23.0494C51.146 23.2155 51.2384 23.4349 51.2384 23.6629C51.2384 23.891 51.146 24.1104 50.98 24.2765L45.6953 29.2511C45.5142 29.4182 45.2707 29.5118 45.0171 29.5118C44.7634 29.5118 44.52 29.4182 44.3389 29.2511C44.1624 29.0835 44.0635 28.857 44.0635 28.621C44.0635 28.385 44.1624 28.1586 44.3389 27.9909L49.0246 23.58C48.7107 23.0865 48.5052 22.5386 48.4205 21.9689C48.3357 21.3992 48.3735 20.8193 48.5314 20.2636L52.3188 6.99779C52.5318 6.25036 52.9499 5.56882 53.5312 5.02162C54.1125 4.47442 54.8365 4.08082 55.6305 3.88033L69.7231 0.315161C70.4338 0.136604 71.1791 0.118626 71.8985 0.262709C72.6179 0.406792 73.291 0.708859 73.8628 1.14427C73.9647 1.22373 74.0482 1.32198 74.1082 1.43297C74.1682 1.54396 74.2034 1.66535 74.2116 1.78964C74.2199 1.91392 74.201 2.03848 74.1561 2.15564C74.1113 2.2728 74.0415 2.38008 73.9509 2.47085L60.7919 14.8577L70.3749 23.8619L83.5162 11.4916C83.6087 11.4003 83.7213 11.3293 83.8461 11.2834C83.9709 11.2376 84.1048 11.2181 84.2385 11.2263C84.3715 11.2322 84.5016 11.2649 84.6201 11.3221C84.7386 11.3793 84.8428 11.4597 84.9255 11.5579C85.3868 12.0968 85.7069 12.7304 85.8599 13.4074C86.0129 14.0843 85.9946 14.7857 85.8063 15.4547L82.0189 28.7205C81.8082 29.4672 81.3904 30.1478 80.8086 30.6926C80.2267 31.2374 79.5015 31.627 78.7072 31.8214L64.6146 35.4031C63.421 35.6904 62.1553 35.5235 61.0914 34.9388L55.1197 40.5602C54.9079 40.6946 54.6496 40.748 54.3974 40.7095Z" fill="#3330E8"/>
<path d="M18.8663 65.964C18.4771 65.9668 18.0911 65.8963 17.7312 65.7568C17.3712 65.6173 17.0445 65.4115 16.7701 65.1515C16.2183 64.6295 15.9084 63.923 15.9084 63.1865C15.9084 62.45 16.2183 61.7436 16.7701 61.2215C16.8592 61.1377 16.9649 61.0712 17.0813 61.0258C17.1976 60.9804 17.3223 60.9571 17.4483 60.9571C17.5742 60.9571 17.699 60.9804 17.8153 61.0258C17.9317 61.0712 18.0374 61.1377 18.1265 61.2215C18.2156 61.3054 18.2862 61.4049 18.3344 61.5144C18.3826 61.624 18.4074 61.7414 18.4074 61.8599C18.4074 61.9785 18.3826 62.0959 18.3344 62.2055C18.2862 62.315 18.2156 62.4145 18.1265 62.4984C18.0263 62.5882 17.9465 62.6962 17.892 62.816C17.8375 62.9357 17.8094 63.0646 17.8094 63.1948C17.8094 63.3251 17.8375 63.4539 17.892 63.5737C17.9465 63.6934 18.0263 63.8014 18.1265 63.8913C18.3241 64.0736 18.5897 64.1757 18.8663 64.1757C19.143 64.1757 19.4087 64.0736 19.6062 63.8913L37.7328 46.8779C37.817 46.7813 37.9218 46.7023 38.0404 46.6461C38.159 46.59 38.2888 46.5577 38.4215 46.5516C38.5541 46.5455 38.6866 46.5656 38.8105 46.6105C38.9344 46.6555 39.0469 46.7244 39.1407 46.8128C39.2346 46.9012 39.3078 47.0071 39.3556 47.1237C39.4034 47.2403 39.4247 47.3651 39.4182 47.4899C39.4117 47.6147 39.3775 47.7369 39.3178 47.8486C39.2581 47.9602 39.1742 48.0589 39.0716 48.1382L20.9803 65.1681C20.7023 65.4271 20.3721 65.6309 20.009 65.7677C19.6459 65.9044 19.2573 65.9712 18.8663 65.964Z" fill="#00D880"/>
<path d="M31.6203 49.3819C31.4952 49.384 31.3711 49.3615 31.2558 49.3158C31.1405 49.2701 31.0367 49.2022 30.9509 49.1166C30.8591 49.0359 30.786 48.9384 30.736 48.83C30.6859 48.7216 30.6602 48.6047 30.6602 48.4865C30.6602 48.3683 30.6859 48.2514 30.736 48.143C30.786 48.0346 30.8591 47.937 30.9509 47.8564L32.2897 46.5961C32.4722 46.4551 32.7039 46.383 32.9398 46.3939C33.1757 46.4048 33.3988 46.4979 33.5658 46.6551C33.7328 46.8123 33.8317 47.0223 33.8433 47.2443C33.8548 47.4664 33.7783 47.6845 33.6285 47.8564L32.2897 49.1166C32.1126 49.2849 31.8719 49.3803 31.6203 49.3819Z" fill="#00D880"/>
<path d="M23.9221 56.678C23.797 56.6801 23.6729 56.6576 23.5576 56.6119C23.4424 56.5662 23.3385 56.4984 23.2527 56.4127C23.0763 56.2451 22.9773 56.0186 22.9773 55.7826C22.9773 55.5466 23.0763 55.3201 23.2527 55.1525L25.807 52.7315C25.896 52.6476 26.0018 52.5811 26.1181 52.5358C26.2345 52.4904 26.3592 52.467 26.4852 52.467C26.6111 52.467 26.7358 52.4904 26.8522 52.5358C26.9686 52.5811 27.0743 52.6476 27.1634 52.7315C27.2524 52.8153 27.3231 52.9148 27.3713 53.0244C27.4195 53.1339 27.4443 53.2513 27.4443 53.3699C27.4443 53.4884 27.4195 53.6058 27.3713 53.7154C27.3231 53.8249 27.2524 53.9245 27.1634 54.0083L24.5915 56.4127C24.505 56.4976 24.401 56.5649 24.2859 56.6105C24.1708 56.6561 24.047 56.6791 23.9221 56.678Z" fill="#00D880"/>
<path d="M17.4395 62.7638C17.1914 62.7616 16.953 62.673 16.7701 62.5151C16.5926 62.3446 16.4932 62.1154 16.4932 61.8767C16.4932 61.6379 16.5926 61.4087 16.7701 61.2382L18.1265 59.978C18.2108 59.8814 18.3156 59.8024 18.4342 59.7462C18.5528 59.69 18.6826 59.6578 18.8152 59.6517C18.9478 59.6456 19.0803 59.6657 19.2042 59.7106C19.3281 59.7556 19.4406 59.8245 19.5345 59.9129C19.6284 60.0013 19.7016 60.1072 19.7493 60.2238C19.7971 60.3404 19.8185 60.4652 19.8119 60.59C19.8054 60.7148 19.7712 60.837 19.7115 60.9486C19.6518 61.0603 19.568 61.1589 19.4653 61.2382L18.1265 62.5151C17.9383 62.6754 17.6934 62.7641 17.4395 62.7638Z" fill="#00D880"/>
<path d="M32.9589 48.1714C32.8339 48.1735 32.7098 48.151 32.5945 48.1053C32.4792 48.0596 32.3754 47.9918 32.2896 47.9061C32.1131 47.7384 32.0142 47.512 32.0142 47.276C32.0142 47.04 32.1131 46.8135 32.2896 46.6459L34.8615 44.2083C35.0413 44.039 35.2853 43.9438 35.5397 43.9438C35.7941 43.9438 36.038 44.039 36.2179 44.2083C36.3977 44.3776 36.4988 44.6072 36.4988 44.8467C36.4988 45.0861 36.3977 45.3158 36.2179 45.4851L33.6284 47.9061C33.5419 47.991 33.4379 48.0583 33.3228 48.1039C33.2077 48.1495 33.0838 48.1725 32.9589 48.1714Z" fill="#00D880"/>
<path d="M50.4692 37.0116C50.2179 37.0082 49.9779 36.9131 49.7998 36.7463C49.6234 36.5786 49.5244 36.3522 49.5244 36.1162C49.5244 35.8802 49.6234 35.6537 49.7998 35.486L51.5614 33.8278C51.6615 33.738 51.7413 33.6299 51.7958 33.5102C51.8503 33.3905 51.8784 33.2616 51.8784 33.1314C51.8784 33.0011 51.8503 32.8722 51.7958 32.7525C51.7413 32.6328 51.6615 32.5247 51.5614 32.4349C51.3597 32.2601 51.0956 32.1631 50.8215 32.1631C50.5473 32.1631 50.2832 32.2601 50.0816 32.4349L48.32 34.0931C48.2328 34.1799 48.1276 34.2491 48.011 34.2964C47.8944 34.3436 47.7688 34.368 47.6418 34.368C47.5149 34.368 47.3893 34.3436 47.2726 34.2964C47.156 34.2491 47.0509 34.1799 46.9636 34.0931C46.7872 33.9255 46.6882 33.699 46.6882 33.463C46.6882 33.227 46.7872 33.0006 46.9636 32.8329L48.7252 31.1747C49.2854 30.6719 50.0298 30.3914 50.8039 30.3914C51.5779 30.3914 52.3223 30.6719 52.8825 31.1747C53.1606 31.429 53.3817 31.7332 53.533 32.0692C53.6842 32.4053 53.7626 32.7664 53.7633 33.1314C53.7629 33.4988 53.6849 33.8626 53.5336 34.2014C53.3824 34.5401 53.1611 34.8472 52.8825 35.1046L51.121 36.7629C50.9445 36.9197 50.7118 37.0085 50.4692 37.0116Z" fill="#00D880"/>
</g>
<defs>
<clipPath id="clip0_649_2539">
<rect width="86" height="72" fill="white"/>
</clipPath>
</defs>
</svg>
